<svg width="26" height="26" viewBox="0 0 26 26" fill="none" xmlns="http://www.w3.org/2000/svg">
<path d="M18.2049 8.96518C18.851 8.96518 19.3749 8.44136 19.3749 7.79518C19.3749 7.14901 18.851 6.62518 18.2049 6.62518C17.5587 6.62518 17.0349 7.14901 17.0349 7.79518C17.0349 8.44136 17.5587 8.96518 18.2049 8.96518Z" fill="white"/>
<path d="M13 7.99341C12.0098 7.99341 11.0418 8.28704 10.2185 8.83718C9.39517 9.38731 8.75346 10.1692 8.37452 11.0841C7.99558 11.9989 7.89643 13.0056 8.08961 13.9768C8.28279 14.948 8.75963 15.8401 9.45982 16.5403C10.16 17.2404 11.0521 17.7173 12.0233 17.9105C12.9945 18.1036 14.0011 18.0045 14.916 17.6256C15.8308 17.2466 16.6128 16.6049 17.1629 15.7816C17.713 14.9582 18.0067 13.9903 18.0067 13C18.0067 11.6722 17.4792 10.3987 16.5403 9.45981C15.6013 8.52089 14.3279 7.99341 13 7.99341ZM13 16.25C12.3572 16.25 11.7289 16.0594 11.1944 15.7023C10.66 15.3452 10.2434 14.8376 9.99743 14.2438C9.75144 13.6499 9.68708 12.9964 9.81248 12.366C9.93789 11.7356 10.2474 11.1565 10.7019 10.7019C11.1565 10.2474 11.7356 9.93788 12.366 9.81248C12.9964 9.68708 13.6499 9.75144 14.2438 9.99742C14.8376 10.2434 15.3452 10.66 15.7023 11.1944C16.0594 11.7289 16.25 12.3572 16.25 13C16.25 13.862 15.9076 14.6886 15.2981 15.2981C14.6886 15.9076 13.862 16.25 13 16.25Z" fill="white"/>
<path d="M13 5.00663C15.6032 5.00663 15.912 5.01637 16.9398 5.0635C17.558 5.07084 18.1703 5.18434 18.7501 5.39906C19.1707 5.56131 19.5526 5.80982 19.8714 6.12859C20.1902 6.44736 20.4387 6.82934 20.6009 7.24994C20.8157 7.82968 20.9292 8.442 20.9365 9.06019C20.9836 10.088 20.9934 10.3967 20.9934 13.0008C20.9934 15.6049 20.9836 15.912 20.9365 16.9398C20.9292 17.558 20.8157 18.1703 20.6009 18.7501C20.4387 19.1707 20.1902 19.5526 19.8714 19.8714C19.5526 20.1902 19.1707 20.4387 18.7501 20.6009C18.1703 20.8157 17.558 20.9292 16.9398 20.9365C15.912 20.9836 15.6032 20.9934 13 20.9934C10.3967 20.9934 10.088 20.9836 9.06019 20.9365C8.442 20.9292 7.82968 20.8157 7.24994 20.6009C6.82934 20.4387 6.44736 20.1902 6.12859 19.8714C5.80982 19.5526 5.56131 19.1707 5.39906 18.7501C5.18434 18.1703 5.07084 17.558 5.0635 16.9398C5.01637 15.912 5.00663 15.6032 5.00663 13C5.00663 10.3967 5.01637 10.088 5.0635 9.06019C5.07084 8.442 5.18434 7.82968 5.39906 7.24994C5.56131 6.82934 5.80982 6.44736 6.12859 6.12859C6.44736 5.80982 6.82934 5.56131 7.24994 5.39906C7.82968 5.18434 8.442 5.07084 9.06019 5.0635C10.088 5.01637 10.3967 5.00663 13 5.00663ZM13 3.25C10.3521 3.25 10.0198 3.26138 8.97975 3.3085C8.17113 3.32483 7.37113 3.47813 6.61375 3.76188C5.96596 4.01237 5.37766 4.39544 4.88655 4.88655C4.39544 5.37766 4.01237 5.96596 3.76188 6.61375C3.47803 7.37138 3.32474 8.17167 3.3085 8.98056C3.26138 10.0206 3.25 10.3513 3.25 13C3.25 15.6488 3.26138 15.9803 3.3085 17.0203C3.32483 17.8289 3.47813 18.6289 3.76188 19.3862C4.01237 20.034 4.39544 20.6223 4.88655 21.1134C5.37766 21.6046 5.96596 21.9876 6.61375 22.2381C7.37138 22.522 8.17167 22.6753 8.98056 22.6915C10.0206 22.7386 10.3521 22.75 13 22.75C15.6479 22.75 15.9803 22.7386 17.0203 22.6915C17.8291 22.6753 18.6294 22.522 19.3871 22.2381C20.0348 21.9876 20.6232 21.6046 21.1143 21.1134C21.6054 20.6223 21.9884 20.034 22.2389 19.3862C22.5225 18.6286 22.6755 17.8283 22.6915 17.0194C22.7386 15.9794 22.75 15.6488 22.75 13C22.75 10.3513 22.7386 10.0198 22.6915 8.97975C22.6752 8.17113 22.5219 7.37113 22.2381 6.61375C21.9876 5.96596 21.6046 5.37766 21.1134 4.88655C20.6223 4.39544 20.034 4.01237 19.3862 3.76188C18.6286 3.47831 17.8283 3.32529 17.0194 3.30931C15.9794 3.26056 15.6488 3.25 13 3.25Z" fill="white"/>
</svg>
