<svg width="24" height="24" viewBox="0 0 24 24" fill="none" xmlns="http://www.w3.org/2000/svg">
<path d="M12.88 5.05001C16.06 5.45001 18.55 7.94001 18.95 11.12C19.01 11.63 19.44 12 19.94 12C19.98 12 20.02 12 20.06 11.99C20.61 11.92 21 11.42 20.93 10.87C20.6842 8.88422 19.7824 7.03737 18.3675 5.62249C16.9526 4.20762 15.1058 3.30576 13.12 3.06001C12.57 3.00001 12.07 3.39001 12.01 3.94001C11.94 4.49001 12.33 4.99001 12.88 5.05001ZM13.26 7.16001C12.73 7.02001 12.18 7.34001 12.04 7.88001C11.9 8.42001 12.22 8.96001 12.76 9.10001C13.2774 9.23432 13.7495 9.50445 14.1275 9.88245C14.5055 10.2605 14.7757 10.7326 14.91 11.25C14.9766 11.5071 15.1424 11.7272 15.3711 11.8622C15.5998 11.9972 15.8727 12.036 16.13 11.97C16.66 11.83 16.98 11.28 16.85 10.75C16.6249 9.88644 16.1735 9.09853 15.5425 8.46749C14.9115 7.83645 14.1235 7.38512 13.26 7.16001ZM19.23 15.26L16.69 14.97C16.3913 14.9349 16.0886 14.968 15.8045 15.0667C15.5205 15.1654 15.2625 15.3273 15.05 15.54L13.21 17.38C10.3712 15.9362 8.06376 13.6288 6.61998 10.79L8.46998 8.94001C8.89998 8.51001 9.10998 7.91001 9.03998 7.30001L8.74998 4.78001C8.69329 4.29219 8.45917 3.84225 8.09222 3.51586C7.72526 3.18947 7.25109 3.00943 6.75998 3.01001H5.02998C3.89998 3.01001 2.95998 3.95001 3.02998 5.08001C3.55998 13.62 10.39 20.44 18.92 20.97C20.05 21.04 20.99 20.1 20.99 18.97V17.24C21 16.23 20.24 15.38 19.23 15.26Z" fill="#978787"/>
</svg>
