<svg width="426" height="130" viewBox="0 0 426 130" fill="none" xmlns="http://www.w3.org/2000/svg">
<path d="M402.848 29.3885C402.8 29.4367 402.752 29.485 402.704 29.5574C403.017 29.654 403.307 29.7506 403.597 29.8471C403.331 29.6781 403.09 29.5333 402.848 29.3885ZM30.1268 46.8417C30.1268 46.8417 30.1268 46.8175 30.1268 46.8417C29.3301 49.2557 29.3301 49.2557 30.6337 49.7867C32.0097 47.5176 33.3615 45.3209 34.6651 43.1724C34.0133 42.931 33.3132 42.6413 33.0718 42.5689C32.0338 44.0414 31.0682 45.4415 30.1268 46.8417C30.1026 46.8417 30.0543 46.8658 30.0302 46.8658C30.0302 46.89 30.0543 46.9141 30.0543 46.9382L30.1268 46.8417ZM51.9734 32.0197C51.9976 31.3196 50.694 30.5713 49.5594 29.4126C49.4146 31.5128 49.3181 32.8646 49.2215 34.1923C49.5595 34.3613 49.8974 34.5303 50.2113 34.7234C50.8389 33.8302 51.9493 32.937 51.9734 32.0197ZM9.3905 62.7741C10.4285 62.6775 11.4182 62.6051 12.7459 62.5085C12.5045 61.3498 12.2873 60.3118 11.9493 58.5737C11.6597 59.829 11.5389 60.3842 11.3941 60.9153C11.201 60.9153 11.0079 60.9153 10.8389 60.9153C10.6217 58.9358 10.4044 56.9322 10.1388 54.5906C6.83165 57.3184 10.2354 60.1669 9.3905 62.7741ZM0 58.9117H7.89383C5.38327 57.3667 2.87266 56.5701 0 58.9117ZM287.918 42.4482C287.266 42.3758 286.614 42.3033 285.963 42.2068C285.697 42.1826 285.407 42.1344 285.335 42.1102C284.514 43.3655 283.862 44.3552 282.848 45.9002C284.369 45.3933 285.287 45.2967 285.89 44.8139C286.711 44.2104 287.266 43.269 287.918 42.4482ZM129.028 43.3897C129.052 43.5586 129.077 43.6311 129.028 43.3897V43.3897ZM416.85 91.8869C418.298 90.2695 419.215 89.2315 420.205 88.1452C419.312 88.0728 418.829 88.0245 418.346 88.0004C418.588 86.0451 417.163 86.5037 416.077 86.3347C414.967 86.1657 413.88 85.8519 412.77 85.6105C413.084 84.9828 413.301 84.5483 413.615 83.969C410.984 84.2345 408.425 85.6588 407.049 82.7861C405.359 83.3172 403.862 83.8 402.221 84.307C402.366 83.7759 402.462 83.3413 402.728 82.2309C400.917 82.6171 399.396 83.1724 397.9 83.1724C395.872 83.1724 393.265 83.4137 392.01 82.3033C390.585 81.048 390.344 78.4168 389.378 75.8338C388.268 77.3788 387.495 78.4409 386.723 79.5031C386.482 79.3099 386.264 79.1169 386.023 78.9479C386.385 78.1271 386.747 77.3063 387.351 75.8821C386.144 76.6063 385.492 76.9925 384.671 77.4511C385.323 74.5302 385.323 74.4578 387.664 74.9406C389.692 75.3752 391.672 76.5098 393.651 76.4615C395.969 76.3891 398.238 75.351 399.783 74.9406C400.676 73.2508 401.11 71.5369 402.197 70.6437C403.355 69.7264 405.142 69.6298 406.735 69.147C405.649 67.9883 404.949 67.24 404.249 66.4916C404.297 66.2502 404.345 66.033 404.393 65.7916C406.107 66.4916 408.256 67.8193 407.097 64.4156C407.049 64.2466 407.556 63.9328 407.749 63.6431C408.304 62.8223 408.811 61.9774 409.342 61.1325C408.014 61.8809 403.693 62.4603 402.728 61.5429C402.462 61.2774 402.221 60.5773 402.366 60.3601C402.655 59.9497 403.211 59.5876 403.717 59.5393C404.176 59.491 404.683 59.829 405.456 60.1187C405.359 59.0806 405.287 58.3806 405.19 57.4633C400.555 59.8773 400.652 54.9768 398.914 53.456C398.455 54.5182 398.117 55.3389 397.489 56.8356C396.596 55.2182 396.137 54.3733 395.582 53.3836C394.81 53.8664 394.086 54.3251 393.892 54.4699C392.71 53.4319 391.792 52.6111 390.754 51.7179C390.682 51.8386 390.947 51.38 391.406 50.5109C390.151 50.8972 389.402 51.1386 388.509 51.4283C388.316 50.0764 388.147 48.9419 388.002 47.8797C387.037 47.6866 386.168 47.3728 385.299 47.3969C384.357 47.421 383.416 47.759 382.45 47.9762C381.75 46.6244 378.25 45.4415 376.705 46.1657C376.85 46.6727 377.019 47.1796 377.091 47.4452C375.281 47.9762 373.494 48.4832 371.66 49.0143C372.094 48.0487 372.432 47.252 372.794 46.4796C372.577 46.2864 372.36 46.1175 372.142 45.9244C371.153 46.7693 370.187 47.6142 369.004 48.6039C368.642 47.6383 368.28 46.6968 367.845 45.5381C366.638 46.9382 365.6 48.1211 364.514 49.4005C362.873 48.1935 361.4 47.8314 360.821 50.342C355.003 48.966 349.354 47.6383 343.44 46.2382C343.923 47.0348 344.309 47.6383 344.671 48.2418C344.55 48.3383 344.43 48.4349 344.309 48.5315C343.536 48.097 342.788 47.6383 342.619 47.5417C341.509 48.0004 340.784 48.6039 340.398 48.4349C339.771 48.1452 339.071 47.4452 338.902 46.7692C338.708 45.9968 339.119 45.0794 339.046 44.2345C339.022 43.8483 338.419 43.5103 338.081 43.1482C337.815 43.5828 337.405 43.9931 337.308 44.4759C337.139 45.2243 337.163 45.9968 337.091 46.7692C336.488 46.2382 335.908 45.7312 334.894 44.838C334.339 45.9002 333.856 46.8175 333.036 48.4349C332.36 48.1694 330.887 47.59 329.511 47.0348C329.028 47.5659 328.256 48.4349 327.194 49.6178C326.445 48.0487 325.914 46.9624 325.673 46.4554C324.273 47.759 322.68 49.2074 320.507 51.1869V46.6485C320.024 47.4452 319.517 48.2418 318.793 49.4247C317.031 48.966 314.568 49.3039 313.724 46.0933C313.41 44.9587 311.744 44.1863 310.682 43.2689C312.468 41.0722 314.206 42.0137 318.358 47.6624C318.576 47.5176 318.793 47.3969 319.034 47.252C318.6 46.5037 317.948 45.8278 317.755 45.0312C317.465 43.9207 317.514 42.7137 317.417 41.555C317.634 41.4102 317.876 41.2653 318.093 41.1205C318.721 42.5689 319.372 44.0173 320 45.4657C320.41 45.1036 320.797 44.7174 321.207 44.3311C320.966 45.1277 320.724 45.9244 320.483 46.721C321.159 45.4174 321.835 44.138 322.535 42.8344C322.607 43.1 322.655 43.3897 322.728 43.6552C324.852 43.6552 327 43.6552 329.125 43.631C329.246 43.631 329.318 43.1965 329.511 43.1C330.501 42.5206 331.515 41.9895 332.529 41.4584C332.698 41.3619 332.915 41.3619 333.832 41.1205C332.36 40.9274 331.66 40.8067 330.959 40.7101C331.008 40.2515 331.032 39.8894 331.056 39.7687C329.077 40.0342 327.17 40.2997 325.262 40.5411C324.804 40.1307 324.321 39.7204 323.862 39.31C328.956 40.8308 325.625 37.596 327.145 36.8477C327.749 37.3788 328.401 37.9823 329.173 38.7065C329.584 38.0788 329.946 37.5719 329.897 37.6202C332.022 37.8133 333.711 37.9823 336.15 38.1995C335.208 36.8236 334.846 36.2925 334.315 35.52C336.657 35.858 338.564 36.1235 341.34 36.5097C339.529 37.065 338.419 37.4029 336.946 37.8374C338.733 38.9962 340.374 40.0583 342.04 41.1446C341.774 41.2895 341.509 41.4584 341.243 41.6033C341.098 42.4965 340.978 43.3896 340.833 44.2828C341.605 43.9931 342.378 43.7276 343.126 43.4138C343.561 43.2448 343.923 42.8586 344.333 42.762C346.868 42.1826 349.427 41.6516 352.42 40.9998C350.078 39.0203 350.078 39.0203 345.564 41.5067C346.602 40.1066 347.302 39.141 348.051 38.1513C347.93 38.0064 347.616 37.6202 347.302 37.2339C347.737 37.2581 348.22 37.1374 348.558 37.3064C351.672 38.7789 354.786 39.2376 355.389 34.2164C357.296 35.182 359.227 36.1959 361.617 37.4271C361.81 38.3927 362.197 40.1308 362.438 41.3619C363.862 39.6721 365.118 38.1513 366.807 36.0994C367.339 37.7409 367.725 38.9479 368.135 40.179C369.487 36.5822 371.877 37.5236 374.943 38.8755C373.76 37.6202 373.277 37.1132 372.939 36.7753C374.605 36.2683 376.077 35.7373 377.574 35.351C378.926 35.0131 380.64 34.2647 381.605 34.7717C384.333 36.2201 384.912 34.8682 385.661 32.6956C385.564 34.2406 385.468 35.7855 385.371 37.3305C386.361 34.8924 387.471 35.6407 388.92 36.6546C389.861 37.3064 391.116 37.5478 392.275 37.765C393.313 37.9582 394.424 37.9099 394.858 37.934C397.61 35.0372 400.217 32.2853 402.848 29.5092C402.414 29.3643 401.931 29.1953 401.328 29.0022C402.293 27.8435 403.042 26.9745 403.766 26.0813C404.442 25.4295 405.142 24.7777 405.818 24.1018C404.997 23.7155 404.152 23.3293 403.331 22.9672C403.79 23.112 404.249 23.2569 404.731 23.4017C404.78 23.3052 404.828 23.1845 404.9 23.0879C403.211 21.6637 401.521 20.2635 399.831 18.8393C398.962 19.6118 398.045 20.4566 397.103 21.3015C397.658 21.374 398.214 21.4464 398.769 21.5188C398.407 22.9189 398.117 24.1018 397.803 25.2605C397.562 25.3571 397.32 25.4778 397.079 25.5743C396.234 23.2327 395.389 20.8912 394.544 18.5255C394.424 18.5737 394.061 18.7669 393.699 18.96C393.555 18.3806 393.434 17.8254 393.144 16.6667C392.758 18.9841 392.468 20.6739 392.082 22.8224C391.068 21.6395 390.537 21.036 390.03 20.4325C389.209 21.0843 388.558 21.5912 387.93 22.1223C387.64 22.0258 387.375 21.9051 387.085 21.8085C387.326 20.7222 387.592 19.6359 387.857 18.4772C387.495 18.0668 386.844 17.2943 385.975 16.2563C387.52 15.6045 388.727 15.0976 390.271 14.4458C388.702 17.7771 389.089 19.129 391.285 19.6359C391.285 18.4772 391.237 17.2943 391.31 16.1115C391.382 14.7596 391.575 13.4078 391.744 11.718C391.068 12.3215 390.682 12.6595 390.296 12.9974L389.74 12.7077C390.44 11.3317 391.141 9.9316 391.841 8.55562C391.527 8.3625 391.189 8.16941 390.875 7.97629C390.078 9.27985 389.258 10.5834 388.485 11.8628C385.371 9.32813 385.371 9.32813 387.351 8.43495C387.23 8.19355 387.109 7.95215 387.013 7.71075C385.419 8.57979 383.802 9.44883 382.691 10.0523C382.04 9.23157 381.485 8.53149 380.929 7.80729C380.736 8.09697 380.543 8.41082 380.35 8.7005C379.867 9.1833 379.384 9.66607 378.902 10.1489C378.177 9.15913 377.429 8.16939 376.656 7.13137C376.367 7.49347 375.908 8.5315 375.16 8.86946C373.905 9.44882 372.432 9.8109 371.056 9.83504C370.139 9.85918 369.221 9.15914 368.304 8.72462C367.676 8.43494 367.073 8.04871 366.445 7.71075C365.794 7.37279 365.166 6.98654 364.49 6.79342C363.042 6.3589 361.569 6.02095 360.048 5.63471C360.628 8.26597 358.383 8.65218 356.355 9.15912C355.679 7.44519 355.027 5.77956 354.641 4.81396C352.999 4.62084 351.961 4.28287 351.044 4.42771C348.799 4.83809 346.916 0.203192 344.743 3.92075C343.536 3.31725 342.498 2.7862 341.026 2.062C341.485 3.07588 341.75 3.67936 342.45 5.17604C340.422 4.6691 339.215 4.35529 337.96 4.01733C336.681 5.99681 329.608 4.88634 327.942 1.98954C327.242 3.58278 326.614 5.0312 326.131 6.18992C325.552 5.07948 325.166 3.48625 324.128 2.61721C323.331 1.94129 321.738 2.18269 320.459 2.01371C320.459 2.01371 320.362 2.56892 320.241 3.29312C317.827 1.0481 311.478 2.52062 309.378 5.61054C308.413 4.04144 310.754 1.45847 307.471 0.372169C306.723 1.38605 305.902 2.47236 305.009 3.7035C302.957 3.07586 302.716 2.1344 304.309 0.951542C300.688 -2.23494 301.267 3.60695 298.829 3.55867C298.757 2.64135 298.684 1.86885 298.684 1.77229C296.512 1.33777 294.749 0.999823 292.867 0.613583C292.335 1.38606 291.587 2.52064 290.815 3.63108C286.856 1.02396 282.293 0.468734 281.038 2.03783C282.462 3.26897 283.838 4.45185 285.431 5.82783V3.1C286.663 3.77592 287.58 4.30699 288.594 4.86221C287.725 5.80367 287.17 6.40718 286.397 7.25208C285.214 6.50374 284.08 5.61057 282.824 5.03121C280.99 4.16217 279.083 2.20684 277.031 3.8725C275.775 4.88638 275.196 6.74515 274.351 8.16941C273.868 6.62445 273.337 4.91048 272.782 3.19654C272.541 3.22068 272.323 3.24486 272.082 3.269C271.889 4.3553 271.696 5.46571 271.503 6.52787C269.571 5.94851 268.485 4.95879 270.32 2.95517C269.113 3.34141 267.978 4.1139 267.133 3.8725C266.457 3.65524 266.144 2.23095 265.661 1.31363C264.961 2.73789 264.406 3.82419 263.85 4.93463C263.561 4.93463 263.271 4.93463 263.005 4.93463C263.44 2.44821 263.102 1.1205 260.253 1.724C258.684 2.06196 256.898 1.2895 255.184 1.02396V3.07587C253.494 2.64135 252.046 2.3758 250.67 1.893C250.09 1.69988 249.656 1.09639 249.173 0.661874C248.666 1.41021 247.99 2.11027 247.676 2.95517C247.459 3.46211 247.749 4.18631 247.821 4.95879C247.049 4.88637 246.325 4.81392 245.673 4.7415C245.721 3.51036 245.769 2.39993 245.818 1.31363C245.625 1.28949 245.407 1.26535 245.214 1.24121C244.514 2.18267 243.814 3.09999 243.452 3.58279C242.607 2.83445 241.666 1.65162 241.352 1.79646C239.131 2.88276 238.334 1.21707 236.524 0.106627C236.741 1.24121 236.958 2.35167 237.272 4.01733C236.307 3.31727 235.534 2.7862 235.003 2.39996C233.168 3.46212 231.43 4.45185 229.378 5.63471C229.185 4.76567 229.04 4.0656 228.92 3.43796C227.689 3.9449 226.433 4.476 225.009 5.0795V3.58279C224.043 3.58279 222.764 3.96903 222.257 3.51038C220.181 1.5309 219.312 3.14828 218.105 4.98292C217.019 3.43796 216.053 2.06197 214.87 0.372169V2.61721C214.701 2.44823 214.532 2.2551 214.363 2.08612C212.698 3.63108 211.056 5.24846 209.318 6.721C208.473 7.42106 207.411 8.26594 206.421 8.29008C205.262 8.31422 204.08 7.51762 202.873 7.05896C204.925 6.88998 206.59 6.76927 208.642 6.60029C207.073 3.94489 205.987 4.47597 205.383 5.65883C203.235 5.36915 201.448 5.12775 199.638 4.86221C198.962 4.23457 198.165 3.46209 197.345 2.71375C197.151 2.88273 196.958 3.05173 196.741 3.22071C196.958 3.84835 197.176 4.476 197.296 4.81396C195.679 4.98294 193.772 4.62084 192.951 5.41746C192.034 6.31064 192.106 8.19354 191.551 10.5351C190.923 8.43494 190.561 7.15552 190.223 6.04508C186.047 5.94852 181.847 5.34504 181.34 11.718C180.616 9.44884 180.133 7.92799 179.65 6.40717C179.312 6.40717 178.974 6.40719 178.612 6.43133C178.371 7.56591 178.153 8.72463 177.888 10.0523C176.343 9.47297 174.653 8.86946 173.543 8.45908C172.963 9.52124 172.577 10.173 172.167 10.8972C172.649 11.549 173.132 12.2008 173.639 12.9008C172.36 14.4458 171.587 14.0596 170.622 12.6595C170.139 11.9594 169.101 11.1869 168.304 11.211C165.673 11.2352 162.945 11.887 161.545 8.79704C160.7 9.2557 160.048 9.61781 159.372 9.97991V7.03483C157.393 8.36253 156.355 10.4627 154.689 11.3317C153.096 12.1766 150.827 11.718 148.751 11.8387C148.847 12.418 148.968 13.0457 149.04 13.5043C146.916 14.6631 143.512 14.1802 144.526 18.8151C141.509 17.4633 139.095 16.4011 136.705 15.3148C136.801 15.001 136.898 14.6872 136.995 14.3734C137.888 14.4699 138.757 14.5665 140.036 14.6872C139.795 13.6733 139.626 12.9732 139.529 12.5146C137.96 12.8525 136.777 13.094 135.619 13.3354C135.16 14.2285 134.629 15.2907 133.953 16.6184C133.06 15.5804 132.336 14.7355 131.37 13.6009C130.694 14.9769 130.09 16.208 129.439 17.584C127.17 14.1803 127.17 14.1803 123.911 17.3667C122.197 16.5218 120.121 14.7596 119.3 15.2183C116.355 16.9322 113.651 16.6908 110.682 15.2424C111.044 16.9322 111.334 18.3082 111.479 18.96C110.223 18.7427 108.799 18.0185 108.075 18.453C105.685 19.9256 103.536 21.8326 101.316 23.5466C99.9155 22.0258 97.9602 20.6981 101.195 18.8393C99.2637 18.7669 97.5257 18.5737 96.0773 19.1531C93.4701 20.1911 91.2251 22.1223 88.0628 21.0119C87.3386 20.7705 86.2764 21.4705 85.4073 21.7361C85.697 24.3673 85.6971 24.3673 82.7278 24.1501C82.3416 23.2328 81.9795 22.3637 81.6415 21.4947C81.2311 21.7119 80.8449 21.9051 80.4345 22.1223C81.3518 23.619 82.245 25.1157 83.6934 27.4572C81.545 26.6365 80.0724 26.1054 78.5999 25.526C78.6481 25.2122 78.7689 24.6811 78.9378 23.8362C75.5824 26.1537 73.4822 29.9195 68.9198 29.5574C68.6059 30.2575 68.2197 31.0783 67.7368 32.1163C66.216 29.8471 64.8642 27.7952 63.0778 25.1398V32.3335H62.1847C62.1123 31.1748 62.064 29.992 62.0157 28.9781C59.8914 30.1851 58.1533 31.1748 56.3911 32.1645C56.2945 32.0197 56.1738 31.8749 56.0773 31.73L56.8256 30.4989C56.6083 30.2816 56.4152 30.0885 56.1979 29.8712C54.3391 31.6817 52.6977 33.7336 51.4183 35.5683H45.2625C46.0108 34.7475 46.5178 34.1923 46.9765 33.6854C45.4557 33.5647 44.0797 33.444 42.414 33.2991C42.9692 34.0475 43.3796 34.6027 43.7417 35.1338C41.5449 35.4717 39.4689 35.7614 38.0447 35.9787C37.755 37.934 37.5619 39.3341 37.3446 40.8067C37.7067 41.3619 38.2136 42.1827 38.793 42.9793C39.1551 43.4862 39.5896 43.9449 40 44.4035C39.4931 44.2104 39.0103 43.8966 38.4792 43.8483C38.1412 43.8242 37.6826 44.0656 37.4412 44.3311C36.3066 45.5864 35.172 46.8417 34.1098 48.1694C33.4098 49.0384 32.8787 50.0523 32.2752 50.9937C32.4924 51.1627 32.7338 51.3558 32.9511 51.5248C33.9167 51.3317 34.8582 51.1386 35.8479 50.9213C33.8684 53.8905 31.4544 52.1042 29.4025 51.2834C28.9921 52.6594 28.7025 53.625 28.2438 55.0975C27.5438 54.1802 26.9886 53.7698 27.061 53.4802C27.5438 51.3558 28.099 49.2315 28.7749 47.1555C28.8715 46.8658 29.6681 46.8175 30.2233 46.6968C29.8612 45.6347 29.4991 44.5725 29.137 43.4621C25.854 44.8381 28.2438 49.4971 24.2366 50.7282V44.4035C24.8159 45.176 25.2987 45.8278 25.7815 46.4796C25.9505 46.4072 26.1195 46.3347 26.2643 46.2623C26.1919 45.1519 26.1195 44.0173 26.0471 42.931C25.0815 42.6413 24.2607 42.424 23.3917 42.1585C22.933 43.3414 22.4502 44.5242 22.2088 45.1519C20.7846 45.7312 19.7465 46.0451 18.8051 46.6003C17.9843 47.0831 17.3084 47.8073 16.5842 48.4349C16.3428 48.2659 16.1014 48.097 15.86 47.928V52.0559H18.1292C17.405 51.5731 16.8739 51.211 16.3669 50.873C16.4635 50.6799 16.56 50.4868 16.6566 50.2937C18.4671 50.8248 20.2776 51.3559 22.1123 51.8869C21.0018 52.9732 19.9879 53.963 18.7085 55.2182C17.7188 54.6389 14.6771 56.3287 14.8703 52.4904C13.8322 52.6836 13.0115 52.8284 12.1907 52.9732C12.8184 55.7735 13.4219 58.453 14.1219 61.6395C15.0392 59.9255 15.7876 58.5737 16.5118 57.2219C17.236 57.8012 17.7429 58.1633 18.2257 58.5496C18.2016 58.3082 18.2016 58.0426 18.1774 57.8012C19.7707 57.246 21.3398 56.6667 22.933 56.1114C23.102 56.4977 23.271 56.908 23.44 57.2943C22.7399 57.6564 22.0398 57.9702 21.3639 58.3806C20.519 58.9116 19.6983 59.491 18.8775 60.0462C19.6258 60.6256 20.3259 61.5188 21.1708 61.6878C21.7743 61.8085 22.7882 61.1325 23.2227 60.5049C24.3573 58.9117 25.5401 58.7427 26.9885 59.9497C27.4472 60.3359 27.7851 60.8911 28.4369 61.7119C27.93 57.6081 29.8854 54.832 32.7822 54.9527C32.2028 56.3287 31.6476 57.7047 31.1648 58.8392C33.2408 59.1289 34.9064 59.3703 37.417 59.7324C36.21 58.9358 35.5824 58.5254 34.6168 57.8978C35.872 57.3426 36.2341 55.5321 38.3826 57.2219C39.4448 58.0668 43.0175 57.8254 43.2589 57.1977C44.2245 54.7596 45.4798 55.0493 47.0006 55.87C47.3868 53.8905 47.7489 51.9352 48.111 49.9799C48.4248 50.0281 48.7387 50.0764 49.0525 50.1247C49.1249 51.4041 49.2215 52.6836 49.2939 53.963C50.163 53.7457 50.7182 53.625 51.2493 53.4802C51.4907 53.794 51.7803 54.2768 51.901 54.2285C54.315 53.3594 55.3772 54.5906 56.0773 56.7632C56.3428 55.5803 56.6083 54.4216 56.8256 53.456C58.3223 53.7216 59.7948 53.9871 61.2432 54.2285C61.2915 54.0354 61.3398 53.8181 61.4122 53.625C60.35 53.1663 59.2638 52.6836 58.2016 52.2249C58.2499 51.9835 58.2981 51.7421 58.3464 51.5007C59.1913 51.6214 60.0604 51.7179 60.688 51.8145C60.857 51.2834 61.0501 50.7765 61.2191 50.2454C61.3157 50.5351 61.4122 50.8489 61.5088 51.1386C62.8123 51.1869 64.2607 51.6455 65.3953 51.211C66.7712 50.704 67.9058 49.4488 69.0887 48.5797C69.1128 48.6522 69.2336 49.1832 69.3543 49.7143C69.4267 49.4488 69.4991 49.2074 69.5715 48.9419C70.9475 49.2798 72.2993 49.7626 73.6994 49.8833C74.3271 49.9316 75.0272 49.3039 75.6789 48.9901H80.6276C79.8068 47.6866 78.8896 46.1899 77.9481 44.7174C80.7483 43.4138 80.7242 45.9485 81.5691 47.5176C85.8902 45.7312 84.9246 49.9075 86.6385 51.6214V48.7246C90.2354 48.7729 86.8075 45.5864 88.5697 43.8966C88.8594 44.6691 89.1007 45.3933 89.149 45.5381C90.6216 44.6449 91.6354 44.0173 92.6252 43.4138C92.77 43.5828 92.9149 43.7518 93.0598 43.9207C91.5872 45.6588 90.1388 47.3969 88.6421 49.1832C90.1629 50.4144 91.4665 51.4766 93.2287 52.9008C92.6976 50.9938 92.3114 49.5212 92.0217 48.4832C95.4013 43.5828 100.616 46.0933 105.178 44.4759C104.888 45.8036 104.719 46.5278 104.647 46.8899C107.013 47.6624 109.04 48.3383 111.068 48.9901C111.141 48.7487 111.213 48.5073 111.31 48.2901C110.368 47.759 109.427 47.2279 108.509 46.6968C108.606 46.4554 108.727 46.1899 108.823 45.9485C109.934 46.0209 111.02 46.0933 112.227 46.1657C112.372 47.6141 112.492 48.966 112.613 50.342C113.289 46.9624 115.365 51.6938 116.307 49.6419C115.848 49.4246 115.413 49.2315 114.665 48.8694C115.462 48.1935 116.065 47.6624 117.151 46.7451C117.562 48.4349 117.876 49.7143 118.238 51.1627C118.817 51.4283 119.71 51.8628 120.145 52.0559C119.155 53.0939 118.358 54.1078 117.369 54.8803C116.548 55.5079 115.486 55.8459 114.544 56.3287C114.4 56.039 114.279 55.7252 114.134 55.4355C114.762 55.0492 115.413 54.663 116.041 54.2768C115.944 54.1078 115.872 53.9147 115.776 53.7457C114.737 54.0354 113.699 54.3492 112.686 54.6389C112.951 54.3009 113.241 53.9629 113.506 53.625C112.83 53.4077 112.106 52.9249 111.527 53.0698C110.947 53.2146 110.368 53.9147 110.03 54.494C109.306 55.6769 109.523 57.5598 107.327 57.584C105.757 57.6081 104.212 57.9219 102.136 58.1633C102.716 57.4874 103.247 56.9322 103.681 56.3528C104.164 55.701 104.575 55.0251 105.009 54.3492C101.509 52.4904 99.6982 53.0939 96.5118 57.2219C94.9909 56.1597 93.6149 55.5079 92.0941 57.4633C91.7079 57.9461 90.1629 59.0323 89.1249 57.5115C88.5456 56.6666 87.8455 55.9183 87.0248 54.9286C86.9041 56.6908 86.8075 58.1875 86.6868 60.1187C84.6831 58.8392 83.2589 57.0529 81.6657 59.1531C82.3899 59.9255 82.9209 60.4325 83.3554 61.0119C83.4037 61.0843 82.8003 61.8326 82.7278 61.8085C81.5933 61.1808 80.4828 60.5049 79.3723 59.829C79.1068 59.4186 78.8171 58.9841 78.5516 58.5737C78.0688 59.8773 77.6102 61.1567 77.1515 62.4602C76.8136 62.1464 76.4514 61.8085 76.1134 61.4946C76.7411 60.5049 77.3929 59.491 78.0929 58.3806C77.1273 58.5978 76.2583 58.8151 75.2444 59.0324C75.3168 59.9738 75.3893 60.9394 75.4617 61.9774C73.5788 61.8326 71.8407 61.6878 70.1268 61.5429C70.2233 61.7119 70.2957 61.8809 70.3923 62.0499C68.2438 62.9189 66.0712 63.788 63.7538 64.7053C63.5124 63.788 63.271 62.8465 62.933 61.4946C62.4743 62.5568 62.1605 63.2569 61.8708 63.9086C60.8811 63.5224 60.1087 63.2327 59.2638 62.8948C57.7429 66.0088 55.4496 66.3468 52.5287 65.1881C51.901 64.9467 50.8871 65.3812 50.1629 65.7433C49.3663 66.1295 48.6421 66.7572 47.9421 67.3365C45.8419 69.0746 43.5968 69.2195 41.1104 68.1814C40.6518 67.9883 39.9034 68.5194 39.2275 68.7125C39.7344 69.2918 40.169 69.7988 40.6035 70.3057C40.4104 70.5954 40.1931 70.861 40 71.1507C39.0827 70.5471 37.9722 70.1126 37.248 69.3401C35.4134 67.409 34.6409 68.3745 34.3271 69.7505C33.1201 70.0885 32.227 70.3299 31.3579 70.5954C31.4062 70.7886 31.4303 70.9575 31.4786 71.1507H34.0133C32.5407 71.9714 31.7682 72.4059 31.0682 72.7921C31.3337 73.3232 31.5752 73.7819 31.9614 74.5785C30.5854 74.3612 29.6198 74.2164 28.2438 74.0233C29.2094 72.8646 29.8853 72.0438 30.5613 71.2472C30.4406 71.0299 30.344 70.8127 30.2233 70.5954C28.7025 71.2231 27.0368 71.6093 25.7333 72.5266C24.6711 73.275 24.0434 74.6751 22.933 76.1717C22.6675 74.9406 22.3778 73.613 22.064 72.237C21.6053 73.2267 21.388 74.3371 20.7363 75.0131C18.5637 77.2581 14.7496 78.5134 16.3911 82.2551C15.3048 83.3896 14.5323 84.1863 13.7598 84.9829C14.8461 85.514 15.9083 86.0451 17.3084 86.721C17.6947 87.5176 18.105 89.0142 19.0465 90.0764C20.2535 91.4282 21.8709 92.3938 23.3193 93.5284L22.5951 94.3491C21.9192 93.7215 21.2915 93.0215 20.5673 92.4904C20.0604 92.1283 19.4086 91.9352 18.8051 91.8386C18.6602 91.8145 18.1533 92.6835 18.2498 92.9008C18.5637 93.4802 19.0465 93.9871 19.5776 94.3975C20.1328 94.8079 20.7846 95.0734 21.5088 95.4355C19.2155 96.2804 17.4532 96.9321 15.9807 97.4632C16.1497 95.8458 16.2945 94.3009 16.4393 92.7318C16.1255 92.6352 15.7876 92.5145 15.4738 92.418C14.6289 94.6871 13.7598 96.9321 12.7459 99.6358C13.0356 99.7565 14.0736 100.191 14.4116 100.336C15.3772 102.291 16.1255 103.788 16.8498 105.285C17.0912 105.212 17.3325 105.14 17.5739 105.091C17.236 105.719 16.8739 106.347 16.5359 106.95C13.4943 105.647 13.2771 105.767 12.6494 108.447C12.5287 108.954 12.0217 109.413 11.6355 109.823C9.99398 111.561 8.93179 113.444 10.0181 115.906C9.02835 115.013 8.03863 114.12 7.09717 113.275C6.42125 114.554 5.84191 115.641 5.23841 116.751C6.85579 116.679 8.35246 116.582 9.825 116.51C8.8594 119.165 9.84918 121.048 11.9735 122.038C11.2252 123.221 10.5975 124.234 10.3561 124.621C13.0115 126.335 15.2565 127.807 17.3084 129.135C17.1394 127.831 16.9705 126.407 16.8015 124.959C16.9946 124.935 17.1635 124.886 17.3567 124.862C17.7429 125.948 18.1533 127.011 18.5395 128.073C21.0742 127.083 23.2468 125.779 25.5643 125.466C27.8817 125.128 27.5921 124.259 26.5299 122.231C27.4955 122.979 28.268 123.317 28.268 123.631C28.2921 125.683 28.6783 126.697 30.7061 124.935C30.8509 124.814 31.3337 124.814 31.4786 124.959C33.3374 126.914 34.7858 125.079 36.3066 124.403C39.4207 123.052 42.4864 121.652 45.6246 124.572C45.7453 122.955 45.8419 121.652 45.9143 120.348C46.1557 120.251 46.4213 120.155 46.6627 120.058C47.4352 122.472 48.4249 124.114 50.7906 121.845C50.8871 121.748 51.6838 122.448 52.2148 122.69C52.7701 122.955 53.5184 123.438 53.9047 123.269C55.3289 122.593 56.6566 121.652 58.5395 120.517C58.0084 121.869 57.6947 122.665 57.3084 123.679C58.6844 122.81 59.7707 122.134 60.7604 121.531C60.7121 120.976 60.6638 120.469 60.5914 119.938C64.478 120.155 65.3712 119.527 65.7574 116.123C67.1334 116.413 68.5093 116.679 70.006 116.992C69.8612 116.486 69.7164 116.027 69.5715 115.592C69.7888 115.472 69.9819 115.351 70.1992 115.23C70.8751 116.292 71.551 117.33 72.2028 118.393C71.551 116.22 72.6615 115.327 74.4237 114.941C76.379 114.506 77.7067 115.423 77.8757 117.355C76.9342 117.113 76.0411 116.896 75.0272 116.63V119.696C77.0791 118.61 78.9861 117.572 80.7966 116.606C81.1828 117.693 81.2553 118.755 81.7381 118.972C82.3416 119.262 83.3072 118.948 84.0555 118.706C84.8521 118.441 85.5763 117.982 86.5178 117.524C86.5178 115.351 86.9523 115.11 88.9801 116.244V119.382L89.7284 119.431C90.3078 118.441 90.9112 117.475 91.4182 116.63C90.863 115.858 90.332 115.158 89.825 114.458C91.4183 114.747 92.5045 115.496 93.6149 116.22C95.7393 117.596 98.3223 117.017 99.2396 114.916C100.181 115.592 101.098 116.292 101.412 116.51C103.512 115.737 105.057 115.158 106.602 114.627C108.292 114.023 109.982 113.444 111.648 112.889C111.792 113.492 111.913 114.12 112.058 114.747C112.251 114.796 112.444 114.844 112.637 114.892C113.241 113.54 113.868 112.164 114.472 110.837C115.293 111.489 115.872 112.309 116.572 112.43C119.445 112.985 122.366 113.323 125.263 113.709C125.48 113.734 125.745 113.541 126.156 113.347C125.6 112.744 125.142 112.261 124.176 111.223H129.608C129.342 109.606 129.149 108.326 129.004 107.336C131.008 108.085 132.698 108.737 134.484 109.413V107.964C135.763 107.264 136.801 106.709 137.598 106.274C138.105 107.095 138.636 107.94 139.481 109.292C139.843 107.674 140.012 106.878 140.253 105.84C141.316 106.395 142.185 106.83 143.343 107.433C142.402 108.061 141.774 108.495 141.147 108.93C141.219 109.195 141.291 109.485 141.364 109.75C143.488 109.123 145.588 108.495 147.858 107.843C147.52 109.002 147.278 109.799 147.037 110.595C147.326 110.861 147.592 111.151 147.882 111.416C148.582 106.805 152.71 109.582 154.665 107.433C155.655 106.347 160.869 106.443 162.052 107.312C160.217 108.954 160.217 108.954 161.786 109.702C162.824 108.93 163.549 107.988 164.321 107.916C167.049 107.65 169.849 107.892 172.577 107.554C174.267 107.336 175.86 106.274 177.55 105.96C179.046 105.671 180.64 103.402 182.281 106.081C182.547 106.516 184.357 106.033 185.588 105.936C185.492 105.26 185.419 104.657 185.347 104.198C186.747 103.667 187.954 103.209 189.282 102.726C189.065 103.957 188.896 105.043 188.702 106.129C189.813 104.126 191.141 103.522 193.41 104.44C192.83 103.547 192.13 103.088 191.503 102.581C191.237 102.364 190.923 102.074 190.875 101.784C190.827 101.495 190.996 100.891 191.165 100.843C192.637 100.481 194.158 100.215 195.631 99.9255C196.138 101.157 196.62 102.315 197.127 103.546C197.634 102.098 198.02 101.036 198.407 99.9738C198.214 99.0806 197.948 97.9219 197.707 96.8597C199.348 98.0667 200.772 99.1048 202.197 100.143C202.583 99.491 202.969 98.8151 203.476 97.9943C205.456 99.2254 208.425 100.046 209.125 101.76C210.018 103.957 210.597 103.788 212.094 103.136C210.984 101.326 209.946 99.6358 208.908 97.9701C209.294 97.6322 209.704 97.2701 210.09 96.9321C211.08 97.777 212.07 98.6461 213.518 99.8772C214.387 99.4427 215.788 98.7185 216.826 98.2116C217.839 99.0323 218.877 99.8531 220.036 100.77C219.505 101.229 218.998 101.664 218.395 102.171C220.109 102.05 221.967 101.35 222.885 102.002C225.395 103.74 226.626 102.026 228.292 100.915C228.582 101.76 228.944 102.798 229.427 104.174C231.334 102.171 233.289 101.736 235.775 101.446C238.165 101.157 239.662 100.408 240.869 102.967C240.966 103.16 241.569 103.112 241.931 103.16C244.297 103.402 246.566 103.45 248.449 101.567C248.883 101.133 249.68 101.084 250.308 100.867C250.018 101.519 249.728 102.146 249.415 102.798C249.535 103.015 249.632 103.233 249.753 103.45C250.597 103.04 251.394 102.533 252.263 102.219C253.205 101.881 254.267 101.374 255.136 101.543C255.715 101.664 256.077 102.871 256.319 103.281C257.332 102.967 258.491 102.702 259.505 102.195C260.278 101.808 260.881 101.084 261.557 100.505C260.784 99.9497 260.06 99.153 259.191 98.8875C258.443 98.6702 257.501 99.0806 256.657 99.2013C260.519 95.9665 263.44 97.6564 266.071 100.891C265.854 100.529 265.637 100.167 265.444 99.8048C267.399 98.5495 268.727 98.7185 268.871 101.47C269.885 101.181 270.972 101.157 271.599 100.601C272.251 100.046 272.444 98.9599 273.023 97.7046C273.941 100.263 274.086 103.16 277.417 100.457C277.683 100.239 280.386 98.6943 281.521 101.06C281.762 101.543 283.09 101.736 283.911 101.688C287.17 101.446 290.525 101.446 293.108 98.2599C293.301 99.2738 293.398 99.7565 293.494 100.263C294.001 99.7324 294.46 99.2254 295.063 98.5736C295.715 99.4185 296.222 100.046 296.681 100.626C297.381 100.239 298.081 99.8531 298.781 99.4669C297.864 99.0082 297.043 98.5978 296.222 98.1875C298.153 97.415 300.519 98.6702 301.122 95.1458C300.64 98.6702 302.547 99.153 304.912 99.4186C305.685 99.5151 306.385 100.457 307.109 101.012C307.302 101.157 307.544 101.277 307.737 101.398C308.268 100.722 308.751 100.143 309.499 99.2013C309.62 100.457 309.716 101.229 309.74 101.543C312.444 100.77 314.955 100.046 317.465 99.3461C316.669 96.6183 316.934 96.1597 319.252 96.6183C319.252 96.8114 319.252 97.0046 319.252 97.1977C319.179 97.8736 319.107 98.5254 319.034 99.2013C319.517 98.8633 319.976 98.2598 320.507 98.2116C321.955 98.0184 323.428 98.0667 324.9 97.9943V100.07C327.532 99.8531 330.428 99.5875 333.591 99.322C333.229 100.939 333.06 101.712 332.891 102.46C334.049 101.784 335.087 101.181 337.067 99.998C335.787 98.8634 334.725 97.9219 332.939 96.3286C334.629 96.8839 335.715 97.246 336.584 97.5356C337.55 97.1494 338.491 96.7873 339.433 96.4252C339.529 96.6666 339.626 96.9322 339.722 97.1736C338.998 97.6805 338.274 98.1874 337.55 98.6944C338.081 99.1289 338.539 98.8875 338.684 99.0082C341.195 101.036 342.04 100.119 342.498 97.246C342.716 95.8941 346.844 95.2182 347.568 96.1356C348.944 97.8736 350.006 97.7287 350.947 95.701C351.599 94.3009 352.323 93.4319 353.868 95.001C354.472 95.6286 356.065 96.2321 356.475 95.9183C358.938 94.0837 360.483 96.1838 361.738 96.7149C363.09 95.4596 364.224 94.3975 365.383 93.3353C365.697 93.456 366.011 93.5767 366.325 93.6974C364.514 95.7493 365.287 96.8114 367.169 97.3908C368.039 96.6666 368.883 95.9665 369.921 95.1216C370.235 95.9183 370.694 96.7631 370.573 96.8356C369.004 97.9943 367.339 99.0565 365.697 100.143C366.276 100.505 366.976 100.36 367.701 100.239C368.811 100.046 370.597 99.322 370.96 99.7566C373.156 102.388 374.87 100.432 376.729 99.9255C376.777 99.491 376.801 99.0806 376.85 98.6461C374.918 98.3081 372.963 97.9943 371.032 97.6564C375.039 95.5803 378.057 97.3908 380.881 100.119C381.05 99.8531 381.219 99.6117 381.388 99.3461C381.074 98.7668 380.76 98.1633 380.591 97.8253C381.654 96.5942 382.667 95.4114 383.536 94.3975C383.609 95.8941 383.657 97.3667 383.754 99.1531C383.633 99.2255 383.03 99.6599 382.064 100.312C383.319 100.408 384.333 100.819 384.985 100.481C388.026 98.9599 391.623 99.2737 394.303 101.398C394.81 101.808 395.655 101.833 396.596 102.098C395.655 100.577 395.099 99.6841 394.23 98.2599C397.248 98.4771 399.638 97.9702 400.724 100.481C400.917 100.915 400 101.833 399.59 102.533C399.662 102.774 399.758 103.015 399.831 103.257C401.303 102.629 402.8 101.977 404.538 101.229C404.973 103.426 405.649 103.812 407.821 102.75C409.946 101.712 412.673 101.929 415.136 101.591C415.377 101.881 415.619 102.171 415.86 102.484C415.932 101.326 416.005 100.167 416.101 98.5496C417.477 98.6461 419.095 98.8151 420.736 98.8392C421.34 98.8392 422.04 98.5495 422.498 98.1633C423.44 97.3667 424.236 96.4011 425.347 95.2424C423.078 93.0939 421.147 90.7282 416.85 91.8869ZM346.119 38.1271C343.343 41.3136 342.667 41.386 340.615 38.9237C342.523 38.6582 344.092 38.4168 346.119 38.1271ZM316.427 36.3408C317.031 36.3891 317.634 36.5822 318.262 36.7029C316.5 38.2237 313.53 36.5822 313.023 40.2997C312.71 39.7928 312.01 39.141 312.154 38.7548C312.83 36.7753 314.448 36.1718 316.427 36.3408ZM47.6524 44.5484C47.7007 44.2587 47.749 43.9449 47.7973 43.6552C48.7387 43.0758 49.7043 42.5206 50.5733 41.9895C51.2251 43.0034 51.8045 43.8483 52.5287 44.9829C51.0561 44.8622 49.3422 44.7173 47.6524 44.5484ZM51.0803 53.6009C51.4424 50.2695 53.9288 49.1832 57.0911 47.9038C55.3047 50.6558 54.2426 53.2629 51.0803 53.6009ZM66.3368 42.1344C66.6747 43.0275 67.061 43.8966 67.3989 44.7174C65.4436 44.8139 64.4538 43.7035 64.8883 40.8308C65.009 40.0101 66.7954 39.4548 67.8093 38.7789C67.9782 39.0927 68.1714 39.3824 68.3403 39.6962C67.6161 40.1308 66.892 40.5653 66.0953 41.0481C66.1919 41.4102 66.2161 41.7964 66.3368 42.1344ZM86.735 37.8133C84.5141 37.0891 82.2691 36.3649 80.0483 35.6407C80.1448 35.2786 80.2655 34.9165 80.3621 34.5544C82.6313 35.1579 84.9004 35.7614 87.1454 36.3649L86.735 37.8133ZM120.169 49.2557C120 49.135 119.831 49.0143 119.662 48.8936C119.952 48.3383 120.241 47.759 120.531 47.2038C119.903 46.4796 119.3 45.7554 118.696 45.0312C118.865 44.8863 119.034 44.7415 119.203 44.5967C120.531 45.0312 121.883 45.4657 124.273 46.2382C122.631 47.4452 121.4 48.3383 120.169 49.2557ZM125.697 64.0294C125.504 63.7155 125.335 63.4017 125.142 63.0637C126.204 61.6878 126.735 59.322 130.187 61.3015C128.449 62.3637 127.073 63.2086 125.697 64.0294ZM129.704 48.1694C128.594 47.0106 127.677 46.045 126.325 44.6208C126.325 44.6208 125.504 44.7898 124.683 44.9346L124.538 43.969C125.963 43.7759 127.411 43.5828 129.028 43.3655C129.004 43.2448 128.98 43.1 128.956 42.931C128.932 42.6413 128.956 42.3275 128.956 41.724C130.018 43.3414 130.887 44.6208 131.78 45.9485C131.128 46.6485 130.428 47.3969 129.704 48.1694ZM148.606 52.7801C145.516 50.0282 144.116 45.3208 138.66 45.2243C139.312 44.2587 139.747 43.5828 139.916 43.3655C142.957 44.3069 145.806 45.2001 148.678 46.0933C147.447 46.4071 146.361 46.6727 145.299 46.9382C150.489 46.9141 147.447 51.0179 148.606 52.7801ZM160.941 60.4808C161.038 59.2979 161.135 57.8978 161.231 56.7632C162.728 57.7047 163.862 58.4047 165.021 59.1289C163.862 59.5152 162.607 59.9256 160.941 60.4808ZM166.904 58.9599C166.614 60.2394 166.397 61.3498 166.132 62.4361C165.745 63.9811 164.997 64.826 162.68 63.3293C164.08 61.5188 165.335 59.8531 166.711 58.3323C166.783 58.2358 167.99 59.1531 168.256 60.1187C167.966 59.829 167.652 59.5634 166.904 58.9599ZM178.781 31.3679C177.96 30.7644 176.632 30.1851 176.681 29.7023C176.753 28.6643 177.526 27.6987 178.008 26.7089C178.274 26.7813 178.515 26.8537 178.781 26.9262V31.3679ZM180.688 30.354C180.616 30.0644 180.543 29.7747 180.471 29.485C182.136 29.0746 183.223 26.2261 186.192 28.9057C184.019 29.4609 182.354 29.9195 180.688 30.354ZM194.689 55.4838C197.731 53.3836 202.511 56.1839 204.852 51.9594C205.045 55.3148 201.424 56.5459 194.689 55.4838ZM231.044 54.7354C229.62 51.5248 228.026 53.118 226.144 54.2285C227.254 52.7801 228.364 51.3317 229.499 49.835C230.489 51.0179 231.358 52.08 232.372 53.2629C232.034 53.6009 231.623 54.0837 231.044 54.7354ZM240.531 54.1078C240.193 53.3353 239.831 52.5628 239.493 51.7904C239.228 51.1144 239.01 50.4385 238.6 49.2557C239.783 49.5453 240.99 49.5212 241.231 49.9799C241.714 50.9455 241.762 52.1766 241.786 53.287C241.786 53.5526 240.966 53.8423 240.531 54.1078ZM247.459 50.9455C249.753 50.8731 250.235 46.1175 253.518 48.6039C251.587 49.6419 250.525 52.925 247.459 50.9455ZM267.23 50.0764C266.699 50.4144 266.192 51.0662 265.637 51.0903C263.947 51.2352 262.257 51.1386 260.447 50.7282C262.547 49.7385 263.802 48.459 262.933 45.6829C263.247 45.8278 263.536 45.9485 263.85 46.0933C264.164 46.9865 264.478 47.9038 264.792 48.797C265.154 49.0625 265.492 49.3522 265.854 49.6178C266.337 48.628 266.844 47.6624 267.375 46.6003C267.664 47.5417 267.882 48.2659 268.244 49.5212C268.099 49.6178 267.64 49.835 267.23 50.0764ZM275.244 50.2454C275.172 50.3902 275.003 50.6799 275.003 50.6799C272.589 49.4971 270.513 49.0626 270.682 53.5767L269.74 52.9491C269.499 51.7179 268.727 50.2696 269.113 49.2798C269.813 47.4693 271.937 47.252 273.579 47.421C274.23 47.4935 274.713 49.2315 275.244 50.2454ZM285.19 49.4488C284.683 49.3281 284.393 49.3522 284.224 49.2074C282.414 47.6624 279.71 47.3969 278.817 49.1591C277.827 51.1145 276.596 50.4144 275.293 50.2454C276.21 47.5417 275.679 45.0312 273.893 42.3758C275.003 42.6655 275.8 42.8827 276.741 43.1482C275.872 41.5309 275.148 40.2273 274.182 38.4651C278.334 38.4409 276.982 42.2792 279.638 43.2207C279.831 42.424 280.072 41.4585 280.434 40.0342C281.303 39.5514 282.8 38.7065 284.611 37.7167C284.418 38.5616 284.273 39.1169 284.055 40.1066C285.721 39.9859 287.218 39.8652 288.739 39.7445C289.101 41.3377 289.559 43.1965 289.849 44.5001C288.087 45.9243 286.711 47.0589 285.335 48.1935C285.118 48.0004 284.924 47.8073 284.707 47.6142C284.828 48.1211 284.997 48.6763 285.19 49.4488ZM299.071 49.0867C297.55 48.5073 296.029 47.9521 293.856 47.1314C293.301 47.6383 292.36 49.0625 291.056 49.5936C289.921 50.0764 288.352 49.5695 287.001 49.4971C287.87 48.459 288.642 47.5417 289.632 46.3589C290.018 46.552 290.839 46.9382 291.829 47.3969C292.215 46.5761 292.553 45.8278 292.963 44.9587C295.112 46.0692 297.236 47.1555 299.36 48.2418C299.264 48.5556 299.167 48.8212 299.071 49.0867ZM305.95 46.7692C305.275 47.9038 303.947 48.6522 302.619 49.8109C301.919 49.0626 301.267 48.3625 300.615 47.6624C300.736 47.4693 300.857 47.2762 301.002 47.0831C301.871 47.2038 302.74 47.3003 303.609 47.421C304.888 45.7312 306.144 44.0897 307.399 42.424C309.571 44.5484 306.747 45.4898 305.95 46.7692ZM373.47 75.7131C373.808 75.0854 374.291 74.5302 374.701 73.9267C375.329 74.4337 376.319 74.8682 376.463 75.4958C376.608 76.1235 376.101 77.258 375.522 77.596C374.677 78.1029 373.542 78.103 372.287 78.3926C372.818 77.1856 373.084 76.4131 373.47 75.7131ZM376.439 80.348C370.646 80.4687 370.646 80.4687 370.428 78.7547C372.553 79.0444 374.556 79.31 376.56 79.5996C376.512 79.841 376.488 80.1066 376.439 80.348ZM379.94 80.4204C379.433 78.7547 378.974 77.2098 378.443 75.3993C379.553 75.6648 380.567 75.9062 381.605 76.1717C382.112 78.0546 382.474 79.8652 379.94 80.4204ZM395.075 81.6516C395.631 80.4204 396.017 79.141 396.427 77.8616L395.389 77.5477C394.713 78.634 394.037 79.7444 393.168 81.1446C393.892 81.3377 395.051 81.7481 395.075 81.6516Z" fill="url(#paint0_linear)"/>
<path d="M402.848 29.3885C402.8 29.4367 402.752 29.485 402.704 29.5574C403.017 29.654 403.307 29.7506 403.597 29.8471C403.331 29.6781 403.09 29.5333 402.848 29.3885ZM30.1268 46.8417C30.1268 46.8417 30.1268 46.8175 30.1268 46.8417C29.3301 49.2557 29.3301 49.2557 30.6337 49.7867C32.0097 47.5176 33.3615 45.3209 34.6651 43.1724C34.0133 42.931 33.3132 42.6413 33.0718 42.5689C32.0338 44.0414 31.0682 45.4415 30.1268 46.8417C30.1026 46.8417 30.0543 46.8658 30.0302 46.8658C30.0302 46.89 30.0543 46.9141 30.0543 46.9382L30.1268 46.8417ZM51.9734 32.0197C51.9976 31.3196 50.694 30.5713 49.5594 29.4126C49.4146 31.5128 49.3181 32.8646 49.2215 34.1923C49.5595 34.3613 49.8974 34.5303 50.2113 34.7234C50.8389 33.8302 51.9493 32.937 51.9734 32.0197ZM9.3905 62.7741C10.4285 62.6775 11.4182 62.6051 12.7459 62.5085C12.5045 61.3498 12.2873 60.3118 11.9493 58.5737C11.6597 59.829 11.5389 60.3842 11.3941 60.9153C11.201 60.9153 11.0079 60.9153 10.8389 60.9153C10.6217 58.9358 10.4044 56.9322 10.1388 54.5906C6.83165 57.3184 10.2354 60.1669 9.3905 62.7741ZM0 58.9117H7.89383C5.38327 57.3667 2.87266 56.5701 0 58.9117ZM287.918 42.4482C287.266 42.3758 286.614 42.3033 285.963 42.2068C285.697 42.1826 285.407 42.1344 285.335 42.1102C284.514 43.3655 283.862 44.3552 282.848 45.9002C284.369 45.3933 285.287 45.2967 285.89 44.8139C286.711 44.2104 287.266 43.269 287.918 42.4482ZM129.028 43.3897C129.052 43.5586 129.077 43.6311 129.028 43.3897V43.3897ZM416.85 91.8869C418.298 90.2695 419.215 89.2315 420.205 88.1452C419.312 88.0728 418.829 88.0245 418.346 88.0004C418.588 86.0451 417.163 86.5037 416.077 86.3347C414.967 86.1657 413.88 85.8519 412.77 85.6105C413.084 84.9828 413.301 84.5483 413.615 83.969C410.984 84.2345 408.425 85.6588 407.049 82.7861C405.359 83.3172 403.862 83.8 402.221 84.307C402.366 83.7759 402.462 83.3413 402.728 82.2309C400.917 82.6171 399.396 83.1724 397.9 83.1724C395.872 83.1724 393.265 83.4137 392.01 82.3033C390.585 81.048 390.344 78.4168 389.378 75.8338C388.268 77.3788 387.495 78.4409 386.723 79.5031C386.482 79.3099 386.264 79.1169 386.023 78.9479C386.385 78.1271 386.747 77.3063 387.351 75.8821C386.144 76.6063 385.492 76.9925 384.671 77.4511C385.323 74.5302 385.323 74.4578 387.664 74.9406C389.692 75.3752 391.672 76.5098 393.651 76.4615C395.969 76.3891 398.238 75.351 399.783 74.9406C400.676 73.2508 401.11 71.5369 402.197 70.6437C403.355 69.7264 405.142 69.6298 406.735 69.147C405.649 67.9883 404.949 67.24 404.249 66.4916C404.297 66.2502 404.345 66.033 404.393 65.7916C406.107 66.4916 408.256 67.8193 407.097 64.4156C407.049 64.2466 407.556 63.9328 407.749 63.6431C408.304 62.8223 408.811 61.9774 409.342 61.1325C408.014 61.8809 403.693 62.4603 402.728 61.5429C402.462 61.2774 402.221 60.5773 402.366 60.3601C402.655 59.9497 403.211 59.5876 403.717 59.5393C404.176 59.491 404.683 59.829 405.456 60.1187C405.359 59.0806 405.287 58.3806 405.19 57.4633C400.555 59.8773 400.652 54.9768 398.914 53.456C398.455 54.5182 398.117 55.3389 397.489 56.8356C396.596 55.2182 396.137 54.3733 395.582 53.3836C394.81 53.8664 394.086 54.3251 393.892 54.4699C392.71 53.4319 391.792 52.6111 390.754 51.7179C390.682 51.8386 390.947 51.38 391.406 50.5109C390.151 50.8972 389.402 51.1386 388.509 51.4283C388.316 50.0764 388.147 48.9419 388.002 47.8797C387.037 47.6866 386.168 47.3728 385.299 47.3969C384.357 47.421 383.416 47.759 382.45 47.9762C381.75 46.6244 378.25 45.4415 376.705 46.1657C376.85 46.6727 377.019 47.1796 377.091 47.4452C375.281 47.9762 373.494 48.4832 371.66 49.0143C372.094 48.0487 372.432 47.252 372.794 46.4796C372.577 46.2864 372.36 46.1175 372.142 45.9244C371.153 46.7693 370.187 47.6142 369.004 48.6039C368.642 47.6383 368.28 46.6968 367.845 45.5381C366.638 46.9382 365.6 48.1211 364.514 49.4005C362.873 48.1935 361.4 47.8314 360.821 50.342C355.003 48.966 349.354 47.6383 343.44 46.2382C343.923 47.0348 344.309 47.6383 344.671 48.2418C344.55 48.3383 344.43 48.4349 344.309 48.5315C343.536 48.097 342.788 47.6383 342.619 47.5417C341.509 48.0004 340.784 48.6039 340.398 48.4349C339.771 48.1452 339.071 47.4452 338.902 46.7692C338.708 45.9968 339.119 45.0794 339.046 44.2345C339.022 43.8483 338.419 43.5103 338.081 43.1482C337.815 43.5828 337.405 43.9931 337.308 44.4759C337.139 45.2243 337.163 45.9968 337.091 46.7692C336.488 46.2382 335.908 45.7312 334.894 44.838C334.339 45.9002 333.856 46.8175 333.036 48.4349C332.36 48.1694 330.887 47.59 329.511 47.0348C329.028 47.5659 328.256 48.4349 327.194 49.6178C326.445 48.0487 325.914 46.9624 325.673 46.4554C324.273 47.759 322.68 49.2074 320.507 51.1869V46.6485C320.024 47.4452 319.517 48.2418 318.793 49.4247C317.031 48.966 314.568 49.3039 313.724 46.0933C313.41 44.9587 311.744 44.1863 310.682 43.2689C312.468 41.0722 314.206 42.0137 318.358 47.6624C318.576 47.5176 318.793 47.3969 319.034 47.252C318.6 46.5037 317.948 45.8278 317.755 45.0312C317.465 43.9207 317.514 42.7137 317.417 41.555C317.634 41.4102 317.876 41.2653 318.093 41.1205C318.721 42.5689 319.372 44.0173 320 45.4657C320.41 45.1036 320.797 44.7174 321.207 44.3311C320.966 45.1277 320.724 45.9244 320.483 46.721C321.159 45.4174 321.835 44.138 322.535 42.8344C322.607 43.1 322.655 43.3897 322.728 43.6552C324.852 43.6552 327 43.6552 329.125 43.631C329.246 43.631 329.318 43.1965 329.511 43.1C330.501 42.5206 331.515 41.9895 332.529 41.4584C332.698 41.3619 332.915 41.3619 333.832 41.1205C332.36 40.9274 331.66 40.8067 330.959 40.7101C331.008 40.2515 331.032 39.8894 331.056 39.7687C329.077 40.0342 327.17 40.2997 325.262 40.5411C324.804 40.1307 324.321 39.7204 323.862 39.31C328.956 40.8308 325.625 37.596 327.145 36.8477C327.749 37.3788 328.401 37.9823 329.173 38.7065C329.584 38.0788 329.946 37.5719 329.897 37.6202C332.022 37.8133 333.711 37.9823 336.15 38.1995C335.208 36.8236 334.846 36.2925 334.315 35.52C336.657 35.858 338.564 36.1235 341.34 36.5097C339.529 37.065 338.419 37.4029 336.946 37.8374C338.733 38.9962 340.374 40.0583 342.04 41.1446C341.774 41.2895 341.509 41.4584 341.243 41.6033C341.098 42.4965 340.978 43.3896 340.833 44.2828C341.605 43.9931 342.378 43.7276 343.126 43.4138C343.561 43.2448 343.923 42.8586 344.333 42.762C346.868 42.1826 349.427 41.6516 352.42 40.9998C350.078 39.0203 350.078 39.0203 345.564 41.5067C346.602 40.1066 347.302 39.141 348.051 38.1513C347.93 38.0064 347.616 37.6202 347.302 37.2339C347.737 37.2581 348.22 37.1374 348.558 37.3064C351.672 38.7789 354.786 39.2376 355.389 34.2164C357.296 35.182 359.227 36.1959 361.617 37.4271C361.81 38.3927 362.197 40.1308 362.438 41.3619C363.862 39.6721 365.118 38.1513 366.807 36.0994C367.339 37.7409 367.725 38.9479 368.135 40.179C369.487 36.5822 371.877 37.5236 374.943 38.8755C373.76 37.6202 373.277 37.1132 372.939 36.7753C374.605 36.2683 376.077 35.7373 377.574 35.351C378.926 35.0131 380.64 34.2647 381.605 34.7717C384.333 36.2201 384.912 34.8682 385.661 32.6956C385.564 34.2406 385.468 35.7855 385.371 37.3305C386.361 34.8924 387.471 35.6407 388.92 36.6546C389.861 37.3064 391.116 37.5478 392.275 37.765C393.313 37.9582 394.424 37.9099 394.858 37.934C397.61 35.0372 400.217 32.2853 402.848 29.5092C402.414 29.3643 401.931 29.1953 401.328 29.0022C402.293 27.8435 403.042 26.9745 403.766 26.0813C404.442 25.4295 405.142 24.7777 405.818 24.1018C404.997 23.7155 404.152 23.3293 403.331 22.9672C403.79 23.112 404.249 23.2569 404.731 23.4017C404.78 23.3052 404.828 23.1845 404.9 23.0879C403.211 21.6637 401.521 20.2635 399.831 18.8393C398.962 19.6118 398.045 20.4566 397.103 21.3015C397.658 21.374 398.214 21.4464 398.769 21.5188C398.407 22.9189 398.117 24.1018 397.803 25.2605C397.562 25.3571 397.32 25.4778 397.079 25.5743C396.234 23.2327 395.389 20.8912 394.544 18.5255C394.424 18.5737 394.061 18.7669 393.699 18.96C393.555 18.3806 393.434 17.8254 393.144 16.6667C392.758 18.9841 392.468 20.6739 392.082 22.8224C391.068 21.6395 390.537 21.036 390.03 20.4325C389.209 21.0843 388.558 21.5912 387.93 22.1223C387.64 22.0258 387.375 21.9051 387.085 21.8085C387.326 20.7222 387.592 19.6359 387.857 18.4772C387.495 18.0668 386.844 17.2943 385.975 16.2563C387.52 15.6045 388.727 15.0976 390.271 14.4458C388.702 17.7771 389.089 19.129 391.285 19.6359C391.285 18.4772 391.237 17.2943 391.31 16.1115C391.382 14.7596 391.575 13.4078 391.744 11.718C391.068 12.3215 390.682 12.6595 390.296 12.9974L389.74 12.7077C390.44 11.3317 391.141 9.9316 391.841 8.55562C391.527 8.3625 391.189 8.16941 390.875 7.97629C390.078 9.27985 389.258 10.5834 388.485 11.8628C385.371 9.32813 385.371 9.32813 387.351 8.43495C387.23 8.19355 387.109 7.95215 387.013 7.71075C385.419 8.57979 383.802 9.44883 382.691 10.0523C382.04 9.23157 381.485 8.53149 380.929 7.80729C380.736 8.09697 380.543 8.41082 380.35 8.7005C379.867 9.1833 379.384 9.66607 378.902 10.1489C378.177 9.15913 377.429 8.16939 376.656 7.13137C376.367 7.49347 375.908 8.5315 375.16 8.86946C373.905 9.44882 372.432 9.8109 371.056 9.83504C370.139 9.85918 369.221 9.15914 368.304 8.72462C367.676 8.43494 367.073 8.04871 366.445 7.71075C365.794 7.37279 365.166 6.98654 364.49 6.79342C363.042 6.3589 361.569 6.02095 360.048 5.63471C360.628 8.26597 358.383 8.65218 356.355 9.15912C355.679 7.44519 355.027 5.77956 354.641 4.81396C352.999 4.62084 351.961 4.28287 351.044 4.42771C348.799 4.83809 346.916 0.203192 344.743 3.92075C343.536 3.31725 342.498 2.7862 341.026 2.062C341.485 3.07588 341.75 3.67936 342.45 5.17604C340.422 4.6691 339.215 4.35529 337.96 4.01733C336.681 5.99681 329.608 4.88634 327.942 1.98954C327.242 3.58278 326.614 5.0312 326.131 6.18992C325.552 5.07948 325.166 3.48625 324.128 2.61721C323.331 1.94129 321.738 2.18269 320.459 2.01371C320.459 2.01371 320.362 2.56892 320.241 3.29312C317.827 1.0481 311.478 2.52062 309.378 5.61054C308.413 4.04144 310.754 1.45847 307.471 0.372169C306.723 1.38605 305.902 2.47236 305.009 3.7035C302.957 3.07586 302.716 2.1344 304.309 0.951542C300.688 -2.23494 301.267 3.60695 298.829 3.55867C298.757 2.64135 298.684 1.86885 298.684 1.77229C296.512 1.33777 294.749 0.999823 292.867 0.613583C292.335 1.38606 291.587 2.52064 290.815 3.63108C286.856 1.02396 282.293 0.468734 281.038 2.03783C282.462 3.26897 283.838 4.45185 285.431 5.82783V3.1C286.663 3.77592 287.58 4.30699 288.594 4.86221C287.725 5.80367 287.17 6.40718 286.397 7.25208C285.214 6.50374 284.08 5.61057 282.824 5.03121C280.99 4.16217 279.083 2.20684 277.031 3.8725C275.775 4.88638 275.196 6.74515 274.351 8.16941C273.868 6.62445 273.337 4.91048 272.782 3.19654C272.541 3.22068 272.323 3.24486 272.082 3.269C271.889 4.3553 271.696 5.46571 271.503 6.52787C269.571 5.94851 268.485 4.95879 270.32 2.95517C269.113 3.34141 267.978 4.1139 267.133 3.8725C266.457 3.65524 266.144 2.23095 265.661 1.31363C264.961 2.73789 264.406 3.82419 263.85 4.93463C263.561 4.93463 263.271 4.93463 263.005 4.93463C263.44 2.44821 263.102 1.1205 260.253 1.724C258.684 2.06196 256.898 1.2895 255.184 1.02396V3.07587C253.494 2.64135 252.046 2.3758 250.67 1.893C250.09 1.69988 249.656 1.09639 249.173 0.661874C248.666 1.41021 247.99 2.11027 247.676 2.95517C247.459 3.46211 247.749 4.18631 247.821 4.95879C247.049 4.88637 246.325 4.81392 245.673 4.7415C245.721 3.51036 245.769 2.39993 245.818 1.31363C245.625 1.28949 245.407 1.26535 245.214 1.24121C244.514 2.18267 243.814 3.09999 243.452 3.58279C242.607 2.83445 241.666 1.65162 241.352 1.79646C239.131 2.88276 238.334 1.21707 236.524 0.106627C236.741 1.24121 236.958 2.35167 237.272 4.01733C236.307 3.31727 235.534 2.7862 235.003 2.39996C233.168 3.46212 231.43 4.45185 229.378 5.63471C229.185 4.76567 229.04 4.0656 228.92 3.43796C227.689 3.9449 226.433 4.476 225.009 5.0795V3.58279C224.043 3.58279 222.764 3.96903 222.257 3.51038C220.181 1.5309 219.312 3.14828 218.105 4.98292C217.019 3.43796 216.053 2.06197 214.87 0.372169V2.61721C214.701 2.44823 214.532 2.2551 214.363 2.08612C212.698 3.63108 211.056 5.24846 209.318 6.721C208.473 7.42106 207.411 8.26594 206.421 8.29008C205.262 8.31422 204.08 7.51762 202.873 7.05896C204.925 6.88998 206.59 6.76927 208.642 6.60029C207.073 3.94489 205.987 4.47597 205.383 5.65883C203.235 5.36915 201.448 5.12775 199.638 4.86221C198.962 4.23457 198.165 3.46209 197.345 2.71375C197.151 2.88273 196.958 3.05173 196.741 3.22071C196.958 3.84835 197.176 4.476 197.296 4.81396C195.679 4.98294 193.772 4.62084 192.951 5.41746C192.034 6.31064 192.106 8.19354 191.551 10.5351C190.923 8.43494 190.561 7.15552 190.223 6.04508C186.047 5.94852 181.847 5.34504 181.34 11.718C180.616 9.44884 180.133 7.92799 179.65 6.40717C179.312 6.40717 178.974 6.40719 178.612 6.43133C178.371 7.56591 178.153 8.72463 177.888 10.0523C176.343 9.47297 174.653 8.86946 173.543 8.45908C172.963 9.52124 172.577 10.173 172.167 10.8972C172.649 11.549 173.132 12.2008 173.639 12.9008C172.36 14.4458 171.587 14.0596 170.622 12.6595C170.139 11.9594 169.101 11.1869 168.304 11.211C165.673 11.2352 162.945 11.887 161.545 8.79704C160.7 9.2557 160.048 9.61781 159.372 9.97991V7.03483C157.393 8.36253 156.355 10.4627 154.689 11.3317C153.096 12.1766 150.827 11.718 148.751 11.8387C148.847 12.418 148.968 13.0457 149.04 13.5043C146.916 14.6631 143.512 14.1802 144.526 18.8151C141.509 17.4633 139.095 16.4011 136.705 15.3148C136.801 15.001 136.898 14.6872 136.995 14.3734C137.888 14.4699 138.757 14.5665 140.036 14.6872C139.795 13.6733 139.626 12.9732 139.529 12.5146C137.96 12.8525 136.777 13.094 135.619 13.3354C135.16 14.2285 134.629 15.2907 133.953 16.6184C133.06 15.5804 132.336 14.7355 131.37 13.6009C130.694 14.9769 130.09 16.208 129.439 17.584C127.17 14.1803 127.17 14.1803 123.911 17.3667C122.197 16.5218 120.121 14.7596 119.3 15.2183C116.355 16.9322 113.651 16.6908 110.682 15.2424C111.044 16.9322 111.334 18.3082 111.479 18.96C110.223 18.7427 108.799 18.0185 108.075 18.453C105.685 19.9256 103.536 21.8326 101.316 23.5466C99.9155 22.0258 97.9602 20.6981 101.195 18.8393C99.2637 18.7669 97.5257 18.5737 96.0773 19.1531C93.4701 20.1911 91.2251 22.1223 88.0628 21.0119C87.3386 20.7705 86.2764 21.4705 85.4073 21.7361C85.697 24.3673 85.6971 24.3673 82.7278 24.1501C82.3416 23.2328 81.9795 22.3637 81.6415 21.4947C81.2311 21.7119 80.8449 21.9051 80.4345 22.1223C81.3518 23.619 82.245 25.1157 83.6934 27.4572C81.545 26.6365 80.0724 26.1054 78.5999 25.526C78.6481 25.2122 78.7689 24.6811 78.9378 23.8362C75.5824 26.1537 73.4822 29.9195 68.9198 29.5574C68.6059 30.2575 68.2197 31.0783 67.7368 32.1163C66.216 29.8471 64.8642 27.7952 63.0778 25.1398V32.3335H62.1847C62.1123 31.1748 62.064 29.992 62.0157 28.9781C59.8914 30.1851 58.1533 31.1748 56.3911 32.1645C56.2945 32.0197 56.1738 31.8749 56.0773 31.73L56.8256 30.4989C56.6083 30.2816 56.4152 30.0885 56.1979 29.8712C54.3391 31.6817 52.6977 33.7336 51.4183 35.5683H45.2625C46.0108 34.7475 46.5178 34.1923 46.9765 33.6854C45.4557 33.5647 44.0797 33.444 42.414 33.2991C42.9692 34.0475 43.3796 34.6027 43.7417 35.1338C41.5449 35.4717 39.4689 35.7614 38.0447 35.9787C37.755 37.934 37.5619 39.3341 37.3446 40.8067C37.7067 41.3619 38.2136 42.1827 38.793 42.9793C39.1551 43.4862 39.5896 43.9449 40 44.4035C39.4931 44.2104 39.0103 43.8966 38.4792 43.8483C38.1412 43.8242 37.6826 44.0656 37.4412 44.3311C36.3066 45.5864 35.172 46.8417 34.1098 48.1694C33.4098 49.0384 32.8787 50.0523 32.2752 50.9937C32.4924 51.1627 32.7338 51.3558 32.9511 51.5248C33.9167 51.3317 34.8582 51.1386 35.8479 50.9213C33.8684 53.8905 31.4544 52.1042 29.4025 51.2834C28.9921 52.6594 28.7025 53.625 28.2438 55.0975C27.5438 54.1802 26.9886 53.7698 27.061 53.4802C27.5438 51.3558 28.099 49.2315 28.7749 47.1555C28.8715 46.8658 29.6681 46.8175 30.2233 46.6968C29.8612 45.6347 29.4991 44.5725 29.137 43.4621C25.854 44.8381 28.2438 49.4971 24.2366 50.7282V44.4035C24.8159 45.176 25.2987 45.8278 25.7815 46.4796C25.9505 46.4072 26.1195 46.3347 26.2643 46.2623C26.1919 45.1519 26.1195 44.0173 26.0471 42.931C25.0815 42.6413 24.2607 42.424 23.3917 42.1585C22.933 43.3414 22.4502 44.5242 22.2088 45.1519C20.7846 45.7312 19.7465 46.0451 18.8051 46.6003C17.9843 47.0831 17.3084 47.8073 16.5842 48.4349C16.3428 48.2659 16.1014 48.097 15.86 47.928V52.0559H18.1292C17.405 51.5731 16.8739 51.211 16.3669 50.873C16.4635 50.6799 16.56 50.4868 16.6566 50.2937C18.4671 50.8248 20.2776 51.3559 22.1123 51.8869C21.0018 52.9732 19.9879 53.963 18.7085 55.2182C17.7188 54.6389 14.6771 56.3287 14.8703 52.4904C13.8322 52.6836 13.0115 52.8284 12.1907 52.9732C12.8184 55.7735 13.4219 58.453 14.1219 61.6395C15.0392 59.9255 15.7876 58.5737 16.5118 57.2219C17.236 57.8012 17.7429 58.1633 18.2257 58.5496C18.2016 58.3082 18.2016 58.0426 18.1774 57.8012C19.7707 57.246 21.3398 56.6667 22.933 56.1114C23.102 56.4977 23.271 56.908 23.44 57.2943C22.7399 57.6564 22.0398 57.9702 21.3639 58.3806C20.519 58.9116 19.6983 59.491 18.8775 60.0462C19.6258 60.6256 20.3259 61.5188 21.1708 61.6878C21.7743 61.8085 22.7882 61.1325 23.2227 60.5049C24.3573 58.9117 25.5401 58.7427 26.9885 59.9497C27.4472 60.3359 27.7851 60.8911 28.4369 61.7119C27.93 57.6081 29.8854 54.832 32.7822 54.9527C32.2028 56.3287 31.6476 57.7047 31.1648 58.8392C33.2408 59.1289 34.9064 59.3703 37.417 59.7324C36.21 58.9358 35.5824 58.5254 34.6168 57.8978C35.872 57.3426 36.2341 55.5321 38.3826 57.2219C39.4448 58.0668 43.0175 57.8254 43.2589 57.1977C44.2245 54.7596 45.4798 55.0493 47.0006 55.87C47.3868 53.8905 47.7489 51.9352 48.111 49.9799C48.4248 50.0281 48.7387 50.0764 49.0525 50.1247C49.1249 51.4041 49.2215 52.6836 49.2939 53.963C50.163 53.7457 50.7182 53.625 51.2493 53.4802C51.4907 53.794 51.7803 54.2768 51.901 54.2285C54.315 53.3594 55.3772 54.5906 56.0773 56.7632C56.3428 55.5803 56.6083 54.4216 56.8256 53.456C58.3223 53.7216 59.7948 53.9871 61.2432 54.2285C61.2915 54.0354 61.3398 53.8181 61.4122 53.625C60.35 53.1663 59.2638 52.6836 58.2016 52.2249C58.2499 51.9835 58.2981 51.7421 58.3464 51.5007C59.1913 51.6214 60.0604 51.7179 60.688 51.8145C60.857 51.2834 61.0501 50.7765 61.2191 50.2454C61.3157 50.5351 61.4122 50.8489 61.5088 51.1386C62.8123 51.1869 64.2607 51.6455 65.3953 51.211C66.7712 50.704 67.9058 49.4488 69.0887 48.5797C69.1128 48.6522 69.2336 49.1832 69.3543 49.7143C69.4267 49.4488 69.4991 49.2074 69.5715 48.9419C70.9475 49.2798 72.2993 49.7626 73.6994 49.8833C74.3271 49.9316 75.0272 49.3039 75.6789 48.9901H80.6276C79.8068 47.6866 78.8896 46.1899 77.9481 44.7174C80.7483 43.4138 80.7242 45.9485 81.5691 47.5176C85.8902 45.7312 84.9246 49.9075 86.6385 51.6214V48.7246C90.2354 48.7729 86.8075 45.5864 88.5697 43.8966C88.8594 44.6691 89.1007 45.3933 89.149 45.5381C90.6216 44.6449 91.6354 44.0173 92.6252 43.4138C92.77 43.5828 92.9149 43.7518 93.0598 43.9207C91.5872 45.6588 90.1388 47.3969 88.6421 49.1832C90.1629 50.4144 91.4665 51.4766 93.2287 52.9008C92.6976 50.9938 92.3114 49.5212 92.0217 48.4832C95.4013 43.5828 100.616 46.0933 105.178 44.4759C104.888 45.8036 104.719 46.5278 104.647 46.8899C107.013 47.6624 109.04 48.3383 111.068 48.9901C111.141 48.7487 111.213 48.5073 111.31 48.2901C110.368 47.759 109.427 47.2279 108.509 46.6968C108.606 46.4554 108.727 46.1899 108.823 45.9485C109.934 46.0209 111.02 46.0933 112.227 46.1657C112.372 47.6141 112.492 48.966 112.613 50.342C113.289 46.9624 115.365 51.6938 116.307 49.6419C115.848 49.4246 115.413 49.2315 114.665 48.8694C115.462 48.1935 116.065 47.6624 117.151 46.7451C117.562 48.4349 117.876 49.7143 118.238 51.1627C118.817 51.4283 119.71 51.8628 120.145 52.0559C119.155 53.0939 118.358 54.1078 117.369 54.8803C116.548 55.5079 115.486 55.8459 114.544 56.3287C114.4 56.039 114.279 55.7252 114.134 55.4355C114.762 55.0492 115.413 54.663 116.041 54.2768C115.944 54.1078 115.872 53.9147 115.776 53.7457C114.737 54.0354 113.699 54.3492 112.686 54.6389C112.951 54.3009 113.241 53.9629 113.506 53.625C112.83 53.4077 112.106 52.9249 111.527 53.0698C110.947 53.2146 110.368 53.9147 110.03 54.494C109.306 55.6769 109.523 57.5598 107.327 57.584C105.757 57.6081 104.212 57.9219 102.136 58.1633C102.716 57.4874 103.247 56.9322 103.681 56.3528C104.164 55.701 104.575 55.0251 105.009 54.3492C101.509 52.4904 99.6982 53.0939 96.5118 57.2219C94.9909 56.1597 93.6149 55.5079 92.0941 57.4633C91.7079 57.9461 90.1629 59.0323 89.1249 57.5115C88.5456 56.6666 87.8455 55.9183 87.0248 54.9286C86.9041 56.6908 86.8075 58.1875 86.6868 60.1187C84.6831 58.8392 83.2589 57.0529 81.6657 59.1531C82.3899 59.9255 82.9209 60.4325 83.3554 61.0119C83.4037 61.0843 82.8003 61.8326 82.7278 61.8085C81.5933 61.1808 80.4828 60.5049 79.3723 59.829C79.1068 59.4186 78.8171 58.9841 78.5516 58.5737C78.0688 59.8773 77.6102 61.1567 77.1515 62.4602C76.8136 62.1464 76.4514 61.8085 76.1134 61.4946C76.7411 60.5049 77.3929 59.491 78.0929 58.3806C77.1273 58.5978 76.2583 58.8151 75.2444 59.0324C75.3168 59.9738 75.3893 60.9394 75.4617 61.9774C73.5788 61.8326 71.8407 61.6878 70.1268 61.5429C70.2233 61.7119 70.2957 61.8809 70.3923 62.0499C68.2438 62.9189 66.0712 63.788 63.7538 64.7053C63.5124 63.788 63.271 62.8465 62.933 61.4946C62.4743 62.5568 62.1605 63.2569 61.8708 63.9086C60.8811 63.5224 60.1087 63.2327 59.2638 62.8948C57.7429 66.0088 55.4496 66.3468 52.5287 65.1881C51.901 64.9467 50.8871 65.3812 50.1629 65.7433C49.3663 66.1295 48.6421 66.7572 47.9421 67.3365C45.8419 69.0746 43.5968 69.2195 41.1104 68.1814C40.6518 67.9883 39.9034 68.5194 39.2275 68.7125C39.7344 69.2918 40.169 69.7988 40.6035 70.3057C40.4104 70.5954 40.1931 70.861 40 71.1507C39.0827 70.5471 37.9722 70.1126 37.248 69.3401C35.4134 67.409 34.6409 68.3745 34.3271 69.7505C33.1201 70.0885 32.227 70.3299 31.3579 70.5954C31.4062 70.7886 31.4303 70.9575 31.4786 71.1507H34.0133C32.5407 71.9714 31.7682 72.4059 31.0682 72.7921C31.3337 73.3232 31.5752 73.7819 31.9614 74.5785C30.5854 74.3612 29.6198 74.2164 28.2438 74.0233C29.2094 72.8646 29.8853 72.0438 30.5613 71.2472C30.4406 71.0299 30.344 70.8127 30.2233 70.5954C28.7025 71.2231 27.0368 71.6093 25.7333 72.5266C24.6711 73.275 24.0434 74.6751 22.933 76.1717C22.6675 74.9406 22.3778 73.613 22.064 72.237C21.6053 73.2267 21.388 74.3371 20.7363 75.0131C18.5637 77.2581 14.7496 78.5134 16.3911 82.2551C15.3048 83.3896 14.5323 84.1863 13.7598 84.9829C14.8461 85.514 15.9083 86.0451 17.3084 86.721C17.6947 87.5176 18.105 89.0142 19.0465 90.0764C20.2535 91.4282 21.8709 92.3938 23.3193 93.5284L22.5951 94.3491C21.9192 93.7215 21.2915 93.0215 20.5673 92.4904C20.0604 92.1283 19.4086 91.9352 18.8051 91.8386C18.6602 91.8145 18.1533 92.6835 18.2498 92.9008C18.5637 93.4802 19.0465 93.9871 19.5776 94.3975C20.1328 94.8079 20.7846 95.0734 21.5088 95.4355C19.2155 96.2804 17.4532 96.9321 15.9807 97.4632C16.1497 95.8458 16.2945 94.3009 16.4393 92.7318C16.1255 92.6352 15.7876 92.5145 15.4738 92.418C14.6289 94.6871 13.7598 96.9321 12.7459 99.6358C13.0356 99.7565 14.0736 100.191 14.4116 100.336C15.3772 102.291 16.1255 103.788 16.8498 105.285C17.0912 105.212 17.3325 105.14 17.5739 105.091C17.236 105.719 16.8739 106.347 16.5359 106.95C13.4943 105.647 13.2771 105.767 12.6494 108.447C12.5287 108.954 12.0217 109.413 11.6355 109.823C9.99398 111.561 8.93179 113.444 10.0181 115.906C9.02835 115.013 8.03863 114.12 7.09717 113.275C6.42125 114.554 5.84191 115.641 5.23841 116.751C6.85579 116.679 8.35246 116.582 9.825 116.51C8.8594 119.165 9.84918 121.048 11.9735 122.038C11.2252 123.221 10.5975 124.234 10.3561 124.621C13.0115 126.335 15.2565 127.807 17.3084 129.135C17.1394 127.831 16.9705 126.407 16.8015 124.959C16.9946 124.935 17.1635 124.886 17.3567 124.862C17.7429 125.948 18.1533 127.011 18.5395 128.073C21.0742 127.083 23.2468 125.779 25.5643 125.466C27.8817 125.128 27.5921 124.259 26.5299 122.231C27.4955 122.979 28.268 123.317 28.268 123.631C28.2921 125.683 28.6783 126.697 30.7061 124.935C30.8509 124.814 31.3337 124.814 31.4786 124.959C33.3374 126.914 34.7858 125.079 36.3066 124.403C39.4207 123.052 42.4864 121.652 45.6246 124.572C45.7453 122.955 45.8419 121.652 45.9143 120.348C46.1557 120.251 46.4213 120.155 46.6627 120.058C47.4352 122.472 48.4249 124.114 50.7906 121.845C50.8871 121.748 51.6838 122.448 52.2148 122.69C52.7701 122.955 53.5184 123.438 53.9047 123.269C55.3289 122.593 56.6566 121.652 58.5395 120.517C58.0084 121.869 57.6947 122.665 57.3084 123.679C58.6844 122.81 59.7707 122.134 60.7604 121.531C60.7121 120.976 60.6638 120.469 60.5914 119.938C64.478 120.155 65.3712 119.527 65.7574 116.123C67.1334 116.413 68.5093 116.679 70.006 116.992C69.8612 116.486 69.7164 116.027 69.5715 115.592C69.7888 115.472 69.9819 115.351 70.1992 115.23C70.8751 116.292 71.551 117.33 72.2028 118.393C71.551 116.22 72.6615 115.327 74.4237 114.941C76.379 114.506 77.7067 115.423 77.8757 117.355C76.9342 117.113 76.0411 116.896 75.0272 116.63V119.696C77.0791 118.61 78.9861 117.572 80.7966 116.606C81.1828 117.693 81.2553 118.755 81.7381 118.972C82.3416 119.262 83.3072 118.948 84.0555 118.706C84.8521 118.441 85.5763 117.982 86.5178 117.524C86.5178 115.351 86.9523 115.11 88.9801 116.244V119.382L89.7284 119.431C90.3078 118.441 90.9112 117.475 91.4182 116.63C90.863 115.858 90.332 115.158 89.825 114.458C91.4183 114.747 92.5045 115.496 93.6149 116.22C95.7393 117.596 98.3223 117.017 99.2396 114.916C100.181 115.592 101.098 116.292 101.412 116.51C103.512 115.737 105.057 115.158 106.602 114.627C108.292 114.023 109.982 113.444 111.648 112.889C111.792 113.492 111.913 114.12 112.058 114.747C112.251 114.796 112.444 114.844 112.637 114.892C113.241 113.54 113.868 112.164 114.472 110.837C115.293 111.489 115.872 112.309 116.572 112.43C119.445 112.985 122.366 113.323 125.263 113.709C125.48 113.734 125.745 113.541 126.156 113.347C125.6 112.744 125.142 112.261 124.176 111.223H129.608C129.342 109.606 129.149 108.326 129.004 107.336C131.008 108.085 132.698 108.737 134.484 109.413V107.964C135.763 107.264 136.801 106.709 137.598 106.274C138.105 107.095 138.636 107.94 139.481 109.292C139.843 107.674 140.012 106.878 140.253 105.84C141.316 106.395 142.185 106.83 143.343 107.433C142.402 108.061 141.774 108.495 141.147 108.93C141.219 109.195 141.291 109.485 141.364 109.75C143.488 109.123 145.588 108.495 147.858 107.843C147.52 109.002 147.278 109.799 147.037 110.595C147.326 110.861 147.592 111.151 147.882 111.416C148.582 106.805 152.71 109.582 154.665 107.433C155.655 106.347 160.869 106.443 162.052 107.312C160.217 108.954 160.217 108.954 161.786 109.702C162.824 108.93 163.549 107.988 164.321 107.916C167.049 107.65 169.849 107.892 172.577 107.554C174.267 107.336 175.86 106.274 177.55 105.96C179.046 105.671 180.64 103.402 182.281 106.081C182.547 106.516 184.357 106.033 185.588 105.936C185.492 105.26 185.419 104.657 185.347 104.198C186.747 103.667 187.954 103.209 189.282 102.726C189.065 103.957 188.896 105.043 188.702 106.129C189.813 104.126 191.141 103.522 193.41 104.44C192.83 103.547 192.13 103.088 191.503 102.581C191.237 102.364 190.923 102.074 190.875 101.784C190.827 101.495 190.996 100.891 191.165 100.843C192.637 100.481 194.158 100.215 195.631 99.9255C196.138 101.157 196.62 102.315 197.127 103.546C197.634 102.098 198.02 101.036 198.407 99.9738C198.214 99.0806 197.948 97.9219 197.707 96.8597C199.348 98.0667 200.772 99.1048 202.197 100.143C202.583 99.491 202.969 98.8151 203.476 97.9943C205.456 99.2254 208.425 100.046 209.125 101.76C210.018 103.957 210.597 103.788 212.094 103.136C210.984 101.326 209.946 99.6358 208.908 97.9701C209.294 97.6322 209.704 97.2701 210.09 96.9321C211.08 97.777 212.07 98.6461 213.518 99.8772C214.387 99.4427 215.788 98.7185 216.826 98.2116C217.839 99.0323 218.877 99.8531 220.036 100.77C219.505 101.229 218.998 101.664 218.395 102.171C220.109 102.05 221.967 101.35 222.885 102.002C225.395 103.74 226.626 102.026 228.292 100.915C228.582 101.76 228.944 102.798 229.427 104.174C231.334 102.171 233.289 101.736 235.775 101.446C238.165 101.157 239.662 100.408 240.869 102.967C240.966 103.16 241.569 103.112 241.931 103.16C244.297 103.402 246.566 103.45 248.449 101.567C248.883 101.133 249.68 101.084 250.308 100.867C250.018 101.519 249.728 102.146 249.415 102.798C249.535 103.015 249.632 103.233 249.753 103.45C250.597 103.04 251.394 102.533 252.263 102.219C253.205 101.881 254.267 101.374 255.136 101.543C255.715 101.664 256.077 102.871 256.319 103.281C257.332 102.967 258.491 102.702 259.505 102.195C260.278 101.808 260.881 101.084 261.557 100.505C260.784 99.9497 260.06 99.153 259.191 98.8875C258.443 98.6702 257.501 99.0806 256.657 99.2013C260.519 95.9665 263.44 97.6564 266.071 100.891C265.854 100.529 265.637 100.167 265.444 99.8048C267.399 98.5495 268.727 98.7185 268.871 101.47C269.885 101.181 270.972 101.157 271.599 100.601C272.251 100.046 272.444 98.9599 273.023 97.7046C273.941 100.263 274.086 103.16 277.417 100.457C277.683 100.239 280.386 98.6943 281.521 101.06C281.762 101.543 283.09 101.736 283.911 101.688C287.17 101.446 290.525 101.446 293.108 98.2599C293.301 99.2738 293.398 99.7565 293.494 100.263C294.001 99.7324 294.46 99.2254 295.063 98.5736C295.715 99.4185 296.222 100.046 296.681 100.626C297.381 100.239 298.081 99.8531 298.781 99.4669C297.864 99.0082 297.043 98.5978 296.222 98.1875C298.153 97.415 300.519 98.6702 301.122 95.1458C300.64 98.6702 302.547 99.153 304.912 99.4186C305.685 99.5151 306.385 100.457 307.109 101.012C307.302 101.157 307.544 101.277 307.737 101.398C308.268 100.722 308.751 100.143 309.499 99.2013C309.62 100.457 309.716 101.229 309.74 101.543C312.444 100.77 314.955 100.046 317.465 99.3461C316.669 96.6183 316.934 96.1597 319.252 96.6183C319.252 96.8114 319.252 97.0046 319.252 97.1977C319.179 97.8736 319.107 98.5254 319.034 99.2013C319.517 98.8633 319.976 98.2598 320.507 98.2116C321.955 98.0184 323.428 98.0667 324.9 97.9943V100.07C327.532 99.8531 330.428 99.5875 333.591 99.322C333.229 100.939 333.06 101.712 332.891 102.46C334.049 101.784 335.087 101.181 337.067 99.998C335.787 98.8634 334.725 97.9219 332.939 96.3286C334.629 96.8839 335.715 97.246 336.584 97.5356C337.55 97.1494 338.491 96.7873 339.433 96.4252C339.529 96.6666 339.626 96.9322 339.722 97.1736C338.998 97.6805 338.274 98.1874 337.55 98.6944C338.081 99.1289 338.539 98.8875 338.684 99.0082C341.195 101.036 342.04 100.119 342.498 97.246C342.716 95.8941 346.844 95.2182 347.568 96.1356C348.944 97.8736 350.006 97.7287 350.947 95.701C351.599 94.3009 352.323 93.4319 353.868 95.001C354.472 95.6286 356.065 96.2321 356.475 95.9183C358.938 94.0837 360.483 96.1838 361.738 96.7149C363.09 95.4596 364.224 94.3975 365.383 93.3353C365.697 93.456 366.011 93.5767 366.325 93.6974C364.514 95.7493 365.287 96.8114 367.169 97.3908C368.039 96.6666 368.883 95.9665 369.921 95.1216C370.235 95.9183 370.694 96.7631 370.573 96.8356C369.004 97.9943 367.339 99.0565 365.697 100.143C366.276 100.505 366.976 100.36 367.701 100.239C368.811 100.046 370.597 99.322 370.96 99.7566C373.156 102.388 374.87 100.432 376.729 99.9255C376.777 99.491 376.801 99.0806 376.85 98.6461C374.918 98.3081 372.963 97.9943 371.032 97.6564C375.039 95.5803 378.057 97.3908 380.881 100.119C381.05 99.8531 381.219 99.6117 381.388 99.3461C381.074 98.7668 380.76 98.1633 380.591 97.8253C381.654 96.5942 382.667 95.4114 383.536 94.3975C383.609 95.8941 383.657 97.3667 383.754 99.1531C383.633 99.2255 383.03 99.6599 382.064 100.312C383.319 100.408 384.333 100.819 384.985 100.481C388.026 98.9599 391.623 99.2737 394.303 101.398C394.81 101.808 395.655 101.833 396.596 102.098C395.655 100.577 395.099 99.6841 394.23 98.2599C397.248 98.4771 399.638 97.9702 400.724 100.481C400.917 100.915 400 101.833 399.59 102.533C399.662 102.774 399.758 103.015 399.831 103.257C401.303 102.629 402.8 101.977 404.538 101.229C404.973 103.426 405.649 103.812 407.821 102.75C409.946 101.712 412.673 101.929 415.136 101.591C415.377 101.881 415.619 102.171 415.86 102.484C415.932 101.326 416.005 100.167 416.101 98.5496C417.477 98.6461 419.095 98.8151 420.736 98.8392C421.34 98.8392 422.04 98.5495 422.498 98.1633C423.44 97.3667 424.236 96.4011 425.347 95.2424C423.078 93.0939 421.147 90.7282 416.85 91.8869ZM346.119 38.1271C343.343 41.3136 342.667 41.386 340.615 38.9237C342.523 38.6582 344.092 38.4168 346.119 38.1271ZM316.427 36.3408C317.031 36.3891 317.634 36.5822 318.262 36.7029C316.5 38.2237 313.53 36.5822 313.023 40.2997C312.71 39.7928 312.01 39.141 312.154 38.7548C312.83 36.7753 314.448 36.1718 316.427 36.3408ZM47.6524 44.5484C47.7007 44.2587 47.749 43.9449 47.7973 43.6552C48.7387 43.0758 49.7043 42.5206 50.5733 41.9895C51.2251 43.0034 51.8045 43.8483 52.5287 44.9829C51.0561 44.8622 49.3422 44.7173 47.6524 44.5484ZM51.0803 53.6009C51.4424 50.2695 53.9288 49.1832 57.0911 47.9038C55.3047 50.6558 54.2426 53.2629 51.0803 53.6009ZM66.3368 42.1344C66.6747 43.0275 67.061 43.8966 67.3989 44.7174C65.4436 44.8139 64.4538 43.7035 64.8883 40.8308C65.009 40.0101 66.7954 39.4548 67.8093 38.7789C67.9782 39.0927 68.1714 39.3824 68.3403 39.6962C67.6161 40.1308 66.892 40.5653 66.0953 41.0481C66.1919 41.4102 66.2161 41.7964 66.3368 42.1344ZM86.735 37.8133C84.5141 37.0891 82.2691 36.3649 80.0483 35.6407C80.1448 35.2786 80.2655 34.9165 80.3621 34.5544C82.6313 35.1579 84.9004 35.7614 87.1454 36.3649L86.735 37.8133ZM120.169 49.2557C120 49.135 119.831 49.0143 119.662 48.8936C119.952 48.3383 120.241 47.759 120.531 47.2038C119.903 46.4796 119.3 45.7554 118.696 45.0312C118.865 44.8863 119.034 44.7415 119.203 44.5967C120.531 45.0312 121.883 45.4657 124.273 46.2382C122.631 47.4452 121.4 48.3383 120.169 49.2557ZM125.697 64.0294C125.504 63.7155 125.335 63.4017 125.142 63.0637C126.204 61.6878 126.735 59.322 130.187 61.3015C128.449 62.3637 127.073 63.2086 125.697 64.0294ZM129.704 48.1694C128.594 47.0106 127.677 46.045 126.325 44.6208C126.325 44.6208 125.504 44.7898 124.683 44.9346L124.538 43.969C125.963 43.7759 127.411 43.5828 129.028 43.3655C129.004 43.2448 128.98 43.1 128.956 42.931C128.932 42.6413 128.956 42.3275 128.956 41.724C130.018 43.3414 130.887 44.6208 131.78 45.9485C131.128 46.6485 130.428 47.3969 129.704 48.1694ZM148.606 52.7801C145.516 50.0282 144.116 45.3208 138.66 45.2243C139.312 44.2587 139.747 43.5828 139.916 43.3655C142.957 44.3069 145.806 45.2001 148.678 46.0933C147.447 46.4071 146.361 46.6727 145.299 46.9382C150.489 46.9141 147.447 51.0179 148.606 52.7801ZM160.941 60.4808C161.038 59.2979 161.135 57.8978 161.231 56.7632C162.728 57.7047 163.862 58.4047 165.021 59.1289C163.862 59.5152 162.607 59.9256 160.941 60.4808ZM166.904 58.9599C166.614 60.2394 166.397 61.3498 166.132 62.4361C165.745 63.9811 164.997 64.826 162.68 63.3293C164.08 61.5188 165.335 59.8531 166.711 58.3323C166.783 58.2358 167.99 59.1531 168.256 60.1187C167.966 59.829 167.652 59.5634 166.904 58.9599ZM178.781 31.3679C177.96 30.7644 176.632 30.1851 176.681 29.7023C176.753 28.6643 177.526 27.6987 178.008 26.7089C178.274 26.7813 178.515 26.8537 178.781 26.9262V31.3679ZM180.688 30.354C180.616 30.0644 180.543 29.7747 180.471 29.485C182.136 29.0746 183.223 26.2261 186.192 28.9057C184.019 29.4609 182.354 29.9195 180.688 30.354ZM194.689 55.4838C197.731 53.3836 202.511 56.1839 204.852 51.9594C205.045 55.3148 201.424 56.5459 194.689 55.4838ZM231.044 54.7354C229.62 51.5248 228.026 53.118 226.144 54.2285C227.254 52.7801 228.364 51.3317 229.499 49.835C230.489 51.0179 231.358 52.08 232.372 53.2629C232.034 53.6009 231.623 54.0837 231.044 54.7354ZM240.531 54.1078C240.193 53.3353 239.831 52.5628 239.493 51.7904C239.228 51.1144 239.01 50.4385 238.6 49.2557C239.783 49.5453 240.99 49.5212 241.231 49.9799C241.714 50.9455 241.762 52.1766 241.786 53.287C241.786 53.5526 240.966 53.8423 240.531 54.1078ZM247.459 50.9455C249.753 50.8731 250.235 46.1175 253.518 48.6039C251.587 49.6419 250.525 52.925 247.459 50.9455ZM267.23 50.0764C266.699 50.4144 266.192 51.0662 265.637 51.0903C263.947 51.2352 262.257 51.1386 260.447 50.7282C262.547 49.7385 263.802 48.459 262.933 45.6829C263.247 45.8278 263.536 45.9485 263.85 46.0933C264.164 46.9865 264.478 47.9038 264.792 48.797C265.154 49.0625 265.492 49.3522 265.854 49.6178C266.337 48.628 266.844 47.6624 267.375 46.6003C267.664 47.5417 267.882 48.2659 268.244 49.5212C268.099 49.6178 267.64 49.835 267.23 50.0764ZM275.244 50.2454C275.172 50.3902 275.003 50.6799 275.003 50.6799C272.589 49.4971 270.513 49.0626 270.682 53.5767L269.74 52.9491C269.499 51.7179 268.727 50.2696 269.113 49.2798C269.813 47.4693 271.937 47.252 273.579 47.421C274.23 47.4935 274.713 49.2315 275.244 50.2454ZM285.19 49.4488C284.683 49.3281 284.393 49.3522 284.224 49.2074C282.414 47.6624 279.71 47.3969 278.817 49.1591C277.827 51.1145 276.596 50.4144 275.293 50.2454C276.21 47.5417 275.679 45.0312 273.893 42.3758C275.003 42.6655 275.8 42.8827 276.741 43.1482C275.872 41.5309 275.148 40.2273 274.182 38.4651C278.334 38.4409 276.982 42.2792 279.638 43.2207C279.831 42.424 280.072 41.4585 280.434 40.0342C281.303 39.5514 282.8 38.7065 284.611 37.7167C284.418 38.5616 284.273 39.1169 284.055 40.1066C285.721 39.9859 287.218 39.8652 288.739 39.7445C289.101 41.3377 289.559 43.1965 289.849 44.5001C288.087 45.9243 286.711 47.0589 285.335 48.1935C285.118 48.0004 284.924 47.8073 284.707 47.6142C284.828 48.1211 284.997 48.6763 285.19 49.4488ZM299.071 49.0867C297.55 48.5073 296.029 47.9521 293.856 47.1314C293.301 47.6383 292.36 49.0625 291.056 49.5936C289.921 50.0764 288.352 49.5695 287.001 49.4971C287.87 48.459 288.642 47.5417 289.632 46.3589C290.018 46.552 290.839 46.9382 291.829 47.3969C292.215 46.5761 292.553 45.8278 292.963 44.9587C295.112 46.0692 297.236 47.1555 299.36 48.2418C299.264 48.5556 299.167 48.8212 299.071 49.0867ZM305.95 46.7692C305.275 47.9038 303.947 48.6522 302.619 49.8109C301.919 49.0626 301.267 48.3625 300.615 47.6624C300.736 47.4693 300.857 47.2762 301.002 47.0831C301.871 47.2038 302.74 47.3003 303.609 47.421C304.888 45.7312 306.144 44.0897 307.399 42.424C309.571 44.5484 306.747 45.4898 305.95 46.7692ZM373.47 75.7131C373.808 75.0854 374.291 74.5302 374.701 73.9267C375.329 74.4337 376.319 74.8682 376.463 75.4958C376.608 76.1235 376.101 77.258 375.522 77.596C374.677 78.1029 373.542 78.103 372.287 78.3926C372.818 77.1856 373.084 76.4131 373.47 75.7131ZM376.439 80.348C370.646 80.4687 370.646 80.4687 370.428 78.7547C372.553 79.0444 374.556 79.31 376.56 79.5996C376.512 79.841 376.488 80.1066 376.439 80.348ZM379.94 80.4204C379.433 78.7547 378.974 77.2098 378.443 75.3993C379.553 75.6648 380.567 75.9062 381.605 76.1717C382.112 78.0546 382.474 79.8652 379.94 80.4204ZM395.075 81.6516C395.631 80.4204 396.017 79.141 396.427 77.8616L395.389 77.5477C394.713 78.634 394.037 79.7444 393.168 81.1446C393.892 81.3377 395.051 81.7481 395.075 81.6516Z" fill="url(#paint1_linear)"/>
<defs>
<linearGradient id="paint0_linear" x1="-0.0033796" y1="64.614" x2="425.115" y2="64.614" gradientUnits="userSpaceOnUse">
<stop stop-color="#FAC2B6"/>
<stop offset="0.9933" stop-color="#FFB8A2"/>
</linearGradient>
<linearGradient id="paint1_linear" x1="473.863" y1="141.61" x2="-53.1124" y2="-212.371" gradientUnits="userSpaceOnUse">
<stop stop-color="#FFEEEA"/>
<stop offset="1" stop-color="#FFDFD8"/>
</linearGradient>
</defs>
</svg>
