<svg width="171" height="78" viewBox="0 0 171 78" fill="none" xmlns="http://www.w3.org/2000/svg">
<path d="M11.9933 28.2959C11.6638 26.2696 13.3015 27.2764 13.7309 26.2187C13.8308 26.6902 13.9406 27.1745 14.0405 27.646C13.3614 27.8626 12.6824 28.0792 11.9933 28.2959ZM170.996 69.4831C171.036 70.2859 170.747 71.127 170.597 71.9553C170.467 71.9298 170.327 71.9171 170.197 71.8916C169.948 71.3054 169.688 70.7192 169.408 70.082C169.079 71.1525 168.789 72.0955 168.59 72.7709H165.863C165.813 72.9493 165.773 73.1405 165.723 73.3189C166.293 73.6502 166.862 73.9816 167.441 74.3129C167.441 74.4276 167.441 74.5295 167.441 74.6442C166.442 74.5295 165.454 74.4276 164.455 74.3129V75.103H163.027C163.257 74.6442 163.417 74.3256 163.676 73.8032C162.787 73.9943 161.979 74.007 161.279 74.3766C160.541 74.7716 159.911 75.4853 159.372 75.9568C159.232 75.2304 159.132 74.7334 159.033 74.2364C158.473 74.657 157.884 75.1922 157.844 75.1285C157.245 74.2364 156.856 74.7462 156.376 75.3069C156.236 75.4725 155.827 75.3834 155.567 75.2814C154.339 74.7972 153.121 74.4531 151.852 75.6382C151.553 74.555 151.393 73.9433 150.444 74.8099C149.845 75.3451 148.767 74.3894 147.968 75.1157C147.918 74.9883 147.878 74.8099 147.798 74.7589C147.608 74.6442 147.388 74.4913 147.209 74.5295C146.13 74.7589 145.072 75.1157 143.983 75.2814C143.544 75.3451 142.855 75.2687 142.665 74.9118C141.806 73.3699 141.227 73.7904 140.618 75.1285C140.528 75.3324 140.308 75.4343 140.118 75.6127C139.879 75.2559 139.649 74.9246 139.419 74.5932C139.369 74.7207 139.319 74.8609 139.27 74.9883C138.98 74.8991 138.67 74.6697 138.411 74.7462C137.492 74.9883 136.583 74.3766 135.605 74.8991C135.095 75.1667 133.957 75.8804 133.677 74.16C133.507 74.2109 133.348 74.2747 133.178 74.3256C132.449 74.5295 131.66 75.549 131.011 74.5932C130.392 73.6757 130.302 74.6952 130.002 74.8354C129.792 74.9373 129.663 75.3324 129.493 75.6V74.3129C128.085 73.4336 127.975 73.4973 126.916 75.0902C126.747 75.3451 126.187 75.498 126.008 75.3324C125.249 74.6315 124.38 74.7079 123.551 74.4403C122.413 74.0708 122.572 74.7589 122.662 75.9441C122.153 75.4725 121.783 75.1285 121.244 74.6315C121.044 74.6952 120.575 74.7972 120.126 74.9628C119.696 75.1285 119.287 75.3706 118.877 75.5745C118.947 75.103 119.017 74.6442 119.117 74.0198C118.738 74.0835 118.258 74.1599 117.769 74.2491C117.829 74.7079 117.869 75.0775 117.889 75.2432C116.071 75.2687 114.304 75.2687 112.546 75.3196C112.177 75.3324 111.807 75.498 111.438 75.549C110.429 75.7147 109.42 75.9823 108.412 75.9441C108.082 75.9313 107.773 75.1157 107.563 74.8226C107.153 75.3324 106.784 75.8803 106.345 76.3009C105.596 77.0145 105.076 76.5175 104.747 75.6255C104.237 75.8676 103.788 76.097 103.319 76.3136C103.179 76.0078 103.039 75.6892 102.879 75.3579C101.521 76.8489 100.882 76.8998 99.3541 75.7402C99.2642 76.0715 99.2042 76.4283 99.0445 76.7214C99.0045 76.7851 98.5252 76.6577 98.4753 76.492C97.8561 74.7207 97.0372 75.7147 96.3781 76.3136C95.2496 77.3331 94.1212 77.1165 93.7617 75.5745C93.512 76.938 92.8729 77.0528 92.034 76.6322C91.8143 76.5175 91.4548 76.3391 91.355 76.4538C90.5161 77.5115 89.5275 76.7214 88.6187 76.8616C88.379 76.8998 88.0195 76.8616 87.8797 76.6577C87.3404 75.8803 86.8911 75.8039 86.3817 76.6959C86.2419 76.9381 85.8924 77.1802 85.6727 77.142C84.2646 76.8743 82.8666 76.5175 81.4086 76.1734C81.4685 75.995 81.5783 75.6637 81.798 75.0138C81.3986 75.3196 81.1189 75.3961 81.039 75.6C80.4698 77.0528 79.6509 76.4283 78.862 76.0587C78.7721 76.0205 78.6623 76.0333 78.4226 75.995C78.6124 76.3774 78.7422 76.6195 78.852 76.8361C78.5924 77.0273 78.3128 77.2184 77.7535 77.6262C77.8634 76.6959 77.9333 76.0588 78.0032 75.4343C77.0845 75.7402 76.1757 76.1097 75.237 76.3136C74.458 76.4793 73.6491 76.5303 72.8502 76.492C71.2824 76.4283 69.7145 76.2499 68.1467 76.148C67.8471 76.1352 67.5475 76.3519 67.2479 76.3391C66.0395 76.2881 64.8412 76.1862 63.5429 76.0842C63.503 75.447 63.1934 75.0393 62.3945 75.5108C62.1049 75.6892 61.6755 75.4853 61.1162 75.447C60.9864 75.5235 60.6569 75.8294 60.2874 75.9186C59.7481 76.046 59.1889 76.0333 58.6396 76.0715C58.38 76.0842 58.1103 76.1479 57.8607 76.0842C57.3014 75.944 56.7622 75.7274 56.2029 75.5618C55.9633 75.4853 55.6337 75.5745 55.464 75.3961C54.9347 74.8609 54.4753 74.2364 53.976 73.6375C53.946 73.7904 53.9261 73.9561 53.8961 74.109C53.4367 74.1854 52.8775 74.504 52.538 74.2747C52.1185 74.007 51.8888 73.2806 51.7191 72.9875C51.2797 73.6375 50.8702 74.3129 50.3909 74.8863C49.7118 75.7019 49.1726 75.3833 48.7631 74.4276C48.7531 74.4148 48.6033 74.4913 48.5234 74.5423C47.7645 75.0647 46.9855 75.0775 46.1467 74.8354C45.3777 74.6187 44.6188 74.5933 44.2093 73.4846C44.0695 73.115 43.5702 72.9621 43.2407 72.7199C43.1907 72.8219 43.1308 72.9366 43.0809 73.0385C43.2506 73.3316 43.4204 73.6247 43.5902 73.9178C42.6215 74.6187 41.5729 72.516 40.6242 74.058C40.6142 74.0707 40.5543 74.0198 40.5144 73.9943C40.4545 73.5865 40.4045 73.1787 40.3845 73.064C39.4658 72.8729 38.7068 72.7072 37.6083 72.4778C38.0877 72.7837 38.3174 72.9366 38.5471 73.0768C38.5071 73.2552 38.4572 73.4463 38.4172 73.6247C38.0377 73.6247 37.6583 73.6884 37.2988 73.612C36.7994 73.4973 36.3201 73.2807 35.8308 73.0895C35.1217 72.8219 34.4127 72.5543 33.6138 72.2612C33.5639 72.4905 33.4939 72.7582 33.454 72.9366C33.0745 72.8346 32.6851 72.7454 32.2856 72.6307C32.2057 72.1974 32.1158 71.7005 32.0559 71.4074C31.3768 71.6113 30.8675 71.7514 30.1585 71.9681C30.1286 72.0573 29.9788 72.4651 29.8489 72.8092C29.1299 72.6307 28.5008 72.4651 27.7418 72.2739C28.0214 71.8279 28.1712 71.5985 28.341 71.3181C28.6306 71.5858 28.9002 71.8406 29.1798 72.0955C29.1599 71.6495 29.1998 71.2672 29.1099 70.9359C29.02 70.63 28.8303 70.2604 28.6106 70.1585C28.0514 69.8909 27.4522 69.7379 26.6633 69.4831C25.5748 70.3369 25.1454 69.0753 24.7359 67.7244C24.4863 68.0176 24.2965 68.2342 24.3265 68.196C23.5775 67.8519 23.0083 67.597 22.3092 67.2785V68.8586L22.0995 68.9096C21.9597 68.5273 21.8299 68.145 21.6701 67.6862C21.2906 67.7754 20.9111 67.8519 20.8013 67.8774C20.1821 67.2784 19.7228 66.4756 19.2933 66.4883C18.4645 66.5266 17.6456 67.049 16.8167 67.3676C16.7967 67.1765 16.7868 66.9981 16.7668 66.8069C16.5471 66.8197 16.3074 66.7814 16.1077 66.8707C14.9293 67.3804 12.8921 66.603 12.4127 65.4306C12.3029 65.4689 12.1731 65.4816 12.0832 65.5581C11.4141 66.157 10.755 66.8706 10.2757 65.2904C10.2357 65.163 9.84623 65.1375 9.64651 65.1885C9.31695 65.265 8.99738 65.4561 8.66783 65.5963C7.30968 66.603 7.33966 66.5903 6.69055 64.8317C6.49082 64.2837 6.15128 63.7995 5.622 64.6405C5.44225 64.9209 4.56346 64.9336 4.54349 64.8699C4.21394 63.3534 3.66468 62.2193 2.13677 62.4869C2.43636 61.735 2.62608 61.2762 2.80584 60.792C1.85713 60.2822 1.4477 58.753 1.90707 57.708C2.24661 56.9179 2.59612 56.1278 2.86575 55.3122C3.40502 53.6811 2.91571 52.4322 1.60749 51.8078C1.43772 51.7313 1.27792 50.9922 1.30788 50.9667C1.91705 50.4824 2.54619 50.0619 2.20665 48.8768C2.1667 48.7493 2.38643 48.3925 2.54621 48.316C2.96564 48.1249 3.42499 48.0229 3.89435 47.8828C3.98423 48.4435 4.08409 49.0424 4.17396 49.5649C5.11268 49.2718 5.91162 49.0296 7.01012 48.6856C6.77045 48.0739 6.46085 47.2965 6.15128 46.5447C6.78042 45.7036 7.37961 44.9899 8.06867 46.6593C8.21847 47.0289 9.11724 47.0799 9.62654 46.9525C9.81628 46.9015 9.8762 45.9584 9.90616 45.78C8.9974 45.5252 8.35827 45.3468 7.55936 45.1174C9.19712 43.1676 10.6152 46.6339 11.9633 44.9517C12.2929 45.334 12.6424 45.882 12.7523 45.8183C13.4713 45.385 13.5712 46.0094 13.7809 46.5956C13.8708 46.825 14.1204 47.1436 14.2702 47.1309C15.0092 47.0289 15.7382 46.8378 16.4572 46.6466C17.6756 46.328 19.0637 46.6211 19.9624 45.0664C20.0823 44.8625 20.4717 44.9007 20.7314 44.8243C20.6814 46.1241 21.71 45.5507 22.1095 46.0986C22.0696 46.328 21.9997 46.5702 21.9897 46.7995C21.9797 47.0289 22.0396 47.2711 22.0695 47.5514C22.3592 47.4877 22.5888 47.4367 22.7586 47.4112C22.5289 46.3408 22.3192 45.334 22.1095 44.3273C22.1994 44.2891 22.2992 44.2508 22.3891 44.2126C22.5988 44.6841 22.8085 45.1556 23.0282 45.6399C23.3977 45.5889 23.7572 45.5379 24.3964 45.4614C23.907 44.6331 23.5975 43.5372 23.1181 43.4098C22.5289 43.2441 21.7999 43.8685 21.1308 44.1489C20.8412 43.4735 20.5017 42.6706 20.1621 41.855C19.8426 42.4158 19.6229 42.7853 19.4032 43.1676C19.2734 43.1294 19.1435 43.1039 19.0137 43.0657C18.9738 42.4795 18.9438 41.8805 18.9039 41.3963C17.9252 42.301 17.8952 42.8873 18.824 44.837C18.3546 44.9135 17.8953 45.0027 17.4858 45.0664C17.5857 43.5754 17.6756 42.1864 17.7455 41.1796C17.1762 40.8738 16.8367 40.6954 16.4972 40.517C16.8067 40.2239 17.1063 39.9307 17.4758 39.5739C16.627 38.2359 15.2888 39.3191 14.1304 38.8985C15.3687 37.484 13.4213 37.382 13.6311 36.439C14.2302 35.6107 15.6783 35.8528 15.5684 34.0432C15.159 34.0815 14.8294 34.107 14.39 34.1452C14.5598 33.559 14.6696 33.1894 14.7895 32.7434C14.4599 32.616 14.2103 32.5268 14.0105 32.463C14.0804 32.1445 14.1404 31.8513 14.2103 31.5073C13.8208 31.5837 13.5412 31.622 13.2716 31.6729C14.7595 30.8574 14.7595 30.8573 14.0305 29.532C14.4599 28.3596 14.8394 27.3401 15.2988 26.0913C14.6996 25.9638 14.2203 25.8619 13.7309 25.7599C13.7409 25.658 13.7409 25.5687 13.7509 25.4668C14.2802 25.3394 14.8094 25.2119 15.3787 25.0718C15.4885 24.7022 15.6283 24.2307 15.7981 23.6572C16.2775 24.0268 16.6669 24.3454 16.9665 24.5748C17.4658 24.2307 17.9252 23.9121 18.5743 23.4661C18.5843 23.3896 18.794 22.8416 18.6742 22.6377C18.3746 22.179 17.9152 21.8731 17.2362 21.2487C17.8653 21.1085 18.4046 20.8409 18.4844 20.9938C19.1635 22.1917 20.4418 22.5868 20.9111 24.0523C21.021 24.3836 21.3705 24.6003 21.9098 25.1992V21.1468C22.3791 21.3124 22.7586 21.4399 23.0981 21.5546C23.0482 22.3701 23.0083 23.0583 22.9484 24.1287C23.8571 23.4661 24.5062 22.9818 25.1553 22.5103C25.1254 22.4466 25.2652 22.7142 25.415 22.9818C25.6347 22.625 25.9343 22.3064 26.0641 21.8986C26.164 21.5928 26.0741 21.1723 26.0641 20.8027C25.8044 20.9174 25.5248 20.9938 25.3051 21.1722C24.8158 21.5673 24.3564 22.026 23.8172 22.523C23.4776 20.4713 23.7772 19.0441 25.2053 18.2667C23.3678 17.0561 22.9883 15.6288 23.7473 13.4496C23.228 14.0103 22.6987 14.5711 22.1395 15.1828C21.9797 13.6408 21.9797 13.6408 23.0682 13.284C23.4477 11.742 23.8172 10.2128 24.2366 8.54335C23.5176 9.05309 22.9783 9.42267 22.2393 9.94515C22.0496 9.24426 21.8698 8.68356 21.7799 8.09736C21.76 7.95718 22.0995 7.56213 22.1295 7.57487C22.4291 7.80425 22.6887 8.09736 23.0881 8.49241C23.4876 7.12885 23.897 5.72706 24.3364 4.23606C24.7359 4.84776 25.0455 5.30649 25.1254 5.43392C25.8344 4.74577 26.3837 4.00665 27.0627 3.6116C27.5321 3.34399 28.1712 3.56065 28.7404 3.56065C28.7704 3.3695 28.8004 3.16558 28.8203 2.97443C28.4209 2.77053 28.0314 2.43922 27.622 2.40099C26.6333 2.32452 26.4036 1.7383 26.7332 0.540398C27.1926 0.65509 27.622 0.808014 28.0514 0.858986C28.4508 0.909966 28.8603 0.833504 29.2697 0.820763C29.1898 1.33051 29.1199 1.84025 29.05 2.29902C29.3097 2.29902 29.7091 2.14612 29.9488 2.32453C30.7377 2.89799 31.287 2.99992 31.3069 1.4707C31.7364 1.73831 32.0659 1.92946 32.3455 2.10787V0.884499C32.8249 1.11388 33.3042 1.356 33.7836 1.58538C34.5725 1.43246 35.4712 1.26682 36.1603 1.68735C36.7994 2.0824 37.2488 3.07638 36.6796 4.21055C37.7881 3.62434 36.9393 2.38822 37.2488 1.26679C37.9978 1.48343 38.9066 2.78329 39.6056 1.0884C39.6655 1.73833 39.7055 2.17159 39.7354 2.57938C40.4145 2.10786 41.0337 1.66183 41.7127 1.17757C41.8925 1.8275 42.0223 2.28628 42.0722 2.46469C41.3332 3.2293 40.7241 3.87922 40.1049 4.52914C40.1948 4.70755 40.2947 4.87322 40.3845 5.05163C41.1335 4.56738 41.8725 4.08311 42.5915 3.6116C42.6115 3.84099 42.6315 4.22329 42.6514 4.6056C42.7813 4.59286 42.9111 4.59286 43.0409 4.58012L42.9211 1.87849C43.1008 1.84026 43.2706 1.80201 43.4504 1.77653C43.8199 2.99991 44.1993 4.21056 44.5389 5.33199C44.8884 4.69481 45.198 4.14684 45.5076 3.57337C46.0268 4.14684 46.3764 4.5164 46.7858 4.97517C46.7459 4.19781 46.7159 3.6626 46.6959 3.11462C46.8258 3.0509 46.9556 2.9872 47.0854 2.92348C47.6446 5.75255 49.5221 4.98794 51.2996 5.79078C50.4108 3.93022 51.8988 3.77729 52.0286 3.79003C53.0572 3.93021 54.3555 3.9557 53.956 6.18583C54.3455 6.08388 54.6451 6.00742 55.0645 5.90546C54.7949 5.67608 54.665 5.56138 54.5452 5.45943C55.0245 5.1281 55.444 4.83498 55.9233 4.49091C56.0232 4.92419 56.2229 5.33199 56.153 5.65058C56.0831 6.0074 55.7636 6.27502 55.5638 6.58087C55.6337 6.68282 55.6936 6.78476 55.7635 6.8867C56.3527 6.41519 56.9319 5.95643 57.5112 5.49767C58.1203 6.92494 59.4285 7.39646 60.6269 6.58087C61.6455 8.55612 61.7154 8.56886 62.9937 6.8867C61.1462 6.40245 61.0463 6.27502 61.4458 5.2173C61.8153 5.56138 62.1848 6.17306 62.5743 6.19854C63.4231 6.24952 64.2919 5.98192 65.1507 5.85448C65.2007 5.84174 65.2606 5.95642 65.3205 6.0074C65.2706 6.44068 65.2107 6.8612 65.1507 7.34546C64.9311 7.20528 64.7513 7.09061 64.5715 6.97592C64.5116 7.06512 64.4417 7.16708 64.3718 7.25628C64.6614 7.63859 64.961 8.0209 65.2306 8.37772C65.8098 7.67683 66.5388 7.16705 66.8185 6.38969C67.3178 4.97515 67.2079 4.91145 67.9869 4.69481V8.55611C68.8956 10.3912 69.7445 8.39043 70.7032 8.58158C70.4935 7.99538 70.3137 7.48566 70.2038 7.20529C69.7145 7.20529 69.355 7.25626 69.0155 7.15431C68.9556 7.14156 68.8857 6.38972 69.0155 6.22405C69.365 5.7398 69.8243 5.38296 70.084 5.12809C70.5034 5.94368 70.8929 6.91221 71.0027 6.86124C71.562 6.6191 72.0413 6.10935 72.7104 5.57412C73.2896 5.85448 74.1984 6.30049 75.4267 6.91218C74.8175 7.40918 74.458 7.70229 73.9587 8.11008C74.8675 8.51787 75.5465 8.83646 76.4353 9.23151C76.5052 8.69629 76.5951 7.95715 76.7249 6.95041C77.404 7.81697 78.123 8.72177 78.8121 9.58833C79.2815 8.50513 79.7009 7.51115 80.1203 6.54264C80.9592 7.38372 81.6582 8.07187 82.3472 8.77277C82.2873 8.88746 82.2274 9.00214 82.1575 9.11683C81.9878 8.9894 81.798 8.87469 81.6482 8.70902C81.4585 8.49239 81.2887 8.22476 80.8693 7.62582C80.8693 8.53061 80.7295 9.15507 80.9092 9.4864C81.069 9.79225 81.5883 9.83045 81.9478 9.89417C82.3972 9.97063 82.8865 9.8432 83.306 10.0216C84.5343 10.5314 85.1434 10.0089 85.1434 8.36497C85.1434 8.14832 85.2832 7.94443 85.3531 7.72778C85.4031 7.84248 85.453 7.96991 85.5029 8.0846C85.8924 7.9062 86.3818 7.86797 86.6514 7.53664C87.4803 6.51716 87.69 6.52989 88.1993 7.72778C87.65 8.16106 87.1108 8.59434 86.5715 9.02762C86.6014 9.15505 86.6414 9.26975 86.6714 9.39719C88.0295 9.06586 89.2878 9.02763 89.5175 10.8372C90.5061 10.5951 91.3849 10.3784 92.6133 10.0726C92.8629 9.38445 93.3123 8.18654 93.8116 6.83572C94.4507 7.60033 94.9501 8.21205 95.4494 8.811C95.9886 6.74654 96.7975 9.83047 97.3867 8.64532C97.167 9.44817 96.9373 10.2637 96.7176 11.0666C96.7776 11.0921 96.8375 11.1303 96.8874 11.1558C97.3967 10.4931 97.906 9.84319 98.4053 9.18053C98.5252 9.30797 98.655 9.43542 98.7748 9.56286C98.635 10.0216 98.4952 10.4804 98.2855 11.1813C98.7249 11.1303 99.0045 11.1176 99.2841 11.0538C99.6137 10.9774 99.9332 10.8372 100.263 10.7352C100.353 9.1423 101.112 7.65131 101.831 7.86794C102.17 7.96989 102.41 8.64532 102.699 9.0786C102.979 8.97665 103.478 8.73451 103.988 8.6708C104.577 8.59434 105.176 8.67082 105.775 8.69631C106.155 8.70905 106.524 8.74728 106.904 8.77277C106.784 9.19331 106.674 9.61383 106.544 10.0344C106.484 10.2383 106.384 10.4294 106.305 10.6206C107.193 9.32072 108.032 9.70303 108.871 10.7098C109.33 10.0853 109.72 9.53736 110.129 8.98939C109.36 9.04036 108.761 9.12956 108.172 9.06584C108.002 9.04036 107.793 8.54337 107.753 8.23752C107.713 7.89345 107.832 7.51115 107.892 7.14159C108.132 7.25629 108.422 7.29452 108.611 7.49841C109.28 8.22479 109.9 8.58162 110.699 7.70232C110.878 7.51116 111.458 7.91894 111.847 8.04637C111.717 8.16106 111.587 8.26303 111.458 8.37772C111.517 9.32074 111.567 10.2637 111.627 11.2195C111.817 11.2577 112.007 11.296 112.207 11.3342C112.366 10.8499 112.656 10.353 112.656 9.8687C112.656 9.51187 112.266 9.16782 112.047 8.811C112.157 8.70905 112.266 8.60707 112.376 8.50513C112.586 8.74725 112.796 8.9894 112.886 9.0786C113.255 8.47965 113.475 7.77877 113.864 7.53664C114.274 7.29451 114.853 7.48566 115.332 7.48566C115.172 8.92567 114.923 9.11684 113.315 8.64532C113.665 9.25701 113.964 9.70304 114.174 10.2C114.583 11.1685 115.123 11.3087 115.911 10.9264C116.361 10.7098 116.9 10.7607 117.399 10.697C117.899 10.6333 118.378 10.3275 118.897 10.1491C119.187 10.0471 119.596 10.302 119.826 10.1363C119.986 10.0216 119.866 9.40993 119.986 9.0786C120.176 8.54337 120.375 7.77876 120.715 7.60034C121.354 7.28175 121.424 7.98264 121.464 8.6708C121.494 9.26974 121.664 9.85596 121.773 10.4422C121.883 10.4294 121.993 10.4294 122.113 10.4167C122.113 9.98338 122.083 9.53735 122.123 9.10407C122.163 8.61982 122.253 8.13557 122.313 7.71503C122.882 8.54336 123.361 9.23152 123.921 10.0344C124.31 8.76001 122.622 7.68956 124.27 6.73379C124.5 7.60035 124.719 8.44143 124.939 9.2825C124.959 9.11684 124.979 8.95115 124.999 8.78548C126.257 9.76674 127.206 8.79825 128.165 8.32674C128.364 9.11684 128.534 9.79224 128.744 10.6333C129.313 10.0726 129.653 9.72853 129.902 9.4864C129.753 8.96392 129.623 8.53063 129.493 8.0846C130.601 9.39719 132.099 9.70304 133.088 8.92568C133.897 9.43542 134.556 9.85595 135.225 10.2637C135.185 9.72852 135.125 9.19328 135.125 8.6708C135.125 8.4669 135.235 8.26299 135.335 7.9444C134.776 8.02087 134.356 8.08459 133.927 8.14831C133.917 8.00813 133.897 7.88072 133.887 7.74054C134.646 7.58762 135.395 7.42194 136.114 7.28175C136.943 9.26975 137.572 9.83046 138.89 10.0216C139.08 9.44815 139.22 8.54337 139.409 8.51788C139.949 8.4669 140.498 8.7855 141.047 8.96391C141.047 9.11684 141.047 9.25702 141.047 9.40994C141.237 9.06587 141.427 8.72179 141.796 8.04637C142.086 9.00214 142.285 9.69028 142.535 10.5441C143.084 9.98338 143.624 9.43543 144.253 8.811C144.173 9.49915 144.093 10.1745 144.043 10.6333C144.492 10.9901 144.922 11.3342 145.581 11.8694C145.311 10.9901 145.062 10.3147 144.902 9.62656C144.842 9.34621 144.902 8.76 145.022 8.70902C145.271 8.59434 145.761 8.59433 145.861 8.78548C146.27 9.56284 146.57 10.4294 146.789 10.9774C147.548 10.8754 148.197 10.799 148.846 10.7098C148.647 11.296 148.457 11.8694 148.267 12.4302C148.677 12.3919 149.176 12.341 149.685 12.3027V11.0666C150.314 11.3852 150.824 11.6401 151.383 11.9204C151.063 12.4174 150.834 12.7615 150.624 13.0928C150.814 13.7045 150.984 14.2652 151.303 15.272C151.603 14.278 151.792 13.6918 151.872 13.4114C152.292 14.4309 152.801 15.667 153.27 16.8012C152.541 17.4384 151.772 18.101 151.024 18.751C151.004 18.5598 150.974 18.2922 150.904 17.5786C150.275 18.4196 149.855 18.9803 149.386 19.592C148.797 19.2225 148.127 18.7892 147.498 18.3941C147.349 18.9039 147.249 19.5283 147.149 19.5283C146.36 19.5411 146.4 19.8469 146.58 20.7262C146.749 21.529 146.37 22.3319 145.521 22.3956C144.712 22.4466 144.502 23.0965 144.502 23.8484C144.902 24.065 145.211 24.2307 145.511 24.4091C145.99 24.6895 146.28 24.7404 146.42 23.8739C146.51 23.3131 146.909 22.8289 147.179 22.3064C147.329 22.3829 147.468 22.4721 147.618 22.5486C147.578 23.3387 147.538 24.116 147.498 25.008C148.936 23.3386 150.265 24.2944 151.683 25.1737C151.503 25.5943 151.353 25.9638 151.123 26.5118C151.623 26.3716 151.952 26.2824 152.032 26.2696C152.851 27.646 153.59 28.8438 154.289 30.0927C154.549 30.5642 154.688 31.5837 154.908 31.5965C155.887 31.6475 155.957 32.2846 155.887 33.2659C155.847 33.8903 155.967 34.5275 156.017 35.1647C156.796 34.3873 157.455 34.6931 158.004 36.0695C157.884 36.0567 157.774 36.044 157.654 36.0312C157.595 36.6811 157.535 37.3438 157.465 38.0065C159.302 39.0132 159.632 39.9435 158.943 41.8933C158.373 41.5874 157.794 41.2688 157.325 41.014C157.235 42.5687 156.067 42.6579 155.527 43.4352C155.378 43.6391 154.589 43.1294 153.83 42.8363C153.74 42.9637 153.45 43.4352 153.161 43.8813C152.412 43.3715 151.673 42.849 150.924 42.3393C150.874 42.4285 150.814 42.5177 150.764 42.6069C150.964 42.951 151.173 43.3078 151.483 43.843C150.904 43.9322 150.494 43.9832 150.095 44.0469C150.055 45.8055 149.675 46.3408 148.896 45.8055C149.086 45.6654 149.286 45.5252 149.665 45.2448C148.956 44.8753 148.577 44.6841 148.217 44.493C148.028 45.2831 147.888 45.9075 147.738 46.5447C147.269 44.4675 146.25 43.8048 144.492 44.6204C144.872 44.8115 145.171 45.0154 145.481 45.1174C145.751 45.2066 146.04 45.1683 146.32 45.1811C146.26 45.5379 146.25 45.9202 146.13 46.2516C145.681 47.5005 146.12 48.5709 146.5 49.6541C146.63 50.0364 146.859 50.355 147.039 50.6991C147.359 50.6608 147.788 50.6226 148.227 50.5716C148.267 50.7246 148.297 50.8775 148.337 51.0431C147.808 51.4892 147.269 51.9225 146.789 52.3302C147.329 52.7635 147.988 53.3752 148.707 53.834C149.046 54.0506 149.566 53.8595 149.895 54.0889C150.994 54.879 152.392 54.4967 153.44 55.6436C153.71 55.9367 154.499 55.4779 155.108 55.3505C155.098 55.4779 155.088 55.7965 155.078 56.1661C156.286 55.2485 157.664 55.8092 158.473 57.5169C158.713 57.0963 158.933 56.7013 159.162 56.2935C159.392 56.4591 159.612 56.6121 159.841 56.7777C159.941 56.166 160.011 55.6691 160.091 55.1975C160.63 55.2358 161.04 55.2613 161.549 55.2868C161.26 55.8347 161.04 56.268 160.94 56.4591H163.556C164.166 57.1983 164.645 57.7845 165.034 58.256C164.805 58.8804 164.555 59.5431 164.315 60.2185C164.755 60.0019 165.194 59.7852 165.703 59.5431C166.233 60.1293 166.872 60.8302 167.501 61.5311C167.112 61.9516 166.652 62.4614 166.203 62.9584C166.692 63.1878 167.002 63.3407 167.531 63.5955C167.122 63.9524 166.942 64.0671 166.802 64.2327C166.672 64.3856 166.482 64.6405 166.512 64.768C166.592 65.0738 166.742 65.5071 166.932 65.5581C167.641 65.7747 168.38 65.8766 169.339 66.055C168.869 66.4501 168.669 66.6158 168.48 66.7814C169.119 66.9981 169.848 67.0108 170.267 67.4696C170.697 67.8392 170.956 68.7439 170.996 69.4831ZM145.671 20.7135C144.942 20.6625 144.522 20.5478 144.143 20.6243C143.803 20.688 143.504 20.9683 143.124 21.185C143.364 21.4653 143.694 21.8349 144.043 22.23C144.482 21.8349 144.952 21.4016 145.671 20.7135ZM48.0641 2.9362C48.9029 2.85973 49.4522 2.80878 50.0114 2.7578C50.0813 2.93622 50.1612 3.12736 50.2311 3.30577C49.6919 3.70082 49.1626 4.10862 48.6233 4.50367C48.4236 3.9557 48.2338 3.39497 48.0641 2.9362ZM0.429077 58.4217C0.568886 57.1218 0.688726 56.0514 0.838522 54.726C1.69735 56.1788 1.51759 57.7845 0.429077 58.4217ZM82.9065 8.27575C82.7867 7.90619 82.9165 7.39643 82.9464 6.95041C83.5057 7.11607 84.0749 7.269 84.6341 7.43467C84.6841 7.61308 84.724 7.77875 84.774 7.95716C84.4144 8.41593 84.0549 8.88744 83.6954 9.34621C83.4158 9.00213 83.0463 8.69629 82.9065 8.27575ZM115.822 8.77277C116.461 6.86124 119.057 9.33345 119.137 6.03287C119.507 6.58084 119.726 6.91219 119.996 7.31998C118.108 9.66479 116.73 10.1363 115.822 8.77277ZM90.5061 9.00214C90.1266 8.53063 89.9868 7.7278 89.7571 7.06513C89.847 7.00142 89.9369 6.95042 90.0368 6.8867C90.1965 7.34547 90.3663 7.79152 90.556 8.33949C90.8956 7.94444 91.1253 7.66407 91.3749 7.37096C91.5647 7.74053 91.7045 8.00816 91.8942 8.37772C91.3749 8.64533 90.6659 9.1933 90.5061 9.00214Z" fill="#FFF2C7"/>
</svg>
