<svg width="136" height="63" viewBox="0 0 136 63" fill="none" xmlns="http://www.w3.org/2000/svg">
<path d="M2.26889 12.8052C1.51002 12.4394 0.751155 12.0737 3.05176e-05 11.7079C0.642745 12.6389 1.30094 13.4923 2.26889 12.8052ZM106.559 52.9588C106.551 53.1361 106.551 53.3024 106.544 53.4797C106.923 53.4797 107.302 53.513 107.674 53.4575C107.806 53.4354 107.922 53.1916 108.046 53.0475C107.906 52.9145 107.767 52.6707 107.635 52.6817C107.271 52.7261 106.923 52.8702 106.559 52.9588ZM1.47903 11.32C1.82749 11.0097 2.16047 10.6551 2.50118 10.3115C2.40826 10.1342 2.32308 9.95681 2.23015 9.77949C1.88169 10.1563 1.53325 10.5442 1.18479 10.921C1.28546 11.054 1.44805 11.3422 1.47903 11.32ZM136 29.6956C135.094 28.3767 135.861 26.947 135.985 25.6171C135.458 25.6836 135.001 25.739 134.544 25.8055C134.498 25.6725 134.451 25.5284 134.413 25.3954C135.264 25.2292 135.504 24.6529 135.233 23.8327C134.808 23.999 134.436 24.132 133.871 24.3425C134.265 23.5667 134.498 23.1123 134.753 22.6025C134.32 22.4584 134.025 22.3587 133.584 22.2035C133.948 21.7713 134.204 21.461 134.583 21.0066C134.165 20.4413 133.754 19.8872 133.143 19.067C133.104 18.2247 133.019 16.9058 132.407 15.7865C132.152 15.321 131.981 14.7447 131.85 14.1905C131.726 13.6918 131.71 13.1487 131.594 12.2067C130.727 13.8137 130.556 12.384 130.123 12.1512C129.658 11.9074 129.132 11.8742 128.528 11.7301V10.1009H127.769C127.838 10.5664 127.893 10.9321 127.97 11.4641C127.606 11.2314 127.141 11.1205 127.103 10.8767C126.855 9.25859 126.104 9.74625 125.236 10.0012C125.422 9.48026 125.554 9.11452 125.686 8.71553C125.569 8.33871 125.415 7.85105 125.306 7.51856C124.965 7.39665 124.462 7.3634 124.431 7.17499C124.276 6.29944 124.253 5.36846 124.191 4.53724C123.672 4.33774 123.2 4.14934 122.759 3.97201C122.859 3.51761 122.937 3.15186 123.053 2.66421C121.736 3.26269 119.924 2.88587 119.599 2.04357C119.646 1.84407 119.692 1.64457 119.847 0.946344C119.111 1.38966 118.593 1.68891 118.105 1.98815C118.097 1.94382 118.066 1.66675 118.02 1.28993C117.779 1.44509 117.586 1.69999 117.439 1.65565C116.099 1.27883 114.767 0.735775 113.389 1.30101C113.304 1.33426 113.195 1.38966 113.126 1.34533C112.429 0.902012 111.739 0.835516 110.965 1.03501C110.129 1.24559 109.246 1.15694 108.379 1.13477C108.108 1.12369 107.744 0.636033 107.581 0.769029C106.489 1.66675 105.343 0.536286 104.259 1.0461C104.097 1.12368 103.919 1.13476 103.686 1.19017C103.059 0.203785 102.308 1.52266 101.557 1.37858C100.759 1.22342 99.9461 1.34533 99.0013 1.34533C98.9781 1.301 98.8465 1.01285 98.8697 1.05718C98.2502 0.924184 97.8475 0.846605 97.3597 0.746858C96.9648 0.957435 96.4382 1.45617 95.9194 1.45617C95.1063 1.44509 94.2933 1.10151 93.4879 0.902019C93.3098 0.857687 93.062 0.669282 92.9691 0.769029C92.3419 1.48942 91.9625 0.902027 91.5675 0.303545C91.5366 0.259213 91.4514 0.292451 91.3275 0.292451V1.16802C90.7235 0.691448 90.1892 -0.893421 89.802 0.680363C89.1593 0.857691 88.7256 1.03502 88.2843 1.07935C87.8506 1.12368 87.4092 1.02393 86.9756 0.990685C86.6426 2.39822 85.9457 1.37858 85.4192 1.55591C85.0784 1.63349 84.7377 1.72216 84.397 1.79974L84.3428 1.434C84.4744 1.301 84.6061 1.16801 84.7377 1.03501C82.7786 1.93273 80.8814 1.7 79.023 0.458706C79.1391 1.52267 78.8294 1.92166 78.1557 1.6335C77.9002 1.52267 77.5749 1.23451 77.3813 1.35643C76.1037 2.16548 74.7872 1.09044 73.4244 1.68892C72.5339 2.07682 71.3569 1.12368 70.3037 0.813353C69.9011 0.69144 69.4519 0.503025 69.0725 0.636021C67.9884 0.990677 66.9275 1.50049 65.9519 1.89948C65.3711 1.62241 64.7516 1.33425 64.1321 1.03501C64.0934 1.14584 64.0547 1.25667 64.0237 1.37858C64.1166 1.56699 64.2018 1.76649 64.4031 2.19873C63.8766 1.79974 63.2106 2.52014 63.1177 1.26776C63.11 1.1791 62.8622 1.06827 62.7305 1.07935C62.6376 1.07935 62.4827 1.24558 62.4595 1.37858C62.2737 2.30955 61.9794 2.65313 61.4683 2.07681C60.663 1.15693 60.2216 1.55592 59.9429 2.28739C59.1917 2.34281 58.611 2.52014 58.0612 2.39823C57.4959 2.27632 56.9538 1.87733 56.4815 1.6335C56.5589 2.34281 56.6209 2.86371 56.6828 3.39569C56.6054 3.42894 56.528 3.45111 56.4505 3.48436C56.1485 2.98562 55.8465 2.49797 55.5213 1.9549C55.2658 2.36497 55.0954 2.64205 54.925 2.93021C54.6385 2.47581 54.3907 2.07681 54.1429 1.67782C54.7005 3.10753 53.3144 2.73072 53.5235 3.81685C52.7723 2.01032 52.7491 3.89443 52.5632 3.88335C52.0135 2.96346 51.5488 2.18764 50.9681 1.22342C50.3331 2.32063 49.8685 3.1297 49.3729 3.98309C49.2645 3.44002 49.1716 2.94128 49.0477 2.29847C48.7225 2.70854 48.4747 3.02995 48.3972 3.12969C47.2977 2.95237 46.3994 2.79721 45.323 2.61989C45.5476 3.22945 45.6715 3.57303 45.7954 3.90552L45.6638 4.13825C45.4392 3.96092 45.2146 3.79467 45.2301 3.80576C44.3473 4.01633 43.6737 4.18259 42.7754 4.40425C43.1548 3.77252 43.3639 3.41786 43.573 3.07429C43.542 3.04104 43.511 3.00778 43.4723 2.97453C43.2865 3.21836 43.0929 3.46219 42.907 3.70601C42.8838 3.53977 42.8529 3.3846 42.8296 3.21836C41.6913 2.61988 40.5453 2.01032 39.4457 4.34883V2.70855C39.0585 3.09646 38.8107 3.47327 38.5087 3.60627C38.3074 3.70602 37.8892 3.5841 37.804 3.37352C37.4943 2.59771 37.1613 2.53121 36.6735 3.00778C36.5264 3.15186 36.2863 3.28486 36.1392 3.21836C35.4345 2.88587 35.1015 3.16295 35.1867 3.91659C34.0097 4.01634 32.8559 4.11609 31.7873 4.21584C31.0904 4.06068 30.4322 3.91659 29.6811 3.76143C29.805 4.42641 29.8746 4.76998 29.9676 5.26872C29.5572 4.79215 29.2861 4.21584 28.9686 4.16042C28.202 4.03851 27.4045 4.11609 26.6301 4.21584C26.4133 4.238 26.2274 4.60373 26.0106 4.79214C25.8403 4.93622 25.6079 5.22438 25.484 5.15788C24.9962 4.88081 24.5316 4.4929 24.067 4.14933C24.0128 4.27124 23.9586 4.39315 23.9121 4.51507C24.1444 4.76998 24.3767 5.01381 24.64 5.30197C24.338 5.76745 24.1522 6.23293 23.8115 5.25763C23.6488 4.80322 23.1377 4.22692 22.6809 4.99164C22.0072 6.12211 21.2716 6.25511 20.4353 5.35738C20.3346 5.24655 20.1565 5.29088 19.9087 5.24655C20.0171 5.70095 20.0868 6.02236 20.2339 6.62084C19.5447 6.03345 19.0414 5.61229 18.5381 5.18005C18.1432 5.8007 17.8566 6.62083 17.454 6.76491C17.0358 6.90899 16.5015 6.39919 16.0137 6.18861C15.9285 6.15536 15.8278 6.13318 15.7427 6.14427C15.7039 6.14427 15.6652 6.23294 15.5491 6.37702C15.7659 6.54326 15.975 6.69843 16.1918 6.86467C16.1298 6.96442 16.0601 7.06416 15.9982 7.17499C15.8665 7.08633 15.7504 6.98657 15.611 6.92007C15.4484 6.84249 15.2703 6.80924 15.1077 6.76491C15.1232 7.15282 15.1387 7.48531 15.1541 7.74022C14.434 7.27473 13.7526 6.83142 13.0711 6.39919C12.8698 7.1085 12.7614 7.48532 12.6298 7.91755C12.382 7.71806 12.1806 7.64048 12.0722 7.45207C11.3753 6.24402 10.7248 6.39918 10.0511 7.48532C10.0124 7.55181 9.87305 7.48531 9.78787 7.47422C10.2912 7.6183 10.7945 7.7513 11.5147 7.96188C11.4915 8.1392 11.414 8.64903 11.3366 9.16994C10.9417 8.95936 10.5467 8.73769 9.96598 8.41628C9.89629 8.48278 9.64074 8.74877 9.2071 9.19209C9.10644 8.58253 9.02901 8.09488 8.95158 7.60723C8.58763 7.60723 8.22367 7.60723 7.9449 7.60723C8.01459 8.25004 8.07655 8.89285 8.16947 9.77949C7.40286 9.2475 7.47254 8.19463 6.65947 8.12813C5.22691 8.0173 5.23466 7.82889 4.832 8.59362C5.03333 8.63795 5.21144 8.68227 5.39729 8.72661C5.37406 8.84852 5.35856 8.98151 5.33533 9.10342C4.82425 8.8596 4.32092 8.60469 3.80985 8.36086C3.77887 8.50494 3.75565 8.66012 3.72468 8.80419C3.96473 8.90394 4.21252 9.01476 4.49903 9.13667C4.45257 9.56891 4.39836 9.97899 4.32092 10.6883C3.95698 10.1896 3.75564 9.81274 3.49236 9.59108C3.32974 9.447 3.06647 9.54674 2.84965 9.53566C3.29878 10.7991 2.70252 11.6082 2.23791 12.4727C2.20693 12.5281 2.27664 12.6943 2.29987 12.8162C2.74125 12.5613 3.17487 12.1956 3.63949 12.0626C4.66164 11.7633 4.66939 11.8188 4.81652 12.6167C3.84858 12.7497 2.95031 13.6696 2.86513 14.5784C3.07421 14.4787 3.29102 14.3789 3.51559 14.2681C3.56979 14.523 3.72467 14.8333 3.67047 15.0218C3.54657 15.454 3.32201 15.8197 3.14391 16.2076C2.88063 17.0499 3.23681 17.2494 3.80209 16.9391C3.69368 17.5154 3.60851 17.992 3.51559 18.4686H4.50676C4.35963 19.4328 4.20477 20.4192 4.02666 21.594C5.49794 21.1728 5.46696 22.6801 5.45147 24.1874C5.53665 24.1874 5.62184 24.1874 5.69927 24.1763C5.97804 23.6886 6.2568 23.1899 6.53557 22.7023C6.60526 22.7798 6.67497 22.8574 6.75241 22.935C6.59754 23.2675 6.45039 23.6 6.24906 24.0322C6.47362 24.1541 6.6827 24.3536 6.89952 24.3758C7.13957 24.3979 7.38736 24.2539 7.50351 24.2095C7.54997 25.074 7.58871 25.8166 7.61968 26.5037C7.3022 26.7586 6.91502 27.069 6.48138 27.4125C6.73692 28.2881 6.9847 29.1193 7.19377 29.8619C7.56546 29.7843 7.86747 29.7178 8.16947 29.6845C8.18496 29.6845 8.24689 30.1057 8.23141 30.1168C7.97587 30.2719 7.70485 30.3828 7.43382 30.5047C7.41834 30.9702 7.39512 31.5243 7.37964 32.0785C7.29446 32.1117 7.20926 32.145 7.11633 32.1671C6.88403 31.7238 6.65172 31.2916 6.48911 30.9702C6.1329 31.4467 5.77672 31.9233 5.34308 32.4996C5.49795 32.8653 5.69152 33.3198 5.88511 33.7631C5.41276 34.2951 4.97137 34.7938 4.52999 35.3036C4.83199 35.7026 5.07979 36.024 5.21918 36.2013C5.19595 36.8442 5.18045 37.2985 5.16497 37.764C5.61409 37.5313 6.06322 37.3096 6.54332 37.0658C6.79111 37.7973 5.97803 38.9167 4.79327 39.1716C4.83973 41.0778 4.83975 41.0779 3.4614 40.9116C3.50786 41.3328 3.55432 41.7317 3.60078 42.1861C3.1594 42.2305 2.71801 42.2748 2.41602 42.3081C2.16048 42.7735 2.0056 43.372 1.72683 43.5383C0.952472 43.9927 1.23899 44.5247 1.61068 45.1564C0.619504 45.6551 1.15381 46.708 1.30094 47.3841C1.42484 47.9382 1.99785 48.2929 2.43149 48.8027C2.24565 49.4677 1.40936 50.4097 2.51669 51.108C2.83417 51.0636 3.12841 51.0193 3.41492 50.986C3.32199 51.2299 3.22908 51.4848 3.13616 51.7286C3.624 51.8838 4.13509 52.05 4.64616 52.2163C4.63842 52.3382 4.63067 52.449 4.61518 52.5709C4.73133 52.5266 4.85522 52.4933 4.96363 52.4268C5.44373 52.0943 5.86963 51.6843 6.08645 52.9256C6.13291 53.1916 6.38845 54.3663 7.12408 53.8898C7.20152 53.8344 7.56547 54.5215 7.72808 54.9205C7.81326 55.1311 7.75132 55.4747 7.75906 55.7517C8.00686 55.7074 8.2624 55.6631 8.51794 55.6076C8.36307 55.2197 8.27788 55.0092 8.1927 54.7875C8.25465 54.721 8.3166 54.6545 8.37081 54.5769C8.99804 55.4636 9.13741 57.0263 10.1286 57.4142H8.81993C9.41618 58.1567 9.88079 58.733 10.3222 59.2872C10.3222 59.2539 10.3609 58.988 10.3996 58.6555C10.8642 58.8771 11.2514 59.0101 10.8333 59.8192C10.6242 60.2071 10.4925 60.6726 10.3454 61.0605C10.8875 61.2046 11.4063 61.3376 11.9483 61.4816V63C12.3897 62.2907 12.6917 61.803 13.0014 61.3043C13.0634 61.8363 13.1098 62.2685 13.1718 62.8338C14.0933 61.7255 15.4252 63.798 16.0602 61.7144C16.7648 62.1355 17.1055 61.8585 17.3998 60.4731C18.0503 62.1134 18.9949 62.0136 20.0171 61.5038C20.3578 62.5234 20.7218 62.6343 21.1786 61.9249C21.3412 61.6811 21.6045 61.4262 21.8214 61.4373C22.3015 61.4484 22.7738 61.6368 23.2462 61.7144C23.4398 61.7476 23.6333 61.6922 23.8269 61.6811C23.7727 61.3819 23.7263 61.0716 23.6876 60.861C24.0902 60.7723 24.5393 60.6726 25.0427 60.5617C24.1599 59.797 24.9188 59.5975 25.1124 59.1764C25.4221 59.6751 25.7938 60.0408 25.91 60.5285C26.1423 61.4927 26.5294 61.3043 26.9786 61.0162C27.1334 60.9164 27.2883 60.6171 27.4199 60.6393C28.295 60.8277 29.1622 61.0937 29.9443 61.3043C30.1224 60.8277 30.2773 60.4288 30.4322 60.0298L30.6258 60.1295C30.6722 60.462 30.7187 60.7834 30.8194 61.4373C30.9897 60.861 31.0749 60.5728 31.1601 60.2957C31.1988 60.4066 31.2298 60.5174 31.2685 60.6393C31.795 60.3401 32.3216 60.0519 32.8869 59.7305C33.1579 58.3008 33.2973 58.1678 34.1801 58.6887C33.8936 58.8217 33.6922 58.9104 33.4986 58.999C33.607 59.4756 33.7 59.8746 33.8239 60.4509C34.304 60.196 34.7299 59.9743 35.2177 59.7194V61.1713C35.5352 60.5728 35.7056 60.2625 35.7907 60.1184C36.5883 60.0298 37.2775 59.9633 37.9434 59.8857C37.7886 59.4867 37.6259 59.0655 37.3239 58.2676C38.3771 59.1209 38.9888 60.3844 40.1271 59.9079C41.0408 59.531 41.9236 59.2429 42.2566 57.7134C42.5663 57.6802 42.8916 57.6358 43.2245 57.5915C43.24 57.9018 43.2555 58.19 43.2942 58.7552C43.844 58.3451 44.2777 58.0016 44.719 57.6913C45.1449 57.392 45.5786 56.8822 45.9193 57.9129C45.9735 58.0681 46.3762 58.0681 46.593 57.9905C46.8021 57.9129 46.9724 57.6026 47.1815 57.4807C47.3441 57.392 47.5377 57.4363 47.7235 57.4142C47.6538 57.6691 47.5842 57.924 47.4757 58.3008C48.4592 58.3784 49.4116 58.4449 50.3951 58.5225C50.3331 58.323 50.2402 58.0348 50.155 57.7578C50.2092 57.6691 50.2634 57.5804 50.3176 57.5028C50.5499 57.7467 50.79 57.9905 50.9758 58.1789C51.998 57.9351 53.0898 57.6802 54.2436 57.4142C54.1197 57.0152 54.0345 56.7381 53.8642 56.184H55.8543C55.3974 56.8046 55.018 57.3033 54.6463 57.8021C54.6927 57.9351 54.7469 58.0681 54.7934 58.2011C55.4361 57.259 56.0246 57.0263 56.7216 58.0348C56.8919 58.2786 57.6198 58.1124 57.8831 57.7799C58.642 56.8489 58.8433 56.7824 59.5789 57.9018C60.2061 57.1703 60.6088 57.6026 60.9805 58.6887C61.1199 58.0459 61.2205 57.5915 61.3212 57.1371C61.6464 57.2036 62.1498 57.0928 62.2737 57.3588C62.5912 58.0237 62.746 58.2122 63.2184 57.5693C63.4972 57.1925 64.1012 57.3033 64.3567 56.9154C64.9297 56.051 64.8755 55.9734 65.5027 56.2837C65.3634 56.3835 65.193 56.4943 65.0149 56.6162C65.162 56.7935 65.3324 57.1593 65.4563 57.126C65.828 57.0484 66.2229 56.9044 66.5094 56.594C66.641 56.461 66.5171 55.8626 66.5249 55.4747C66.5326 55.0868 66.5636 54.6878 66.5791 54.2998C66.7727 54.3331 66.9663 54.3553 67.3767 54.4218C67.0205 54.721 66.8656 54.854 66.6565 55.0203C66.8191 55.4968 66.9663 55.9291 67.0515 56.195C67.547 55.652 67.9729 55.1865 68.3988 54.721C68.484 54.8762 68.5769 55.0313 68.6621 55.1865C68.3988 55.4968 68.1356 55.8182 67.849 56.1618C68.3291 56.0399 68.8402 57.0928 69.3048 56.0731C69.4442 55.7628 69.3668 55.253 69.3978 54.7321C69.6068 54.8651 69.8391 55.0092 70.056 55.1311C70.0172 55.6187 69.9863 56.0177 69.9321 56.7381C70.6522 56.2172 71.1865 55.8293 71.7131 55.4525C71.6898 55.3417 71.6589 55.2419 71.6356 55.1311C71.3491 55.1532 71.0703 55.1754 70.7838 55.1976L70.7141 54.721C71.14 54.6102 71.5659 54.4883 71.9918 54.3885C72.2474 54.322 72.5339 54.3774 72.7584 54.2223C73.014 54.0449 73.2153 53.7014 73.4399 53.4354C73.9974 54.3442 74.524 54.7432 75.2751 54.1669C75.4997 54.0006 75.8326 54.1336 76.1191 54.1336C76.0262 54.4772 75.9256 54.8208 75.7474 55.4636C76.8393 55.918 77.9002 56.3502 78.8604 56.7492C79.1856 56.1507 79.4644 55.652 79.7276 55.1643C79.4411 55.0646 79.1004 54.9538 78.752 54.8318C78.7674 54.7099 78.7907 54.5769 78.8062 54.455C79.1546 54.5548 79.5495 54.5437 79.8438 54.7875C80.0916 54.9981 80.231 55.4968 80.5098 56.051C80.7653 54.2888 80.4013 54.0117 82.0197 53.9452C82.3372 53.4908 82.5076 53.2581 82.6934 52.9921C83.0883 53.9563 83.4291 54.7764 83.8317 55.7517C84.1027 55.7074 84.5441 55.6409 85.0629 55.5522C84.9158 55.12 84.8229 54.8429 84.6913 54.455C85.334 54.8983 85.8915 55.4746 86.3406 54.2334C86.4336 53.9674 86.9369 53.7457 87.1382 53.8676C87.7887 54.2666 88.1604 53.7235 88.5785 53.2359C88.6405 53.1583 88.7334 53.1361 88.8108 53.1029C88.9425 53.4021 89.0664 53.6792 89.2445 54.1004C89.5465 53.646 89.7865 53.2802 90.0111 52.9366C91.1881 53.9452 92.3342 53.3024 93.6196 52.9145C93.7202 53.1029 93.8983 53.4354 94.0532 53.7235C94.6185 53.38 95.2457 53.0142 95.8652 52.6374C95.9349 52.8591 96.0123 53.0807 96.082 53.3024C95.7336 53.5462 95.3851 53.79 94.9824 54.0671C95.2922 54.6102 95.6019 55.1422 95.9426 55.7406C96.1053 55.5744 96.2679 55.4192 96.5234 55.1754C96.2292 55.0313 96.051 54.9538 95.8807 54.8651V54.6545C96.5699 54.4661 97.259 54.2888 97.9482 54.1004C97.9327 53.9563 97.9173 53.8122 97.9018 53.6681H96.3763C96.3608 53.5019 96.353 53.3356 96.3376 53.1694C97.0112 53.0918 97.6849 52.9921 98.3586 52.9588C98.4051 52.9588 98.467 53.4021 98.4361 53.2913C99.2027 53.1029 99.977 52.9145 100.744 52.7261C100.767 52.8369 100.798 52.9588 100.821 53.0696C100.635 53.3024 100.449 53.5241 100.24 53.779C100.883 54.056 101.472 54.3109 102.052 54.5658C102.014 54.3996 101.975 54.2334 101.936 54.0671C102.447 53.5905 103.206 54.2666 103.934 53.8233C103.315 53.524 102.85 53.2913 102.223 52.9921C103.632 52.05 104.515 53.0364 105.374 54.1336C105.428 54.0228 105.49 53.9119 105.545 53.8011C105.289 53.5462 105.026 53.2913 104.739 53.0142C104.917 52.6374 105.088 52.2717 105.305 51.8173C105.452 52.2163 105.545 52.4712 105.715 52.9366C106.048 52.3492 106.319 51.8616 106.582 51.3961C107.233 51.6732 107.891 51.9613 108.549 52.2495C108.549 52.3493 108.549 52.4601 108.541 52.5598C109.045 52.1608 109.548 51.7619 110.284 51.1745C110.81 51.6843 111.623 52.4601 112.444 53.247C112.498 53.1583 112.56 53.0586 112.615 52.9699C112.367 52.7261 112.127 52.4712 111.856 52.1941C112.034 52.1276 112.189 52.0611 112.274 52.0278C112.127 51.6621 111.987 51.3296 111.848 50.986C111.887 50.8641 111.925 50.7422 111.964 50.6203C113.342 52.715 114.008 50.853 114.744 49.7447C114.899 50.1659 115.007 50.4651 115.116 50.7755C115.317 50.5316 115.518 50.2989 115.751 50.0107C115.898 50.1437 116.115 50.3432 116.153 50.3765C117.036 49.778 117.756 49.2903 118.585 48.7251V50.31C119.274 49.8999 119.824 49.3679 120.405 49.2903C120.954 49.2128 121.535 49.6117 122.201 49.8223C122.379 50.0329 122.673 50.3765 122.968 50.7311C123.037 50.6757 123.107 50.6203 123.169 50.576C122.991 49.3568 123.425 48.3705 124.106 48.8359C125.066 49.4788 125.825 48.4259 126.677 48.7362C126.77 48.7694 126.917 48.5478 127.157 48.3372C126.832 48.2707 126.638 48.2375 126.452 48.2042C126.452 48.049 126.452 47.8828 126.452 47.7276C126.754 47.7498 127.165 47.6168 127.335 47.8496C127.598 48.2042 127.699 48.8027 127.924 49.4455C128.171 48.581 128.504 47.9715 128.473 47.4062C128.435 46.6748 128.473 46.2204 129.008 46.3644C129.17 46.4088 129.255 47.107 129.441 47.7276C129.565 47.7166 129.976 47.8606 130.123 47.6501C130.525 47.0627 130.874 46.8743 131.385 47.3176C131.462 47.3841 131.826 47.107 131.834 46.9629C131.873 46.4088 131.819 45.8435 131.803 45.3005C131.408 45.6662 130.998 46.043 130.595 46.4198C130.541 46.3201 130.494 46.2204 130.44 46.1206C130.611 45.5775 130.773 45.0234 131.005 44.2698C130.564 44.5136 130.339 44.6466 129.929 44.8682C130.107 44.2808 130.208 43.9373 130.301 43.6158C131.726 44.0924 131.811 44.0259 132.423 42.1751C132.059 42.5408 131.71 42.8955 131.369 43.239C131.315 43.1725 131.261 43.106 131.215 43.0395C131.338 42.3746 131.455 41.7207 131.578 41.0557C131.517 41.0224 131.455 41.0003 131.393 40.967C131.207 41.3771 131.013 41.7982 130.812 42.2305C130.185 40.7786 130.44 39.4819 131.493 38.8613C131.129 38.6063 130.796 38.3736 130.456 38.1409C130.773 36.822 130.572 36.2678 129.627 35.9575C129.689 36.2678 129.743 36.5449 129.844 37.0436C129.434 36.6668 129.162 36.423 128.659 35.9575C129.635 35.4809 130.386 35.1152 131.129 34.7495C131.114 34.6608 131.098 34.5721 131.083 34.4835H129.108C129.124 34.4391 129.209 33.9958 129.294 33.9958C130.03 33.9847 130.758 34.0623 131.455 34.1067C131.935 33.5525 132.593 32.3334 132.926 32.4996C134.01 33.0205 133.383 31.9676 133.421 31.7903C134.335 31.0256 135.148 30.3717 136 29.6956ZM2.26889 12.8052L2.28436 12.8162C2.28436 12.8162 2.28436 12.8051 2.27661 12.7941L2.26889 12.8052Z" fill="#FFDFD8"/>
</svg>
