<svg width="453" height="167" viewBox="0 0 453 167" fill="none" xmlns="http://www.w3.org/2000/svg">
<path d="M236.089 145.042C235.462 145.042 234.544 145.042 233.651 145.042C232.71 145.476 231.744 145.887 230.73 146.37C231.841 148.156 234.568 147.19 236.089 145.042ZM295.57 128.578C295.015 129.858 294.629 131.306 294.194 132.706C294.58 133.02 294.967 133.334 295.353 133.648C295.715 132.899 296.149 132.199 296.415 131.403C296.681 130.582 296.777 129.616 296.97 128.723C296.463 128.651 295.691 128.289 295.57 128.578ZM450.38 86.9128C450.79 85.8506 451.128 84.9816 451.635 83.6539C450.742 83.7263 450.187 83.7021 449.656 83.7987C447.628 84.1849 445.576 85.1264 443.572 84.9091C441.665 84.716 439.565 83.8953 437.996 82.3503C435.703 80.1294 433.651 80.4674 431.816 81.433C431.213 80.4191 430.754 79.019 430.271 78.9949C428.678 78.8741 427.061 79.4776 425.492 79.3811C424.26 79.3087 423.053 78.6086 421.846 78.1982C421.822 77.9085 421.798 77.5947 421.774 77.305C420.784 78.3431 419.819 79.3811 418.829 80.395C417.598 78.6086 413.808 78.6569 412.432 80.4432C411.877 79.4052 411.321 78.3913 411.032 77.8361C409.752 78.7052 408.352 80.3225 407.894 79.8639C406.059 78.0051 405.142 80.057 403.862 81.4089C403.597 79.188 403.886 75.8084 401.496 77.1602C400.338 77.812 399.541 79.9122 398.431 81.602C398.286 80.0329 398.165 78.7776 398.069 77.6671C396.524 78.9466 395.148 80.1053 394.085 80.9743C393.265 80.1536 392.299 78.5362 391.744 78.8017C390.102 79.5983 388.606 81.1433 387.037 82.3986C386.095 80.2501 384.695 80.1053 382.667 81.0467C381.219 81.7227 379.457 80.9019 377.912 80.7571C378.056 81.3606 378.201 82.0123 378.37 82.6641C377.26 82.9297 375.98 82.6158 375.449 83.4366C373.808 85.9954 372.432 84.9091 370.863 83.509C370.452 83.1469 369.801 82.9538 369.39 83.1952C368.087 83.9918 366.831 85.0057 365.673 85.8747C365.769 84.2091 365.842 82.64 365.938 81.1192C363.041 83.0262 360.652 84.5953 358.986 85.6575C357.417 85.4885 356.451 85.5609 355.534 85.2471C354.544 84.9091 353.627 84.2332 352.613 83.6539C351.865 83.9194 350.513 85.054 349.982 84.4746C347.881 82.1813 346.699 82.8331 346.288 85.4643C344.912 86.5024 344.019 87.1783 342.836 88.0715C342.015 88.0715 340.639 88.2163 339.288 88.0232C337.719 87.8059 335.618 89.9785 334.749 85.9954C333.542 87.6611 332.359 89.3509 330.911 91.3545C330.79 91.3304 330.114 91.1373 329.245 90.92C329.825 87.8784 330.38 84.9574 330.959 81.8916C331.973 82.9779 333.108 84.3781 333.88 80.9985C334.073 81.1192 334.291 81.2157 334.484 81.3364C334.604 82.8331 334.749 84.3298 334.87 85.8023C335.353 85.2954 336.294 84.6195 336.246 84.3298C335.401 79.2362 339.336 80.226 339.964 77.1843C339.698 78.3672 339.408 79.5259 339.143 80.7088C339.336 80.9502 339.505 81.2157 339.698 81.4571C341.75 80.1294 343.778 78.8017 346.095 77.305C346.023 77.1602 346.337 77.7637 346.337 77.7878C348.63 77.2326 350.537 76.7498 352.444 76.2912C353.796 75.9532 355.22 75.9532 356.089 74.8669C357.731 72.8391 358.889 73.2495 360.145 76.0256C361.062 73.8772 361.834 72.1149 362.679 70.1355C363.066 71.2942 363.404 72.3805 363.959 74.1186C364.321 72.3081 364.514 71.2218 364.731 70.1355C366.397 69.9423 368.521 72.2115 369.149 67.9629C372.215 69.6285 374.87 68.2284 375.425 65.4282C376.367 65.235 377.139 65.0902 377.887 64.9454C377.912 64.6315 377.96 64.3177 377.984 64.0039C376.97 63.1107 375.932 62.1934 374.918 61.3244C380.953 58.1379 381.508 57.0757 379.481 52.7305C380.157 52.4891 380.833 52.2477 380.905 52.2236C380.157 50.1234 379.239 48.2405 378.877 46.1644C378.708 45.2471 379.626 43.8711 380.253 42.1331C380.277 42.2055 380.084 41.4089 379.722 39.7673C380.615 40.8778 381.026 41.3606 381.557 42.0124C381.484 40.8295 381.436 39.9605 381.34 38.1258C382.209 39.8156 382.643 40.7088 383.126 41.6261C383.802 40.7571 384.333 40.057 384.743 39.5259C384.285 38.3672 383.826 37.4499 383.512 36.436C383.174 35.3739 382.981 34.2151 382.643 32.7909C380.446 37.7637 379.481 30.9321 377.743 33.0806C377.912 31.2701 378.032 29.9906 378.177 28.2043C377.429 28.7836 376.97 29.1457 376.463 29.532C376.27 28.5181 376.077 27.5284 375.884 26.5386C375.763 26.5628 375.643 26.5869 375.546 26.611C375.546 27.9387 375.546 29.2664 375.546 30.4252C373.301 30.232 371.08 30.0631 368.907 29.8941C369.052 30.7873 369.149 31.3908 369.245 32.0184C367.773 32.4046 366.445 35.7601 364.755 32.3805C364.49 31.8494 363.741 31.6563 363.21 31.6804C362.003 31.7529 360.796 31.946 359.614 32.3805C359.131 32.5495 358.817 33.5634 358.334 33.9255C357.755 34.36 356.813 35.0359 356.475 34.6497C354.617 32.7185 353.675 33.0564 353.144 35.6394C350.827 36.0015 348.63 36.3153 345.878 36.7257C344.864 35.4946 343.802 36.2188 343.295 39.8398C341.895 39.5018 340.471 39.1638 339.529 38.9466C338.974 40.564 338.515 41.8434 338.056 43.1228C336.777 40.9261 335.908 39.4294 335.522 38.7776C333.277 39.6225 331.684 40.2019 329.728 40.9261C329.704 41.0709 329.583 42.0365 329.463 43.1952C328.811 41.602 328.28 40.2501 327.556 38.4638C328.835 37.5947 330.187 36.6774 331.708 35.6153C331.346 34.1186 330.935 32.3322 330.452 30.3769C332.046 27.8905 331.563 24.9212 329.125 22.6521C329.704 21.3727 330.235 20.1415 330.863 18.7655C331.104 19.1759 331.37 19.6346 331.949 20.6485C330.79 14.3721 335.474 18.7897 335.208 15.1928C334.942 12.803 334.653 10.4372 334.508 9.13368C333.663 9.06126 332.553 9.42336 332.287 8.86814C330.163 4.30568 328.738 4.08842 326.373 8.26464C324.49 5.27128 309.789 8.81986 307.93 12.6581C303.874 8.31292 300.277 17.0516 296.029 13.7686C296.367 14.8066 296.681 15.8687 297.091 17.1482C294.411 17.3413 291.104 10.8959 289.414 18.7655C289.149 18.0896 288.811 17.1964 288.497 16.424C286.928 17.293 285.528 18.4759 284.055 18.7897C280.531 19.5622 276.958 19.9001 273.603 22.0244C272.685 22.6038 271.792 23.3039 270.899 23.9315C269.764 23.3763 268.268 22.6521 267.278 23.4246C264.647 25.5247 261.171 23.0383 258.974 27.0697C258.95 27.118 258.805 27.0938 258.732 27.0214C256.874 25.0419 255.715 27.987 254.218 28.4215C253.832 27.7456 253.446 27.0697 253.204 26.6352C251.925 27.7939 250.887 28.7595 249.752 29.7975C250.139 27.3835 250.477 25.2592 250.839 22.8211C249.487 23.0383 248.594 23.159 247.676 23.3039C247.507 23.0142 247.314 22.7245 247.145 22.4107C248.714 18.5 250.308 14.6135 251.804 10.8718C252.915 11.0407 253.832 11.1856 254.798 11.3546C253.977 6.84038 253.977 6.74382 251.49 7.00936C249.97 7.1542 248.811 7.34732 250.404 4.47466C250.597 4.1367 249.97 2.6883 249.632 1.8434C249.559 1.69856 249.052 1.93996 248.787 2.01238C248.642 3.24352 248.545 4.2574 248.401 5.4644C247.556 5.07816 246.88 4.7402 246.18 4.42638C246.349 4.18498 246.542 3.94358 246.711 3.72632C246.011 2.35034 245.287 0.974354 244.876 0.177734C242.704 1.40887 241.134 2.30205 239.541 3.19523C239.42 2.49517 239.3 1.77098 239.179 0.950223C238.069 2.15722 237.103 3.19524 236.258 4.11256C235.727 3.14696 235.341 2.49518 234.979 1.8434C234.399 2.88142 233.82 3.8953 233.216 4.95746C232.758 4.40224 232.13 3.67804 231.72 3.14696C228.509 5.07816 225.902 9.27852 222.064 6.1886C221.726 7.37146 221.388 8.50603 221.05 9.66475C221.098 9.30266 221.122 8.91642 221.171 8.55432C219.867 8.07152 218.346 6.76796 217.332 7.37146C216.27 8.02324 215.667 10.5097 214.87 12.1753C211.153 8.21636 210.404 7.90254 207.725 9.30266C207.58 7.97496 207.435 6.69553 207.242 5.00573C206.325 5.46439 205.552 5.87478 204.973 6.16446C204.442 5.24714 203.862 3.4125 203.235 3.36422C200.241 3.07454 197.2 2.73658 194.375 4.95746C194.061 5.19886 193.506 4.71606 193.048 4.54708C192.468 4.2574 191.744 4.2574 191.044 4.2574C189.306 4.2574 187.592 4.23326 185.878 4.35396C185.757 4.35396 185.661 5.51268 185.685 5.36784C183.536 6.35758 181.629 7.20248 179.215 8.31292C179.07 8.04738 178.515 7.05764 177.96 6.04376C176.85 8.07152 175.715 10.1717 173.422 8.55432C172.794 8.1198 171.684 9.25438 170.549 9.76132C171.394 10.5579 171.925 11.0166 172.408 11.5718C172.456 11.6201 172.046 12.7305 171.997 12.7064C171.442 12.4409 170.959 11.9581 170.404 11.6684C169.221 11.089 168.039 10.5821 166.638 9.9303C166.349 12.0788 166.131 13.841 165.914 15.3859C163.886 15.3859 161.907 15.3859 159.927 15.3859C159.927 15.6756 159.952 15.9653 159.952 16.2791C159.396 15.6273 158.841 14.9756 158.793 14.9273C157.731 15.7963 157.127 16.3033 156.5 16.8102C155.437 13.8168 153.941 15.048 152.661 16.1101C151.43 17.124 150.344 18.5724 149.209 19.8277C148.775 17.7758 148.026 18.2103 146.844 19.6346C145.926 20.745 144.671 21.3727 143.488 21.8072C142.426 22.1934 141.267 21.9762 140.157 22.1693C139.481 22.29 138.853 22.6762 138.298 22.8935C137.767 23.8349 137.163 24.873 136.487 26.08C136.029 25.2109 135.691 24.5591 135.57 24.3177C134.508 24.8005 133.639 25.5972 132.842 25.4765C130.332 25.0661 129.221 27.5525 128.473 29.194C123.5 31.946 118.117 30.3286 114.858 37.9327C114.568 36.6774 114.399 35.9774 114.158 34.9393C113.603 35.8567 113.217 36.5084 112.806 37.1602C112.685 36.6533 112.565 36.267 112.541 36.1463C110.778 36.7257 109.234 37.1361 107.737 37.7637C105.95 38.4879 104.381 39.5984 104.574 43.0745C104.574 43.2194 104.381 43.3883 104.188 43.7263C103.657 43.4849 103.078 43.2435 102.498 42.978C102.354 42.6159 102.185 42.2538 102.04 41.9158C102.764 41.5296 103.488 41.1433 104.212 40.7571C103.947 40.3226 103.681 39.888 103.416 39.4294C102.523 40.5157 101.654 41.6503 100.712 42.64C100.374 43.0021 99.8672 43.0262 99.4327 43.2435C98.2257 43.847 96.9945 44.4022 95.8117 45.0781C94.7978 45.6334 93.808 46.3093 92.5527 47.0576C92.5527 47.2025 92.5527 47.7094 92.5527 48.5543C90.9836 44.6678 88.5696 52.1753 87.5075 46.5507C85.9384 50.9442 83.0416 50.3889 81.0621 51.3304C80.6758 53.0443 80.3862 54.4203 80.0723 55.8204C79.9034 55.748 79.7344 55.6756 79.5413 55.6273C79.4205 54.3238 79.2998 53.0202 79.0826 50.5579C77.8756 53.3823 77.079 55.1687 76.3065 56.9792C76.2824 56.6171 76.2341 56.2791 76.21 55.917C74.1822 55.748 72.1544 55.6032 70.1025 55.4342C70.5129 56.1584 70.9233 56.8826 71.3337 57.6068C70.4405 57.8482 69.4749 57.8965 68.6542 58.4034C67.9782 58.8138 67.4471 59.7311 66.7471 60.5277C66.3608 59.9725 65.8297 59.2483 65.2021 58.331C64.7676 59.3932 64.4055 60.2622 64.3331 60.407C62.426 60.9381 60.9776 61.3485 59.4327 61.783C58.2981 66.3696 55.5703 65.0178 53.8805 64.8005C53.2287 66.5869 52.7941 67.7697 52.3838 68.9767C52.1906 68.856 52.0217 68.7595 51.8286 68.6388C51.7562 67.8422 51.6596 67.0455 51.4906 65.3316C48.7386 67.987 46.2522 70.401 44.3934 72.1632C42.6795 72.4046 41.4725 72.2356 40.4827 72.815C39.2033 73.5633 38.0687 75.9049 36.91 75.8083C34.9305 75.6635 34.0133 76.4843 33.8684 79.4776C31.72 76.8222 31.2854 77.0878 30.175 81.1916C25.8781 80.0329 22.0156 82.6158 18.4429 85.2471C14.8702 87.8542 11.1285 90.7993 8.54551 96.2549C8.23169 95.8928 7.70064 95.0721 7.073 94.6859C6.63848 94.4203 5.64873 94.5169 5.55217 94.879C4.92453 96.9309 4.49003 99.1276 3.98308 101.276C2.92093 101.711 1.83464 102.121 0 102.869C1.23114 104.318 1.97944 105.259 2.75192 106.176C4.20032 109.218 3.13816 109.749 1.61734 109.363C2.70364 111.125 5.02112 113.25 4.90042 115.012C4.65902 118.488 5.91427 119.647 7.29025 120.467C8.49725 121.216 10.0181 120.854 11.3941 120.974C11.4424 120.636 11.4906 120.274 11.5389 119.936C12.3838 120.926 13.2046 121.916 14.0495 122.881C13.9529 123.195 13.8322 123.533 13.7357 123.847C12.9873 123.799 12.2148 123.75 11.4665 123.702C11.3217 123.992 11.1768 124.257 11.032 124.547C11.6838 125.416 12.2872 126.84 13.0114 127.009C13.8563 127.202 14.8219 126.285 15.7393 125.875C17.4773 125.126 12.9632 123.678 15.4496 122.23C17.2842 123.509 18.7809 125.175 20.3742 125.416C21.1708 125.537 22.1364 123.026 23.0778 121.602C24.2366 124.112 25.2746 126.382 26.554 129.182C25.5401 128.892 25.1056 128.772 24.6711 128.651C24.6469 129.061 24.5986 129.447 24.5745 129.858C25.2504 129.954 25.9505 129.979 26.6023 130.172C27.3989 130.389 28.7024 130.461 28.8473 131.113C29.7404 134.807 30.9475 134.613 32.758 131.91C30.7785 137.076 31.7923 141.421 34.0615 145.645C34.4719 144.897 35.0754 143.835 35.6789 142.797C36.0169 143.714 35.8479 144.438 35.7513 145.187C35.6548 146.056 35.6548 146.925 35.6065 148.615C37.1997 147.528 38.3343 146.78 39.4447 146.032C39.4206 146.176 39.4206 146.321 39.3965 146.466C41.6898 145.935 43.983 145.38 46.1315 144.873C46.2281 145.983 46.3487 147.311 46.4212 148.035C48.5455 146.104 50.4767 144.1 52.5527 142.507C53.8563 141.493 55.353 140.986 56.8014 140.455C57.8394 140.093 58.9257 140.069 60.012 139.876C59.8913 138.91 59.843 138.669 59.843 138.452C59.9154 137.1 59.6741 135.362 60.1327 134.493C61.2673 132.344 63.0537 132.755 62.6192 134.951C62.0639 135.12 61.4604 135.289 60.8328 135.482C60.9534 136.52 61.0259 137.317 61.0983 137.993C64.0676 139.007 65.2987 135.555 66.3608 133.648C68.0748 135.217 69.5473 136.593 71.3578 138.259C71.3578 134.686 71.3578 132.224 71.3578 129.616C72.1786 130.437 73.3855 131.62 74.8581 133.068C72.4924 133.6 72.1062 135.313 73.0235 137.945C73.8925 137.558 75.2202 136.496 75.5099 136.931C77.8032 140.6 77.8274 137.607 77.8515 135.41C78.9378 136.617 79.9999 137.776 81.2069 139.128C81.1828 139.635 81.3276 141.059 81.0621 142.266C80.362 145.476 82.0035 146.708 83.2347 147.77C84.3934 148.784 88.3765 151.705 89.1732 152.598C89.5353 153.008 90.7181 152.887 90.8871 152.453C92.6252 148.035 93.2769 147.794 95.7151 151.318C96.8738 149.411 98.0084 147.528 99.1912 145.597C100.374 149.339 101.412 149.604 104.405 147.07C103.705 146.539 103.005 146.007 102.136 145.332C104.285 143.087 106.988 148.88 108.413 143.618C108.968 144.269 109.306 144.68 109.354 144.728C109.765 143.111 110.151 141.686 110.513 140.262C111.044 141.179 111.575 142.121 112.106 143.038C111.961 143.256 111.816 143.497 111.672 143.714C112.372 143.835 113.072 143.956 113.917 144.1C114.52 141.711 115.148 139.297 115.824 136.665C116.572 138.234 117.345 139.852 118.141 141.445C118.479 141.107 118.793 140.793 119.131 140.455C118.552 139.055 117.972 137.655 117.151 135.676C118.552 136.255 119.59 136.665 120.7 137.1C120.7 138.476 120.7 139.707 120.7 140.914C122.221 137.655 124.104 136.376 126.421 136.617C127.845 136.762 129.342 136.231 130.766 135.651C131.201 135.482 131.804 133.672 131.66 133.431C130.259 130.944 131.925 130.751 132.722 130.896C133.929 131.041 135.16 131.186 136.487 131.354C136.656 131.91 136.946 132.779 137.477 134.444C137.912 131.379 138.226 129.182 138.588 126.671C140.76 128.603 142.716 130.341 144.599 132.03C144.526 130.244 144.116 128.699 144.454 127.709C145.757 123.75 147.085 123.63 149.089 126.84C149.789 127.975 150.682 128.892 151.478 129.882C151.72 129.834 151.961 129.785 152.203 129.737C151.213 125.754 152.396 124.088 154.617 123.292C154.351 124.45 154.134 125.392 153.917 126.454C156.548 127.54 156.524 124.209 157.344 122.085C157.876 123.026 158.286 123.775 158.648 124.426C161.159 122.23 163.548 120.154 166.228 117.812C166.421 118.053 166.976 118.681 167.725 119.574C166.445 120.419 164.997 120.733 164.852 121.578C164.2 125.368 162.076 124.74 160.845 125.271C160.507 126.768 160.265 127.806 160.072 128.627C160.579 130.075 161.062 131.523 161.617 133.165C157.731 132.996 155.51 134.42 155.075 138.548C154.737 141.542 154.955 145.042 156.379 147.866C156.838 148.808 157.079 149.991 157.344 150.884C156.355 150.884 155.582 150.884 155.293 150.884C155.993 153.491 156.548 155.519 157.224 158.126C157.9 156.146 158.334 154.891 158.793 153.539C159.638 156.291 160.096 158.85 161.086 160.781C161.931 162.423 163.331 164.112 164.611 164.33C165.89 164.547 167.507 163.34 168.594 162.036C170.356 159.888 171.346 161.433 173.06 163.437C171.032 163.388 168.739 161.771 169.149 166.333C170.525 165.826 171.925 165.657 173.06 164.788C174.194 163.895 175.087 162.278 176.56 160.395C176.27 162.592 176.125 163.678 176.005 164.716C177.115 163.195 178.153 161.795 179.433 160.033C179.65 161.433 179.771 162.157 179.988 163.581C181.098 161.288 181.967 159.502 182.909 157.546C183.464 157.981 184.092 158.464 184.695 158.947C184.695 158.681 184.671 158.391 184.671 158.126C185.781 157.643 186.916 157.16 188.026 156.677C188.171 157.064 188.316 157.45 188.485 157.836C188.195 158.029 187.882 158.246 187.592 158.44C188.34 160.226 190.803 160.612 191.913 159.164C192.203 158.802 192.565 158.56 192.927 158.343C193.651 157.909 194.399 157.522 195.124 157.112C195.075 156.822 195.027 156.533 194.979 156.243C196.041 157.136 197.127 158.005 198.189 158.874C198.334 158.512 198.455 158.174 198.6 157.812C198.141 157.088 197.682 156.364 196.886 155.084C198.093 154.312 199.107 153.66 200.41 152.839C200.29 154.698 200.193 155.929 200.048 158.102C202.655 156.46 205.069 155.567 206.928 153.539C208.811 151.487 209.342 153.008 210.114 154.891C213.88 152.912 208.473 150.063 210.766 147.408C211.587 149.049 212.36 150.667 213.325 152.598C213.929 150.498 214.58 148.277 215.232 146.056C215.474 146.201 215.715 146.345 215.956 146.49C215.787 147.528 215.594 148.566 215.256 150.57C217.912 148.373 220.133 146.563 222.45 144.656C222.571 146.08 222.643 147.214 222.74 148.47C222.088 148.421 221.46 148.349 220.809 148.301C220.76 148.494 220.736 148.711 220.688 148.904C221.991 149.918 223.295 150.932 224.912 152.187C224.212 147.697 225.468 144.752 228.509 143.738C227.447 145.863 226.65 147.48 225.83 149.073C226.023 149.266 226.192 149.46 226.385 149.653C227.592 148.832 228.775 147.987 229.644 147.408C229.813 145.501 229.837 143.787 230.151 142.217C230.247 141.711 231.382 141.083 231.551 141.324C232.299 142.338 232.903 143.642 233.53 144.849C235.075 140.817 237.103 142.314 239.131 143.859C238.841 144.632 238.551 145.452 238.238 146.249C238.6 146.732 238.938 147.19 239.3 147.673C240.217 145.597 241.159 143.521 242.269 141.035C242.921 142.749 243.355 143.907 243.983 145.573C244.417 143.738 244.755 142.411 245.069 141.107C245.142 141.155 245.214 141.155 245.286 141.252C246.059 142.193 246.807 143.135 247.58 144.1C247.242 142.966 246.687 141.855 246.59 140.648C246.469 139.248 246.759 137.8 246.856 136.376C247.531 137.752 247.676 138.862 247.894 139.948C247.894 139.997 248.811 139.876 248.859 139.61C249.535 136.327 250.549 138.524 251.394 139.297C251.973 139.828 252.456 140.624 253.229 141.614C253.47 139.803 253.639 138.572 253.904 136.738C254.677 139.007 255.208 140.552 255.908 142.628C256.439 140.552 256.753 139.297 257.115 137.921C257.815 138.838 258.37 140.069 258.757 139.972C260.495 139.538 262.185 138.741 263.898 138.065C264.092 137.993 264.285 138.017 264.478 137.969C265.371 137.776 266.506 138.017 267.085 137.269C268.292 135.676 269.185 133.551 269.958 132.103C271.044 133.165 272.251 134.348 273.651 135.676C273.627 135.796 273.482 136.641 273.313 137.462C273.434 137.583 273.579 137.703 273.699 137.8C274.23 136.738 274.761 135.676 275.389 134.42C275.751 135.241 275.993 135.869 276.234 136.424C277.996 134.541 276.934 133.696 275.437 132.996C275.631 132.658 275.848 132.296 276.041 131.958C277.658 132.658 279.251 133.358 281.038 134.155C280.531 132.537 280.169 131.354 279.783 130.051C280.821 129.544 281.714 129.085 282.172 128.868C283.452 131.017 284.586 132.972 285.89 135.169C286.035 132.562 286.131 130.679 286.252 128.82C285.793 128.434 285.238 127.999 284.683 127.54C284.828 127.178 284.997 126.792 285.142 126.43C286.228 127.347 287.314 128.216 288.376 129.182C289.511 130.22 290.597 131.379 291.708 132.489C291.949 132.248 292.166 132.006 292.408 131.765C292.408 130.63 292.287 129.447 292.456 128.361C292.577 127.516 293.011 126.189 293.422 126.116C294.556 125.875 295.739 126.213 296.898 126.189C298.443 126.14 299.988 125.971 301.629 125.851C301.098 127.154 300.543 128.482 299.988 129.81C300.857 130.292 301.605 130.703 303.005 131.475C302.378 129.737 302.04 128.82 301.533 127.42C302.86 127.42 303.995 127.42 304.84 127.42C305.202 126.358 305.492 125.488 305.878 124.33C306.457 126.72 306.288 129.52 308.606 129.206C307.399 125.271 307.978 122.592 309.209 122.688C309.547 124.402 309.813 125.802 310.054 127.033C313.168 124.885 315.944 122.978 319.058 120.829C319.3 121.457 319.879 122.906 320.314 124.04C321.183 123.171 321.931 122.423 322.245 122.109C323.476 122.833 324.224 123.268 325.117 123.799C324.78 121.723 324.586 120.612 324.417 119.502C325.117 119.912 325.89 120.154 326.518 120.733C327.652 121.795 328.714 123.026 329.463 123.823C330.766 121.047 331.684 119.116 332.287 117.836C335.28 117.546 337.912 117.305 341.219 116.991C339.457 119.067 336.632 118.271 337.743 121.94C340.06 121.578 342.16 120.974 344.236 120.974C345.902 120.998 347.254 120.902 347.568 118.44C348.437 119.067 349.185 119.598 349.958 120.154C350.054 117.86 350.127 116.17 350.199 114.481C350.32 114.505 350.464 114.505 350.585 114.529C350.947 115.784 351.334 117.064 351.696 118.319C351.889 118.222 352.082 118.15 352.251 118.053C352.251 116.702 352.251 115.326 352.251 113.684C354.254 116.629 354.399 116.581 355.268 112.936C356.499 114.529 357.706 116.122 358.575 117.257C359.879 115.374 360.941 113.829 361.569 112.936C363.041 114.288 363.886 115.229 364.828 115.857C365.6 116.388 366.469 116.557 367.29 116.895C367.7 117.064 368.087 117.329 368.473 117.546C368.4 116.919 368.449 116.195 368.256 115.712C367.797 114.505 367.218 113.394 366.735 112.356C370.404 109.097 373.373 111.077 376.174 114.529C376.512 113.443 376.729 112.67 377.212 111.101C377.356 113.081 377.429 114.143 377.501 115.181C379.384 115.277 380.808 109.773 382.981 114.746C383.198 113.081 383.391 111.753 383.609 110.184C386.143 111.077 388.413 111.874 391.406 112.912C392.082 111.415 393.168 109.001 394.496 106.104C395.824 108.011 397.127 109.846 398.865 112.332C399.131 109.508 399.372 107.046 399.638 104.197C400.483 104.704 401.158 105.114 401.979 105.621C401.303 106.273 400.893 106.659 400.483 107.021C400.845 107.359 401.183 107.866 401.569 107.987C402.341 108.228 403.162 108.228 404.297 108.373C403.717 107.215 403.235 106.225 402.776 105.283C404.176 104.366 404.128 104.414 405.6 108.156C405.89 108.88 406.856 109.001 407.507 109.411C407.556 108.518 407.652 107.625 407.628 106.732C407.604 105.742 407.435 104.728 407.266 103.183C410.066 104.125 412.504 110.401 414.798 103.738C415.28 104.921 415.763 106.032 416.536 107.915C417.091 105.959 417.236 104.487 417.791 103.69C418.274 102.99 419.263 102.676 419.988 102.797C420.905 102.966 422.184 104.559 422.546 104.125C423.512 102.966 424.067 101.011 424.767 99.3931C424.598 99.1035 424.429 98.7896 424.26 98.5C426.216 98.2103 428.171 97.9447 430.126 97.6551C430.151 98.0654 430.175 98.4758 430.223 98.8862C429.185 99.7552 428.147 100.648 427.133 101.517C427.254 101.855 427.35 102.218 427.471 102.555C428.244 102.024 429.04 101.542 429.764 100.914C430.464 100.286 431.068 99.369 431.768 98.7655C433.699 97.1723 435.63 95.5307 437.658 94.2272C439.131 93.2616 440.048 89.6406 442.269 91.7649C442.438 91.9339 442.872 91.5476 443.162 91.4028C444.297 90.9441 445.431 90.4131 446.59 90.0751C448.328 89.544 450.114 89.1336 452.094 88.6026C451.37 88.0232 450.887 87.468 450.38 86.9128ZM327.242 91.1855C326.783 89.713 326.445 88.675 325.866 86.8403C324.466 89.4233 323.066 91.958 321.545 94.7824C321.786 92.465 322.028 90.0992 322.293 87.5887C323.621 86.5265 325.166 85.5609 326.493 84.1125C327.652 82.8331 328.063 79.719 330.259 81.1674C326.856 82.7607 328.956 87.7577 327.242 91.1855ZM233.651 145.042C233.651 145.018 233.651 144.994 233.627 144.969C233.627 144.994 233.603 145.018 233.603 145.042C233.603 145.042 233.627 145.042 233.651 145.042Z" fill="#FFEEEA"/>
</svg>
