<svg width="349" height="182" viewBox="0 0 349 182" fill="none" xmlns="http://www.w3.org/2000/svg">
<path d="M190.22 110.139C189.732 110.357 189.02 110.675 188.327 110.986C187.665 111.537 186.98 112.084 186.27 112.685C187.415 113.22 189.379 111.774 190.22 110.139ZM233.789 80.9902C233.561 81.8426 233.49 82.7233 233.375 83.596C233.724 83.6236 234.074 83.6512 234.423 83.6787C234.586 83.1672 234.812 82.6555 234.892 82.1526C234.968 81.6373 234.891 81.106 234.899 80.5786C234.494 80.7173 233.837 80.799 233.789 80.9902ZM347.374 5.73632C347.524 5.04627 347.649 4.48092 347.832 3.62047C347.151 3.96806 346.716 4.1485 346.319 4.38276C344.806 5.28624 343.362 6.4843 341.772 7.06832C340.261 7.63125 338.5 7.93775 337.038 7.68646C334.906 7.33835 333.366 8.22533 332.095 9.36036C331.466 9.0474 330.888 8.48506 330.509 8.64033C329.253 9.13157 328.093 10.0045 326.86 10.4998C325.893 10.8901 324.845 10.9486 323.843 11.1563C323.778 11.0154 323.71 10.862 323.645 10.7211C323.041 11.5999 322.456 12.4704 321.848 13.3368C320.61 12.8437 317.675 14.1851 316.89 15.5839C316.294 15.2417 315.703 14.912 315.39 14.7265C314.534 15.6188 313.703 16.9389 313.275 16.8618C311.556 16.541 311.169 17.9173 310.39 19.0586C309.832 18.0061 309.522 16.1634 307.88 17.6904C307.084 18.4289 306.798 19.7881 306.204 21.0449C305.843 20.2864 305.55 19.6813 305.299 19.1425C304.303 20.3386 303.418 21.4139 302.731 22.2308C301.964 22.0928 300.958 21.5946 300.569 21.9243C299.421 22.9052 298.504 24.2215 297.484 25.4136C296.413 24.6332 295.303 25.0449 293.878 26.2346C292.861 27.0861 291.363 27.2752 290.141 27.7372C290.348 27.998 290.564 28.2836 290.799 28.5609C289.979 29.0835 288.936 29.3662 288.653 29.9737C287.784 31.8629 286.544 31.7809 285.104 31.6043C284.728 31.5602 284.192 31.6871 283.911 31.9541C283.025 32.8175 282.211 33.7762 281.449 34.6267C281.261 33.7346 281.068 32.9006 280.903 32.0832C278.956 34.0724 277.349 35.7114 276.224 36.8375C274.979 37.2955 274.241 37.6682 273.479 37.8251C272.657 37.9948 271.838 37.965 270.959 38.0186C270.42 38.4154 269.55 39.4698 269.046 39.3557C267.053 38.9032 266.238 39.65 266.336 41.1488C265.432 42.1619 264.846 42.8206 264.069 43.6918C263.432 43.977 262.386 44.5296 261.306 44.8996C260.054 45.3327 258.767 47.1822 257.462 45.431C256.789 46.7088 256.138 47.9907 255.331 49.5266C255.233 49.5561 254.678 49.6914 253.969 49.8813C253.937 48.1122 253.906 46.4137 253.87 44.6322C254.829 44.8399 255.932 45.1675 255.996 43.1571C256.165 43.1523 256.349 43.1266 256.518 43.1217C256.849 43.8512 257.198 44.5724 257.525 45.2895C257.82 44.8605 258.444 44.185 258.36 44.0525C256.898 41.7205 260.109 40.8638 260.115 39.078C260.096 39.7799 260.055 40.4778 260.036 41.1798C260.224 41.2371 260.397 41.3153 260.585 41.3726C261.968 39.9755 263.332 38.5867 264.894 37.0102C264.815 36.9607 265.154 37.1628 265.158 37.1752C266.85 36.0924 268.254 35.1811 269.662 34.2822C270.658 33.6384 271.764 33.1436 272.266 32.2818C273.22 30.6664 274.184 30.4754 275.598 31.4703C275.97 30.0442 276.291 28.8675 276.633 27.5537C277.117 28.0168 277.551 28.4593 278.257 29.1623C278.252 28.1033 278.23 27.4763 278.226 26.8409C279.489 26.1628 281.497 26.5945 281.312 24.1865C283.956 23.9801 285.795 22.3359 285.783 20.6997C286.483 20.2731 287.06 19.9301 287.618 19.5955C287.587 19.4254 287.575 19.2468 287.544 19.0767C286.615 18.9685 285.664 18.8562 284.74 18.7605C288.92 15.0216 289.183 14.2813 286.921 12.7459C287.407 12.3867 287.894 12.0275 287.946 11.9899C287.033 11.1673 286.022 10.5154 285.413 9.57109C285.136 9.15696 285.63 8.12904 285.842 7.01513C285.873 7.04407 285.597 6.70054 285.056 5.9802C285.925 6.24231 286.32 6.3486 286.835 6.50008C286.592 5.91553 286.417 5.48435 286.051 4.57223C286.993 5.14135 287.472 5.45081 287.992 5.75593C288.379 5.07318 288.681 4.52784 288.915 4.11154C288.376 3.67361 287.874 3.36011 287.47 2.94653C287.04 2.51643 286.706 1.98627 286.218 1.36954C285.3 4.69588 283.469 1.50995 282.46 3.22115C282.304 2.22923 282.196 1.5278 282.025 0.556714C281.536 1.1153 281.237 1.46129 280.905 1.83648C280.594 1.38096 280.288 0.93788 279.981 0.494806C279.891 0.54918 279.801 0.603531 279.73 0.649517C279.94 1.33388 280.151 2.01824 280.334 2.6155C278.561 3.29583 276.81 3.98021 275.096 4.64783C275.35 5.0579 275.521 5.33544 275.695 5.62541C274.613 6.33603 274.114 8.5268 272.267 7.37178C271.977 7.19028 271.365 7.35071 270.957 7.54764C270.031 8.00425 269.125 8.52307 268.275 9.15794C267.927 9.41275 267.844 10.0444 267.527 10.3987C267.146 10.824 266.522 11.4994 266.198 11.4177C264.449 11.068 263.772 11.5692 263.769 13.0851C262.027 14.0768 260.371 15.0016 258.3 16.1691C257.318 15.8867 256.608 16.629 256.788 18.6715C255.647 18.9837 254.488 19.3043 253.723 19.5193C253.548 20.5459 253.394 21.3647 253.241 22.1835C251.9 21.4956 250.988 21.026 250.585 20.8242C248.976 22.0396 247.831 22.8917 246.428 23.9442C246.432 24.0273 246.491 24.5669 246.581 25.2061C245.822 24.6113 245.196 24.099 244.351 23.4297C245.207 22.5374 246.111 21.5949 247.123 20.5191C246.605 19.8735 246.004 19.0953 245.319 18.2551C246.163 16.42 245.318 15.0573 243.066 14.7346C243.313 13.8738 243.53 13.0548 243.799 12.1275C244.052 12.2552 244.331 12.3994 244.941 12.7207C243.047 9.88805 247.383 10.5383 246.607 8.77652C246.022 7.63691 245.423 6.51811 245.104 5.89652C244.437 6.15269 243.632 6.72508 243.338 6.53114C240.966 4.91736 239.826 5.30014 238.651 8.27457C236.715 7.38573 225.864 14.3217 225.029 16.9458C221.192 16.1149 219.784 21.8687 215.966 21.6524C216.392 22.07 216.804 22.5085 217.325 23.0254C215.276 24.0557 211.688 21.8823 211.622 26.5257C211.309 26.2696 210.905 25.9266 210.539 25.6374C209.459 26.6304 208.559 27.7265 207.466 28.3998C204.852 30.0223 202.132 31.4376 199.863 33.6981C199.243 34.3154 198.66 34.9865 198.066 35.6203C197.097 35.7283 195.821 35.8749 195.175 36.6169C193.465 38.6135 190.372 38.5394 189.305 41.3804C189.294 41.4137 189.178 41.4516 189.11 41.4394C187.354 41.0648 186.921 42.9853 185.828 43.7292C185.421 43.515 185.014 43.3008 184.758 43.1607C183.948 44.2024 183.295 45.0607 182.578 45.9898C182.496 44.6114 182.422 43.399 182.317 42.0165C181.302 42.598 180.628 42.9705 179.939 43.3638C179.762 43.2732 179.566 43.191 179.385 43.0879C179.984 40.5271 180.605 37.9704 181.175 35.5218C182.063 35.2231 182.798 34.9792 183.575 34.7308C182.223 32.6891 182.208 32.6393 180.319 33.6399C179.162 34.2429 178.293 34.745 179.075 32.7108C179.171 32.4695 178.455 31.9409 178.058 31.6228C177.979 31.5733 177.624 31.8739 177.429 32.0034C177.512 32.6884 177.597 33.2445 177.676 33.917C176.959 34.0114 176.381 34.072 175.787 34.1534C175.88 33.9703 175.992 33.7788 176.089 33.6081C175.328 33.142 174.547 32.6843 174.103 32.4163C172.611 33.8056 171.534 34.811 170.439 35.8249C170.234 35.506 170.026 35.1746 169.802 34.7935C169.131 35.8014 168.546 36.6718 168.035 37.4382C167.47 37.1249 167.067 36.9231 166.683 36.713C166.398 37.4493 166.108 38.1731 165.808 38.9303C165.364 38.8034 164.762 38.6481 164.359 38.517C162.173 40.6277 160.814 43.6984 157.345 43.439C157.27 44.1661 157.187 44.8683 157.108 45.583C157.088 45.3796 157.046 45.1721 157.026 44.9687C155.938 45.1727 154.551 45.0291 153.859 45.6923C153.138 46.3973 153.063 47.8885 152.708 49.0238C149.195 48.2746 148.565 48.3728 146.706 50.0253C146.383 49.3912 146.068 48.7821 145.651 47.9781C145.011 48.5332 144.477 49.0131 144.073 49.3637C143.515 49.0753 142.775 48.3309 142.28 48.524C139.91 49.4146 137.496 50.297 135.655 52.4228C135.449 52.6563 134.942 52.6003 134.559 52.6725C134.063 52.7245 133.501 52.976 132.958 53.2192C131.608 53.823 130.274 54.4059 128.962 55.0635C128.869 55.1054 128.977 55.7363 128.973 55.6532C127.462 56.9097 126.115 58.0077 124.417 59.4186C124.262 59.3321 123.675 59.0148 123.083 58.685C122.542 60.116 121.994 61.5926 119.958 61.5556C119.401 61.5497 118.719 62.5202 117.919 63.1757C118.701 63.2928 119.185 63.3447 119.648 63.4632C119.693 63.4713 119.551 64.1862 119.509 64.1905C119.036 64.2465 118.585 64.1654 118.108 64.209C117.098 64.3212 116.099 64.4708 114.909 64.6212C115.025 65.8293 115.135 66.8131 115.211 67.6849C113.637 68.3893 112.1 69.0769 110.563 69.7646C110.609 69.9139 110.674 70.0548 110.724 70.2166C110.189 70.0735 109.655 69.9304 109.61 69.9223C108.923 70.7392 108.535 71.2101 108.128 71.6895C106.829 70.5155 105.862 71.67 105.037 72.6619C104.242 73.6122 103.628 74.7361 102.946 75.7773C102.284 74.8706 101.772 75.3545 101.079 76.4996C100.543 77.3906 99.6674 78.1502 98.8179 78.785C98.0545 79.3531 97.1206 79.6436 96.2891 80.1289C95.7835 80.4259 95.3573 80.843 94.9607 81.1479C94.6975 81.8177 94.3934 82.5624 94.0597 83.4193C93.5661 83.1307 93.2006 82.9121 93.0686 82.8296C92.3205 83.4474 91.772 84.1599 91.1344 84.3744C89.1204 85.035 88.6521 86.7024 88.3311 87.8085C84.9063 90.9544 80.4711 91.9908 79.1452 97.0423C78.7215 96.4959 78.4795 96.1938 78.1277 95.7426C77.8419 96.4083 77.6453 96.8784 77.4299 97.357C77.2559 97.1376 77.1011 96.9804 77.0633 96.9266C75.7869 97.8374 74.6525 98.5856 73.59 99.429C72.3179 100.423 71.2756 101.54 71.976 103.265C71.9989 103.34 71.8757 103.494 71.7793 103.735C71.3288 103.795 70.8408 103.872 70.349 103.936C70.1792 103.8 69.9907 103.672 69.8247 103.548C70.3258 103.098 70.8268 102.647 71.3279 102.196C71.0529 102.065 70.778 101.933 70.4992 101.789C69.9778 102.659 69.4829 103.546 68.9087 104.383C68.7037 104.687 68.3139 104.875 68.011 105.138C67.1696 105.869 66.3017 106.582 65.4905 107.342C64.7913 107.98 64.1299 108.672 63.2739 109.494C63.2969 109.569 63.3771 109.83 63.5109 110.266C61.6774 108.807 60.9921 113.516 59.2769 110.985C58.7545 113.795 56.4177 114.515 55.0301 115.688C55.0016 116.706 54.9946 117.516 54.9727 118.346C54.83 118.368 54.6874 118.389 54.5298 118.431C54.2297 117.801 53.9296 117.171 53.371 115.978C52.8812 117.853 52.5457 119.05 52.2326 120.252C52.1566 120.074 52.0656 119.916 51.9895 119.738C50.3886 120.355 48.7914 120.985 47.1717 121.611C47.605 121.841 48.0382 122.072 48.4715 122.303C47.8163 122.737 47.0744 123.098 46.5175 123.644C46.0577 124.09 45.7907 124.748 45.3734 125.402C44.9856 125.25 44.4586 125.061 43.8261 124.806C43.657 125.504 43.5135 126.078 43.4802 126.178C42.0838 127.114 41.0244 127.829 39.8938 128.589C39.7392 131.348 37.4075 131.599 36.0613 132.074C35.8382 133.221 35.6881 133.981 35.5606 134.746C35.3916 134.751 35.2452 134.76 35.0761 134.765C34.8938 134.379 34.6926 134.002 34.2901 133.178C32.5741 135.502 31.0261 137.61 29.8621 139.164C28.5698 139.884 27.606 140.216 26.9294 140.859C26.0547 141.689 25.5446 143.29 24.6298 143.643C23.0701 144.256 22.488 144.997 22.8495 146.591C20.7612 145.968 20.4659 146.256 20.2536 148.757C16.7344 149.652 14.1449 152.326 11.7879 154.923C9.42719 157.508 6.98875 160.326 5.8474 164.035C5.54644 163.957 5.00422 163.719 4.45581 163.738C4.07643 163.752 3.32335 164.145 3.30573 164.366C3.14339 165.641 3.15391 166.925 3.10056 168.208C2.34479 168.801 1.56646 169.39 0.260689 170.413C1.4458 170.732 2.17579 170.957 2.92074 171.162C4.52679 172.226 3.78631 172.869 2.5445 173.198C3.66686 173.729 5.80234 174.019 5.98768 174.969C6.35071 176.845 7.50867 177.006 8.70683 176.951C9.76235 176.918 10.8857 176.203 11.973 175.787C11.957 175.596 11.9371 175.393 11.9211 175.202C12.7337 175.418 13.5276 175.643 14.3364 175.848C14.3112 176.043 14.271 176.259 14.2457 176.454C13.6571 176.689 13.0498 176.933 12.4612 177.168C12.3946 177.368 12.3242 177.555 12.2576 177.754C12.9012 177.976 13.5952 178.5 14.1842 178.336C14.8707 178.142 15.4751 177.334 16.1222 176.804C17.353 175.814 13.6192 176.636 15.3201 175.025C16.947 175.047 18.3727 175.386 19.6478 174.957C20.2853 174.743 20.6374 173.113 21.1427 172.052C22.4398 172.943 23.605 173.753 25.0416 174.751C24.2086 174.954 23.8522 175.043 23.4958 175.132C23.542 175.352 23.5657 175.568 23.6119 175.788C24.1519 175.602 24.6992 175.372 25.2358 175.245C25.8886 175.08 26.9121 174.665 27.1277 174.95C28.4059 176.544 29.3124 176.025 30.2898 174.002C29.5711 177.353 31.0462 179.24 33.4768 180.63C33.6768 180.101 33.9772 179.344 34.2813 178.599C34.689 178.955 34.6725 179.387 34.716 179.806C34.7786 180.288 34.9162 180.736 35.1463 181.623C36.2112 180.51 36.9735 179.73 37.7171 178.959C37.7212 179.042 37.7442 179.116 37.7484 179.199C39.4446 178.129 41.137 177.046 42.7246 176.039C42.9754 176.577 43.2794 177.22 43.4503 177.568C44.7936 175.835 45.9756 174.131 47.335 172.589C48.1864 171.613 49.2681 170.832 50.3084 170.055C51.0569 169.508 51.8964 169.118 52.7091 168.641C52.4625 168.185 52.3868 168.078 52.3524 167.966C52.1946 167.244 51.732 166.432 51.9505 165.824C52.4911 164.323 53.9428 163.914 53.9534 165.197C53.5491 165.477 53.1073 165.774 52.6506 166.091C52.9087 166.585 53.0911 166.97 53.2543 167.293C55.7199 166.784 56.1291 164.577 56.6517 163.225C58.2307 163.439 59.5918 163.637 61.2611 163.866C60.6953 162.025 60.3054 160.755 59.8926 159.412C60.6598 159.55 61.784 159.74 63.1566 159.975C61.4041 161.071 61.3757 162.088 62.5045 163.126C63.118 162.625 63.9805 161.616 64.2742 161.739C66.6355 162.834 66.1803 161.283 65.8512 160.142C66.8856 160.387 67.8936 160.615 69.0447 160.893C69.1063 161.162 69.4442 161.846 69.4292 162.561C69.3941 164.459 70.8634 164.523 71.9873 164.643C73.0474 164.763 76.6022 164.885 77.362 165.069C77.7081 165.154 78.6073 164.681 78.6696 164.399C79.3194 161.518 79.7872 161.167 82.2381 162.137C82.8356 160.751 83.4183 159.386 84.0308 157.98C85.5415 159.498 86.3894 159.274 88.3119 156.928C87.6843 156.897 87.0567 156.867 86.2751 156.82C87.5875 154.917 90.6038 156.964 90.8762 153.756C91.4104 153.9 91.7377 153.994 91.7829 154.002C91.8453 153.026 91.9197 152.157 91.9753 151.297C92.5328 151.586 93.0942 151.886 93.6517 152.175C93.5737 152.337 93.4994 152.512 93.4214 152.674C93.984 152.493 94.5466 152.312 95.2254 152.093C95.3155 150.652 95.4205 149.19 95.5286 147.599C96.358 148.147 97.2138 148.713 98.0845 149.257C98.2934 148.966 98.4873 148.695 98.6962 148.403C98.0247 147.883 97.3532 147.362 96.4026 146.627C97.5813 146.439 98.4521 146.29 99.383 146.129C99.6009 146.838 99.7958 147.472 99.9869 148.095C100.652 145.886 101.911 144.573 103.748 143.892C104.877 143.472 105.954 142.679 106.968 141.885C107.279 141.647 107.461 140.504 107.31 140.43C105.829 139.635 107.092 138.957 107.733 138.755C108.693 138.41 109.672 138.057 110.729 137.683C110.949 137.91 111.311 138.258 111.987 138.932C111.839 137.201 111.735 135.959 111.618 134.539C113.611 134.78 115.404 134.997 117.133 135.214C116.794 134.318 116.231 133.664 116.337 133.037C116.722 130.543 117.733 130.02 119.797 130.979C120.52 131.32 121.359 131.483 122.134 131.716C122.314 131.608 122.494 131.499 122.673 131.39C121.274 129.681 121.929 128.411 123.527 127.229C123.504 127.919 123.485 128.48 123.484 129.103C125.699 128.748 125.153 127.04 125.453 125.66C126.015 125.96 126.452 126.204 126.836 126.414C128.437 124.409 129.964 122.509 131.673 120.371C131.861 120.429 132.392 120.559 133.114 120.76C132.255 121.64 131.18 122.305 131.201 122.79C131.295 124.97 129.547 125.385 128.675 126.086C128.65 126.975 128.627 127.594 128.607 128.084C129.23 128.654 129.834 129.233 130.525 129.887C127.481 131.15 125.982 132.655 126.299 134.934C126.51 136.594 127.233 138.323 128.786 139.284C129.291 139.61 129.666 140.136 130.014 140.504C129.245 140.848 128.645 141.116 128.421 141.217C129.377 142.317 130.129 143.17 131.067 144.279C131.278 143.024 131.416 142.226 131.558 141.37C132.65 142.495 133.411 143.654 134.485 144.306C135.401 144.858 136.756 145.243 137.784 144.911C138.811 144.578 139.876 143.394 140.513 142.345C141.54 140.625 142.553 141.078 144.201 141.515C142.619 142.195 140.583 142.158 141.624 144.367C142.612 143.628 143.672 143.054 144.415 142.212C145.155 141.358 145.592 140.214 146.437 138.731C146.56 139.964 146.62 140.575 146.69 141.152C147.311 139.982 147.896 138.9 148.61 137.547C149 138.193 149.208 138.525 149.603 139.183C150.102 137.615 150.493 136.393 150.915 135.058C151.414 135.089 151.978 135.12 152.523 135.159C152.481 135.022 152.416 134.881 152.374 134.744C153.16 134.11 153.964 133.467 154.75 132.832C154.924 132.981 155.097 133.13 155.29 133.27C155.095 133.47 154.886 133.691 154.692 133.891C155.556 134.552 157.528 133.896 158.161 132.764C158.328 132.476 158.571 132.226 158.818 131.988C159.311 131.513 159.831 131.054 160.328 130.591C160.245 130.458 160.162 130.326 160.078 130.193C161.044 130.284 162.025 130.355 162.988 130.434C163.043 130.197 163.083 129.981 163.138 129.744C162.667 129.53 162.196 129.316 161.375 128.933C162.19 128.116 162.874 127.428 163.756 126.552C163.957 127.552 164.077 128.22 164.308 129.39C166.072 127.638 167.805 126.339 168.927 124.648C170.064 122.937 170.717 123.536 171.615 124.238C174.225 121.91 169.576 122.32 170.936 120.155C171.833 120.716 172.689 121.281 173.744 121.941C173.88 120.649 174.034 119.278 174.189 117.907C174.399 117.897 174.609 117.888 174.82 117.879C174.853 118.473 174.867 119.075 174.922 120.225C176.636 118.17 178.073 116.466 179.57 114.678C179.889 115.37 180.125 115.929 180.399 116.543C179.885 116.744 179.387 116.925 178.873 117.127C178.866 117.243 178.882 117.363 178.875 117.48C180.047 117.549 181.22 117.619 182.674 117.704C181.42 115.633 181.928 113.679 184.129 112.1C183.641 113.564 183.278 114.674 182.893 115.781C183.074 115.813 183.236 115.854 183.416 115.886C184.223 115.044 185.008 114.198 185.591 113.597C185.42 112.555 185.167 111.664 185.162 110.746C185.157 110.451 185.938 109.733 186.108 109.799C186.849 110.062 187.524 110.524 188.203 110.928C188.764 108.313 190.575 108.38 192.394 108.472C192.291 108.971 192.196 109.495 192.079 110.014C192.436 110.138 192.771 110.257 193.129 110.38C193.512 108.991 193.914 107.594 194.383 105.926C195.16 106.583 195.681 107.03 196.432 107.67C196.479 106.574 196.531 105.772 196.568 104.991C196.632 104.991 196.688 104.966 196.76 104.99C197.508 105.207 198.239 105.432 198.991 105.662C198.549 105.194 197.942 104.815 197.676 104.226C197.361 103.547 197.356 102.699 197.206 101.932C197.948 102.406 198.237 102.928 198.577 103.413C198.585 103.437 199.278 103.057 199.273 102.903C199.278 100.976 200.413 101.756 201.191 101.861C201.725 101.933 202.226 102.176 202.983 102.418C202.883 101.401 202.82 100.708 202.735 99.6697C203.694 100.571 204.351 101.183 205.223 102.01C205.307 100.755 205.352 99.9991 205.415 99.1641C206.104 99.3937 206.73 99.8354 207.014 99.6515C208.295 98.8237 209.48 97.8261 210.704 96.8823C210.842 96.7779 210.996 96.7233 211.139 96.6313C211.801 96.2215 212.72 95.9518 213.052 95.3648C213.736 94.1243 214.093 92.7191 214.464 91.7042C215.475 91.8743 216.6 92.0647 217.897 92.2627C217.897 92.3333 217.918 92.8191 217.917 93.3008C218.03 93.3211 218.162 93.333 218.271 93.3409C218.515 92.6089 218.759 91.8769 219.047 91.0119C219.458 91.3092 219.745 91.5488 220.02 91.7511C221.09 90.1684 220.132 90.1019 218.859 90.261C218.956 90.0197 219.067 89.7576 219.163 89.5163C220.53 89.3153 221.878 89.1227 223.39 88.9128C222.741 88.2552 222.272 87.7713 221.766 87.2335C222.492 86.6116 223.112 86.0649 223.434 85.7936C224.768 86.4566 225.958 87.0704 227.318 87.7498C227.017 86.3557 226.794 85.3516 226.594 84.3516C226.176 84.3118 225.677 84.2807 225.173 84.2372C225.228 84.0002 225.298 83.7424 225.353 83.5054C226.342 83.6009 227.323 83.6715 228.3 83.8003C229.345 83.9412 230.372 84.1611 231.41 84.3477C231.559 84.1394 231.69 83.9395 231.839 83.7312C231.659 83.1464 231.378 82.5786 231.337 81.96C231.297 81.4826 231.424 80.6473 231.731 80.4674C232.574 79.9489 233.546 79.7121 234.442 79.2972C235.633 78.7356 236.806 78.1118 238.061 77.4794C237.855 78.3358 237.634 79.213 237.414 80.0903C238.165 80.0372 238.811 79.9888 240.02 79.9006C239.257 79.2227 238.85 78.8673 238.235 78.3217C239.265 77.8605 240.146 77.4664 240.802 77.1729C240.915 76.4996 241.002 75.951 241.119 75.2196C241.947 76.2502 242.259 77.7523 244.008 76.7855C242.448 75.1766 242.474 73.5942 243.445 73.2163C243.979 73.9823 244.407 74.6117 244.789 75.1625C246.866 72.9733 248.719 71.026 250.797 68.8368C251.083 69.0765 251.763 69.6218 252.28 70.0556C252.817 69.3058 253.279 68.6601 253.473 68.3894C254.543 68.335 255.193 68.299 255.971 68.2625C255.38 67.3098 255.054 66.8045 254.747 66.2908C255.355 66.2592 255.993 66.1153 256.572 66.1959C257.621 66.3492 258.641 66.6148 259.348 66.7655C259.92 64.8817 260.326 63.5676 260.592 62.6985C262.87 61.5094 264.875 60.4709 267.393 59.1603C266.353 60.8425 264.035 61.413 265.478 62.9186C267.219 61.927 268.754 60.8863 270.366 60.1652C271.663 59.599 272.697 59.0797 272.551 57.7015C273.325 57.7231 273.99 57.7369 274.677 57.7547C274.389 56.5391 274.178 55.6429 273.967 54.7467C274.064 54.7173 274.176 54.667 274.274 54.6375C274.754 55.1587 275.256 55.684 275.736 56.2053C275.871 56.0884 276.009 55.984 276.125 55.8755C275.911 55.1787 275.693 54.4695 275.433 53.6234C277.455 54.4454 277.56 54.3702 277.657 52.1894C278.865 52.583 280.055 52.9849 280.909 53.2679C281.623 51.8445 282.203 50.6792 282.549 50.0008C283.906 50.186 284.711 50.3778 285.541 50.3743C286.225 50.3797 286.926 50.1649 287.617 50.054C287.962 49.9985 288.304 50.0012 288.638 49.9791C288.483 49.6807 288.406 49.2906 288.179 49.1089C287.632 48.646 287.006 48.2749 286.467 47.9076C288.8 44.9532 291.418 44.9421 294.139 45.7486C294.229 45.0713 294.275 44.5977 294.402 43.6212C294.828 44.5912 295.052 45.1135 295.273 45.6234C296.75 45.0191 296.984 41.6873 299.458 43.4959C299.363 42.5618 299.303 41.8104 299.223 40.9261C301.332 40.506 303.22 40.1284 305.708 39.6236C305.996 38.6173 306.457 36.9957 307.029 35.0413C308.361 35.5631 309.664 36.0559 311.407 36.7338C311.166 35.1857 310.963 33.8327 310.718 32.2722C311.455 32.24 312.044 32.2167 312.762 32.1929C312.34 32.7637 312.083 33.1053 311.822 33.4345C312.156 33.4829 312.499 33.6268 312.818 33.5549C313.456 33.4109 314.093 33.1259 314.997 32.8064C314.363 32.4104 313.832 32.0679 313.327 31.742C314.268 30.7828 314.239 30.8244 315.974 32.2416C316.314 32.5142 317.083 32.241 317.654 32.2261C317.55 31.749 317.483 31.255 317.323 30.803C317.147 30.3013 316.856 29.8374 316.48 29.0997C318.803 28.6122 321.689 31.0004 322.415 26.7696C322.977 27.2115 323.528 27.6162 324.425 28.3184C324.547 27.1177 324.426 26.3083 324.731 25.7048C324.995 25.1763 325.714 24.6707 326.295 24.4814C327.034 24.2498 328.279 24.6266 328.492 24.2768C329.058 23.3442 329.179 22.1434 329.467 21.0665C329.29 20.9759 329.109 20.8729 328.932 20.7822C330.404 19.9537 331.88 19.1376 333.352 18.309C333.435 18.5122 333.519 18.7153 333.622 18.9101C332.953 19.7186 332.289 20.5396 331.64 21.3397C331.787 21.472 331.919 21.6251 332.066 21.7574C332.582 21.2153 333.124 20.6897 333.587 20.1146C334.031 19.5479 334.354 18.8654 334.802 18.3112C336.049 16.8191 337.288 15.3021 338.656 13.9258C339.646 12.9165 339.785 10.7314 341.845 11.0549C342.003 11.0833 342.28 10.7333 342.482 10.558C343.29 9.92749 344.086 9.25961 344.932 8.68289C346.198 7.80539 347.519 6.97331 348.972 6.01193C348.318 5.96488 347.855 5.8464 347.374 5.73632ZM252.456 50.7141C251.866 50.1144 251.44 49.6968 250.699 48.9524C250.021 50.7702 249.336 52.563 248.602 54.5472C248.423 53.2688 248.236 51.9655 248.044 50.5792C248.907 49.5705 249.953 48.5361 250.755 47.3283C251.452 46.2663 251.277 44.5186 253.212 44.5021C250.822 46.5057 253.243 48.3518 252.456 50.7141ZM188.327 110.986C188.323 110.973 188.319 110.961 188.297 110.957C188.301 110.969 188.286 110.99 188.289 111.002C188.289 111.002 188.308 110.994 188.327 110.986Z" fill="#FFEEEA"/>
</svg>
