<svg width="221" height="156" viewBox="0 0 221 156" fill="none" xmlns="http://www.w3.org/2000/svg">
<path d="M126.012 44.7932C126.299 45.0158 126.719 45.341 127.129 45.6578C127.747 45.7463 128.366 45.857 129.038 45.9439C129.298 44.5416 127.633 44.1195 126.012 44.7932ZM91.6767 32.9964C92.4817 32.4709 93.2821 31.7901 94.0838 31.1537C94.0419 30.8396 94 30.5254 93.9581 30.2113C93.4702 30.5054 92.9698 30.7466 92.5053 31.1022C92.0304 31.4714 91.5705 31.9823 91.0976 32.4181C91.2987 32.6388 91.4967 33.1171 91.6767 32.9964ZM2.82334 1.62486C2.17819 2.07902 1.64932 2.44983 0.845626 3.01967C1.28598 3.29551 1.52994 3.50601 1.81481 3.63982C2.90999 4.14079 4.25519 4.33686 5.07956 5.16999C5.87007 5.95526 6.47893 7.16336 6.53278 8.59201C6.62747 10.6591 7.71292 11.1959 8.96899 11.3013C8.80908 12.0877 8.4166 13.0408 8.62739 13.2257C9.30531 13.8587 10.306 14.0916 10.9833 14.7025C11.5161 15.1799 11.7677 16.0031 12.144 16.6628C12.0304 16.8349 11.9064 17.0207 11.7927 17.1928C12.6929 16.9577 13.5821 16.7141 14.4719 16.4926C14.267 17.9377 16.024 19.2543 17.4232 18.7337C17.2308 19.5167 17.0488 20.286 16.9425 20.7021C17.9027 20.6652 19.2402 20.2485 19.2529 20.6701C19.2933 22.3701 20.5967 21.5369 21.7647 21.2274C20.9305 22.5754 19.3431 24.3807 21.0198 24.4649C21.8311 24.5078 23.1 23.6046 24.3361 23.0443C23.7271 23.9816 23.242 24.7331 22.8083 25.3943C24.0668 25.2198 25.1959 25.0535 26.0565 24.9395C26.0792 25.6939 25.8254 26.9494 26.1941 26.9964C27.289 27.1287 28.6396 26.7872 29.8987 26.6349C29.4052 28.1817 29.9843 28.76 31.3185 28.9475C32.2729 29.0795 32.7269 30.1677 33.3724 30.7973C33.5658 30.4052 33.78 29.9859 33.9831 29.558C34.6061 29.8018 35.0571 30.4327 35.6537 30.1576C37.507 29.295 37.6698 30.3962 37.786 31.7431C37.8181 32.0931 38.0336 32.4332 38.3255 32.4425C39.2656 32.455 40.277 32.3277 41.1819 32.2479C40.4207 33.1541 39.7122 34.0142 39.0134 34.8386C41.1612 34.7891 42.9314 34.7507 44.1517 34.7417C44.7977 35.3935 45.2713 35.695 45.5564 36.1974C45.8644 36.7392 45.9937 37.4461 46.2088 38.1327C46.6659 38.2481 47.7735 38.087 47.7675 38.6024C47.7425 40.6418 48.5649 40.6933 49.8855 39.3533C50.9626 39.2551 51.6627 39.1902 52.589 39.1054C52.965 39.3964 53.6577 39.8026 54.1939 40.391C54.8192 41.07 56.7164 40.5881 55.4001 43.1451C56.67 42.6327 57.9392 42.0981 59.4651 41.4805C59.51 41.5369 59.7365 41.8856 60.0411 42.3164C58.4666 43.8283 56.955 45.2805 55.37 46.8059C55.3731 45.8331 55.456 44.6403 53.6475 46.2744C53.611 46.1378 53.553 46.0062 53.5165 45.8696C54.1054 44.9818 54.6832 44.0855 55.2617 43.2113C54.8223 43.3263 54.1002 43.3741 53.9976 43.5548C52.1923 46.7301 50.8157 44.776 49.2191 46.2707C49.8498 45.697 50.4812 45.1456 51.112 44.5719C51.1274 44.3671 51.1643 44.1573 51.1797 43.9525C49.6683 43.9745 48.1679 44.0051 46.4621 44.0283C46.4329 44.1358 46.5489 43.6838 46.5593 43.6701C45.2697 43.1704 44.1883 42.7667 43.1172 42.3495C42.3525 42.0609 41.7 41.5559 40.8343 41.861C39.2096 42.4238 38.8554 41.7812 39.4752 39.7687C38.1302 40.6564 37.0179 41.3775 35.7788 42.1954C36.1006 41.4043 36.4133 40.6711 36.9071 39.493C35.9619 40.3867 35.4059 40.9316 34.8388 41.4678C33.9926 40.9862 33.9962 38.9518 31.88 41.128C31.1924 39.1005 29.3733 38.9493 27.9137 40.3334C27.3993 40.1086 26.9831 39.9165 26.5779 39.7329C26.4318 39.9015 26.2746 40.0616 26.1285 40.2302C26.2085 41.094 26.2892 41.9799 26.3796 42.8301C22.2434 42.4891 21.5319 42.8919 20.5906 46.0642C20.1771 45.9608 19.7636 45.8574 19.72 45.8454C19.1589 47.2965 18.7687 48.6848 18.041 49.9853C17.7236 50.5631 16.7111 51.0147 15.6755 51.7734C15.6956 51.7239 15.4412 52.2422 14.9006 53.2974C14.9693 52.3537 14.9891 51.9356 15.0264 51.3793C14.5504 52.0728 14.1985 52.5806 13.4531 53.6506C13.7823 52.3884 13.9677 51.7301 14.1413 51.041C13.4576 51.2919 12.913 51.4988 12.4964 51.6532C12.2078 52.47 12.0231 53.1505 11.7305 53.8342C11.4281 54.5538 11.0179 55.2764 10.5597 56.2004C13.7064 54.1718 11.2084 58.3712 12.9293 57.7745C12.0726 58.7368 11.4667 59.4163 10.6314 60.3735C11.2236 60.3117 11.5896 60.27 11.9881 60.2317C11.6402 60.8726 11.3026 61.4998 10.9651 62.1271C11.0308 62.1563 11.0965 62.1854 11.1511 62.206C11.7226 61.4564 12.294 60.7068 12.7927 60.0526C13.7381 60.9577 14.6828 61.8407 15.6053 62.7065C15.9234 62.1508 16.1389 61.7759 16.3648 61.3873C17.2057 61.6914 19.2581 60.2678 18.5776 62.775C18.4707 63.169 18.7304 63.5434 18.9841 63.7181C19.5682 64.1052 20.2042 64.4242 20.9331 64.5983C21.227 64.6741 21.8072 64.2129 22.1842 64.1797C22.6367 64.1398 23.3589 64.0921 23.3475 64.43C23.3678 66.1794 23.9446 66.3224 25.2996 65.0525C26.5171 65.6698 27.6585 66.2716 29.0958 67.0157C29.0304 68.0703 29.8287 68.0381 31.6194 66.1735C32.1154 66.8608 32.6224 67.5566 32.9602 68.0131C33.9106 67.2968 34.6715 66.7372 35.4323 66.1775C35.0729 67.8714 34.8268 69.0245 34.7232 69.5295C36.1153 69.8485 37.0946 70.0864 38.302 70.3709C38.3754 70.2977 38.8463 69.7953 39.4004 69.1839C39.0132 70.3146 38.6746 71.2661 38.2375 72.5314C37.2774 72.5684 36.2632 72.6069 35.1094 72.6673C34.6311 73.6407 34.0502 74.7948 33.4298 76.07C31.6297 76.9088 30.5729 78.7563 30.7132 80.902C29.8971 81.4189 29.1239 81.9257 28.2441 82.48C28.3102 82.1627 28.386 81.8096 28.5569 81.0317C26.3863 84.9861 26.1423 80.8314 24.7158 82.9563C23.8089 84.3997 22.9233 85.8381 22.4286 86.6254C22.7845 86.9659 23.4491 87.1552 23.3317 87.5628C22.3412 90.892 22.9001 91.5197 25.7814 90.0008C25.3556 92.3584 33.6177 95.568 36.1213 94.0601C36.1089 97.9514 41.5179 94.2931 42.0512 97.6532C42.3432 96.9473 42.6566 96.2364 43.0192 95.3685C44.3299 96.2096 43.0708 101.021 47.2321 97.1775C47.0628 97.6532 46.8332 98.2774 46.6445 98.8248C47.7374 98.8905 48.8879 98.7192 49.6975 99.0642C51.6446 99.8778 53.4267 100.954 55.8783 100.944C56.5479 100.943 57.2583 100.864 57.9376 100.826C58.2184 101.542 58.5924 102.482 59.3783 102.397C61.4876 102.144 62.0099 104.78 64.7514 103.283C64.7832 103.265 64.8392 103.33 64.8412 103.396C64.8408 105.173 66.6392 103.921 67.5118 104.206C67.3979 104.725 67.2839 105.243 67.2074 105.574C68.2923 105.374 69.1834 105.197 70.15 105.013C68.934 106.239 67.8648 107.318 66.6496 108.567C67.3624 108.923 67.8235 109.172 68.3061 109.415C68.2588 109.639 68.2226 109.871 68.1649 110.108C65.7629 111.759 63.3602 113.389 61.0641 114.971C60.6281 114.481 60.2702 114.074 59.9006 113.637C58.3337 116.476 58.2921 116.531 59.5455 117.263C60.3045 117.72 60.9185 118.022 58.9522 119.079C58.7182 119.201 58.3823 120.241 58.1735 120.838C58.1443 120.946 58.4805 120.989 58.6333 121.042C59.2295 120.399 59.7102 119.861 60.296 119.23C60.5168 119.748 60.681 120.179 60.8667 120.604C60.6854 120.68 60.493 120.748 60.3221 120.811C60.0505 121.836 59.79 122.87 59.6352 123.465C61.1603 123.54 62.2636 123.592 63.3779 123.653C63.1319 124.091 62.8755 124.543 62.5775 125.049C63.6057 124.761 64.4949 124.518 65.2767 124.299C65.1044 125.033 65.0008 125.538 64.8862 126.034C65.5984 125.654 66.3002 125.287 67.0338 124.901C67.005 125.377 66.9808 126.008 66.9402 126.454C69.2422 126.502 72.2444 125.055 72.6729 128.161C73.3368 127.613 73.9799 127.092 74.6335 126.557C74.4555 126.745 74.2782 126.954 74.1003 127.142C74.4896 127.876 74.6253 129.152 75.3495 129.17C76.1166 129.179 77.4633 127.989 78.5451 127.331C78.5442 130.885 78.752 131.327 80.5821 131.487C80.077 132.288 79.5927 133.062 78.9538 134.084C79.5715 134.15 80.102 134.193 80.4921 134.235C80.3406 134.941 79.8163 136.182 80.0831 136.432C81.3297 137.657 82.5776 138.926 84.8274 138.674C85.0751 138.649 85.1216 139.118 85.259 139.376C85.3997 139.745 85.7315 140.002 86.0522 140.25C86.8484 140.867 87.6232 141.488 88.4603 142.028C88.5156 142.071 89.0586 141.451 88.9852 141.524C90.3954 141.727 91.6327 141.926 93.2165 142.155C93.1686 142.356 92.9969 143.112 92.8149 143.881C94.1964 143.13 95.6201 142.347 95.9745 144.073C96.0751 144.541 97.0721 144.294 97.81 144.41C97.7659 143.661 97.72 143.214 97.7378 142.729C97.7364 142.685 98.4024 142.203 98.4141 142.234C98.5542 142.581 98.5675 143.025 98.6972 143.385C98.9897 144.132 99.3134 144.837 99.6743 145.702C100.732 144.591 101.59 143.674 102.354 142.878C103.283 143.597 104.19 144.299 105.097 145.001C105.221 144.838 105.335 144.666 105.47 144.488C105.444 145.053 105.418 145.618 105.419 145.663C106.28 145.549 106.774 145.476 107.28 145.413C106.478 147.479 107.694 147.315 108.737 147.169C109.738 147.033 110.859 146.601 111.919 146.294C111.235 147.607 111.764 147.627 112.919 147.242C113.818 146.94 114.663 147.031 115.392 147.205C116.044 147.364 116.482 147.897 117.074 148.182C117.435 148.354 117.889 148.358 118.237 148.432C118.885 148.089 119.609 147.717 120.438 147.275C120.274 147.929 120.148 148.416 120.099 148.596C120.794 148.7 121.535 148.558 121.848 148.909C122.821 150.031 124.4 149.021 125.45 148.359C128.912 148.569 130.682 151.391 135.448 148.253C135.04 149.065 134.816 149.52 134.48 150.191C135.129 149.87 135.587 149.639 136.055 149.417C135.893 149.746 135.782 150.007 135.741 150.084C136.797 150.381 137.682 150.697 138.638 150.874C139.768 151.098 140.964 151.028 142.372 148.997C142.434 148.915 142.596 148.888 142.83 148.766C142.969 149.09 143.13 149.432 143.282 149.787C143.192 150.043 143.114 150.308 143.035 150.55C142.537 150.511 142.039 150.472 141.541 150.434C141.475 150.773 141.41 151.113 141.334 151.466C142.211 151.169 143.097 150.837 143.954 150.612C144.265 150.527 144.508 150.693 144.8 150.725C145.613 150.812 146.416 150.935 147.249 150.973C147.952 151.019 148.697 150.988 149.594 151.011C149.656 150.929 149.874 150.643 150.238 150.166C149.284 152.917 153.621 149.534 151.687 153.086C154.297 151.162 155.385 152.503 156.697 152.673C157.611 151.842 158.336 151.168 159.083 150.489C159.129 150.59 159.175 150.691 159.243 150.786C158.737 151.565 158.231 152.344 157.271 153.811C159.04 152.645 160.173 151.919 161.307 151.17C161.162 151.383 161.038 151.591 160.894 151.804C161.75 152.619 162.617 153.419 163.484 154.242C163.607 153.688 163.731 153.134 163.855 152.579C164.368 152.76 164.831 153.075 165.425 153.08C165.912 153.088 166.55 152.758 167.213 152.557C167.151 153.007 167.083 153.604 166.976 154.345C167.632 153.899 168.172 153.537 168.267 153.481C169.369 153.857 170.21 154.139 171.104 154.442C173.598 152.254 174.266 153.985 174.947 154.707C176.014 153.929 176.722 153.416 177.43 152.88C177.466 153.016 177.502 153.131 177.539 153.267C177.229 153.743 176.93 154.227 176.27 155.254C178.674 154.731 180.852 154.25 182.462 153.914C183.351 154.385 183.831 154.909 184.534 154.933C185.442 154.964 186.97 154.044 187.459 154.51C188.303 155.293 189.077 155.155 190.432 153.516C190.273 155.777 190.586 155.782 192.861 153.858C194.331 156.036 197.212 155.948 199.981 155.729C202.74 155.524 205.722 155.188 209.253 153.024C209.241 153.339 209.131 153.991 209.253 154.432C209.337 154.736 209.832 155.032 210.032 154.862C211.203 153.926 212.348 152.84 213.505 151.807C214.178 151.938 214.852 152.092 216.015 152.32C216.074 151.065 216.137 150.268 216.178 149.477C216.823 147.246 217.539 147.323 218.069 148.08C218.33 146.7 218.183 144.679 218.996 143.727C220.603 141.85 220.527 140.75 220.25 139.799C220.019 138.948 219.166 138.614 218.588 138.058C218.42 138.231 218.242 138.419 218.075 138.592C218.114 137.734 218.164 136.884 218.192 136.039C218.372 135.896 218.572 135.748 218.752 135.605C219.074 135.898 219.407 136.199 219.729 136.492C219.92 136.38 220.1 136.281 220.291 136.169C220.367 135.447 220.704 134.429 220.444 134.077C220.141 133.668 219.303 133.844 218.706 133.75C217.588 133.556 219.033 135.975 217.27 135.911C216.98 134.538 217.012 133.067 216.386 132.366C216.073 132.015 214.55 133.09 213.506 133.56C214.055 131.732 214.556 130.083 215.176 128.048C215.515 128.571 215.662 128.793 215.81 129.016C215.997 128.792 216.186 128.591 216.373 128.368C216.105 128.074 215.795 127.812 215.579 127.472C215.308 127.067 214.742 126.564 214.956 126.145C216.137 123.743 215.501 123.424 213.508 124.308C216.638 122.093 218.044 119.281 218.822 116.091C218.312 116.368 217.579 116.754 216.855 117.126C217.095 116.488 217.485 116.139 217.851 115.751C218.269 115.294 218.643 114.804 219.393 113.867C218.195 113.915 217.353 113.935 216.522 113.964C216.596 113.891 216.658 113.809 216.732 113.736C215.452 113.222 214.163 112.723 212.96 112.247C213.394 111.586 213.91 110.794 214.189 110.359C212.385 110.696 210.637 111.142 209.001 111.306C207.967 111.416 207.063 111.171 206.171 110.958C205.54 110.794 205.032 110.422 204.451 110.146C204.091 110.734 204.009 110.888 203.915 111.01C203.3 111.748 202.663 112.815 202.079 113.143C200.634 113.953 199.992 113.088 201.137 112.002C201.464 112.104 201.813 112.222 202.184 112.336C202.575 111.707 202.885 111.231 203.143 110.824C202.219 109.199 200.169 110.711 198.862 111.411C198.752 109.918 198.67 108.619 198.557 107.036C197.019 109.053 195.96 110.443 194.837 111.915C194.815 111.161 194.771 110.065 194.72 108.725C196.032 109.264 196.947 108.434 197.659 106.623C197.095 106.533 196.029 106.662 196.084 106.313C196.612 103.429 195.313 105.11 194.356 106.342C194.378 105.275 194.39 104.244 194.419 103.053C194.648 102.775 195.195 101.92 195.836 101.333C197.539 99.7683 197.317 98.4911 197.21 97.4549C197.116 96.4716 196.548 93.4101 196.567 92.6233C196.578 92.2632 195.984 91.912 195.72 92.0974C193.022 93.9751 192.62 93.8803 193.02 91.0259C191.668 91.6917 190.338 92.3525 188.965 93.0234C190.034 90.4914 189.672 89.9734 187.21 90.343C187.302 90.8911 187.394 91.4392 187.502 92.129C185.551 92.6346 186.806 88.4049 183.889 90.871C183.915 90.3062 183.937 89.9546 183.935 89.9103C183.051 90.6779 182.261 91.345 181.482 92.0207C181.634 91.3145 181.796 90.5947 181.947 89.8884C182.107 89.8171 182.277 89.7322 182.437 89.6609C182.168 89.3445 181.9 89.0281 181.575 88.6468C180.27 89.782 178.943 90.9224 177.501 92.1683C177.834 91.017 178.176 89.8299 178.497 88.648C178.196 88.7189 177.918 88.7848 177.617 88.8558C177.28 89.8517 176.943 90.8476 176.467 92.2562C176.075 91.4327 175.776 90.8329 175.454 90.1938C176.047 89.417 176.576 88.7219 177.096 88.0404C174.997 89.3411 173.583 89.3957 172.626 88.4377C172.035 87.8509 171.121 87.62 170.219 87.4421C169.948 87.3834 168.892 88.1916 168.854 88.3792C168.426 90.2795 167.579 89.7979 167.277 89.4336C166.786 88.9238 166.284 88.4055 165.749 87.8393C165.911 87.4659 166.152 86.8726 166.626 85.7438C165.107 87.3206 164.018 88.4496 162.771 89.7386C162.607 87.8779 162.459 86.2032 162.324 84.5815C161.588 85.6158 161.111 86.6335 160.531 87.0725C158.23 88.8454 157.569 88.4428 158.033 85.9196C158.201 85.0308 158.187 84.1962 158.248 83.3549C158.116 83.2966 157.985 83.2382 157.854 83.1799C156.593 85.7796 155.334 86.3006 153.974 85.9628C154.594 85.4028 155.099 84.9483 155.655 84.4257C154.918 82.8793 153.495 84.7687 152.204 85.677C152.366 84.9572 152.5 84.3891 152.615 83.8928C150.519 84.2427 148.531 84.5674 146.296 84.9393C146.311 84.7345 146.327 84.1833 146.369 83.4136C147.318 83.3903 148.117 83.7267 148.547 83.3011C150.477 81.3924 151.18 82.5001 151.972 82.6368C152.771 81.9116 153.329 81.4112 153.77 81.0163C154.162 80.0188 154.564 79.0299 155.016 77.9062C156.724 79.3798 158.354 79.3632 160.33 77.1867C161.773 75.6165 163.18 73.5633 163.743 71.4636C163.938 70.7695 164.337 70.0161 164.6 69.4176C165.053 69.7686 165.407 70.0425 165.54 70.1452C166.341 68.4251 166.96 67.0833 167.772 65.3717C166.61 66.2496 165.871 66.8042 165.079 67.4048C165.877 65.5515 166.768 63.9442 167.146 62.503C167.465 61.2766 167.551 59.8261 167.058 59.2497C166.566 58.6734 165.305 58.7813 164.247 59.1321C162.515 59.7202 162.726 58.4969 162.803 56.758C163.712 57.5043 164.066 59.2306 165.842 56.5092C164.993 56.3075 164.279 55.9064 163.385 55.9948C162.481 56.0967 161.376 56.6932 159.891 57.2341C160.969 56.0966 161.503 55.5346 162.005 54.9913C160.842 55.4562 159.763 55.8786 158.419 56.4199C158.922 55.5523 159.178 55.1007 159.692 54.2195C158.196 55.1205 157.029 55.8209 155.756 56.591C155.689 56.1488 155.609 55.6537 155.54 55.1671C155.426 55.317 155.313 55.4891 155.198 55.639C154.482 55.5178 153.754 55.3881 153.038 55.2669C153.138 54.9975 153.237 54.7281 153.326 54.4501C153.542 54.4438 153.779 54.4324 153.995 54.4261C154.421 53.1522 153.46 52.061 152.327 52.485C152.039 52.5867 151.769 52.5946 151.51 52.5889C150.991 52.5774 150.482 52.5301 149.973 52.505C149.871 52.6857 149.768 52.8663 149.666 53.047C149.564 52.1661 149.44 51.2902 149.327 50.4229C149.105 50.576 148.904 50.724 148.682 50.8771C148.581 51.4486 148.479 52.0201 148.293 53.0249C147.408 53.0331 146.663 53.0415 145.713 53.0427C146.568 52.036 147.142 51.3752 148.143 50.2C146.243 50.2022 144.752 49.8505 143.028 50.3362C141.282 50.827 141.693 49.7801 142.15 48.4431C139.573 48.2253 140.824 51.751 138.631 52.437C138.961 51.2191 139.303 50.0321 139.692 48.5994C138.512 49.5711 137.257 50.5938 136.003 51.6166C135.955 51.4492 135.906 51.2818 135.858 51.1145C136.382 50.5883 136.917 50.0708 137.935 49.0594C135.773 49.3581 133.976 49.5927 132.094 49.8476C132.651 49.0007 133.106 48.3345 133.603 47.5915C133.88 47.8499 134.137 48.1133 134.414 48.3717C134.52 48.2798 134.624 48.1657 134.73 48.0738C134.569 47.0392 134.408 46.0045 134.207 44.7223C132.595 47.5055 130.753 48.7231 128.923 48.217C130.324 47.3943 131.385 46.7636 132.447 46.1551C132.441 45.9776 132.447 45.8087 132.442 45.6312C131.536 45.6665 130.63 45.7241 129.983 45.743C129.084 46.7598 128.336 47.7189 127.516 48.4935C127.254 48.7455 126.464 48.6975 126.491 48.5013C126.584 47.6636 126.869 46.7136 127.101 45.8096C124.658 47.5378 124.373 45.9737 124.109 44.3825C124.574 44.049 125.06 43.6884 125.547 43.3499C125.589 42.9489 125.631 42.5701 125.673 42.1691C124.36 43.016 123.035 43.8542 121.456 44.8642C121.895 43.6655 122.195 42.8572 122.624 41.6942C121.635 42.576 120.909 43.2057 120.204 43.8304C120.192 43.7775 120.159 43.7518 120.167 43.6716C120.218 42.8662 120.281 42.0692 120.342 41.2502C120.009 42.0106 119.785 42.8344 119.31 43.5501C118.763 44.3834 118.007 45.0984 117.349 45.8683C117.632 44.8517 118.044 44.1734 118.412 43.4831C118.432 43.4558 117.96 43.1987 117.824 43.3315C116.101 44.9453 116.582 43.3456 116.527 42.6099C116.491 42.1046 116.612 41.4836 116.684 40.6509C115.795 41.5875 115.187 42.2227 114.276 43.1643C114.899 41.6093 115.321 40.5487 115.893 39.1284C114.757 40.1121 114.072 40.7096 113.314 41.358C113.388 40.5919 113.664 39.6999 113.445 39.6174C112.462 39.2465 111.345 39.097 110.269 38.8709C110.149 38.8433 110.071 38.7612 109.962 38.72C109.47 38.5123 109.054 37.9737 108.467 38.1907C107.228 38.6622 105.904 39.5449 104.927 40.0887C104.887 39.1038 104.843 38.008 104.773 36.7619C104.836 36.7023 105.266 36.2767 105.696 35.8732C105.693 35.7623 105.679 35.6428 105.665 35.5454C104.965 35.9568 104.264 36.3682 103.436 36.8543C103.624 36.2625 103.783 35.8226 103.912 35.4235C102.294 35.8617 102.417 36.7153 102.801 37.6413C102.567 37.7636 102.312 37.891 102.078 38.0133C101.638 37.0446 101.21 36.0844 100.734 35.0012C100.27 36.0941 99.9271 36.8903 99.5429 37.7632C98.8492 37.6814 98.2426 37.6236 97.939 37.5836C98.2776 35.917 98.5995 34.4107 98.9478 32.7082C97.7593 34.1288 96.9046 35.1576 96.0493 36.1642C96.0932 36.5449 96.1605 36.9872 96.2174 37.443C95.9952 37.5961 95.7516 37.7542 95.5294 37.9073C95.4265 37.0042 95.303 36.1283 95.232 35.2065C95.159 34.2182 95.1601 33.1788 95.1293 32.1581C94.9148 32.2088 94.7114 32.268 94.4969 32.3187C94.0085 32.9593 93.5547 33.6699 93.0098 34.2233C92.5908 34.6575 91.8203 35.253 91.6012 35.1484C90.9775 34.8823 90.5811 34.2721 90.0398 33.8749C89.3113 33.3543 88.5308 32.9018 87.7269 32.3879C88.5312 31.8403 89.357 31.2875 90.1828 30.7348C89.9925 30.1541 89.8263 29.657 89.5174 28.7244C89.0569 29.9283 88.8168 30.566 88.4464 31.5362C87.8382 31.0654 87.3184 30.6631 86.9314 30.3635C86.3083 30.8348 85.8016 31.2227 85.1259 31.74C85.8892 30.1853 87.1718 28.6642 85.9751 28.0196C84.8344 30.6692 83.4157 31.9765 82.8933 31.4855C83.4762 30.398 83.9571 29.5133 84.3764 28.7326C82.0251 28.8414 79.9326 28.9337 77.5813 29.0424C77.7408 28.6025 78.0988 27.5793 78.3881 26.7846C77.6159 26.9671 76.951 27.1243 76.6722 27.1902C76.4199 26.3447 76.2641 25.8341 76.0835 25.2175C75.3448 26.5094 74.9553 27.2049 74.5548 27.8917C74.4107 27.4118 74.1607 27.0016 74.1226 26.4519C74.06 25.4499 74.1033 24.3782 74.1033 23.6631C72.3113 24.7682 71.0598 25.5332 70.2327 26.0416C68.7367 25.1437 67.4274 24.3469 65.7773 23.3514C67.4781 22.8041 68.4291 24.2554 69.4997 21.7901C68.2822 21.1727 67.0603 20.7687 66.1093 20.0326C65.3566 19.4283 64.6958 19.0035 63.4922 20.2824C63.3643 19.6199 63.25 19.0546 63.1351 18.4673C62.1038 19.7278 61.3433 20.6561 60.5828 21.5845C60.5379 21.528 60.4716 21.4767 60.4267 21.4203C60.8011 20.5832 61.1748 19.7238 61.5492 18.8867C61.4192 18.8728 61.2996 18.8452 61.1806 18.8398C60.5987 19.603 60.0065 20.3799 59.3 21.3066C59.6497 18.9334 59.5626 18.9093 57.5955 20.6591C57.7173 19.3231 57.8501 17.9956 57.9403 17.0468C56.5327 17.6477 55.3811 18.1433 54.7092 18.425C54.6164 17.1396 54.6346 16.3085 54.4734 15.6203C54.3481 15.0465 54.0228 14.6429 53.7922 14.1611C53.677 13.9202 53.6143 13.6333 53.5309 13.3737C53.2939 13.7537 52.9601 14.1455 52.8408 14.4865C52.5314 15.3306 52.3189 16.163 52.0933 16.9203C49.0096 17.459 48.5014 15.2886 48.7044 12.3467C48.082 12.8401 47.65 13.1992 46.7535 13.9139C47.5391 12.745 47.9631 12.1196 48.3766 11.5079C47.5556 10.7857 44.5342 13.3881 45.6793 9.81011C44.8628 10.6735 44.2029 11.3546 43.428 12.1634C42.6513 10.7603 41.9547 9.50597 41.0301 7.85849C40.0763 8.46381 38.5397 9.4415 36.6846 10.6062C36.8972 9.05869 37.0897 7.56065 37.3636 5.54055C36.0263 7.04098 34.8559 8.34553 33.5083 9.8596C33.3394 9.2738 33.2064 8.8024 33.0486 8.22516C33.6388 8.09686 33.993 8.02432 34.3368 7.9654C34.3164 7.6462 34.3798 7.24013 34.2548 7.03503C34.0048 6.62482 33.6288 6.3338 33.1714 5.84971C32.9381 6.70935 32.7333 7.4393 32.5382 8.13348C31.5019 8.1549 31.5448 8.14477 32.4807 5.51013C32.6597 4.99854 32.2693 4.58798 32.1474 4.12517C31.7408 4.61232 31.3121 5.08236 30.9388 5.5952C30.5238 6.16255 30.1648 6.79488 29.5773 7.72705C28.6997 6.20256 30.2842 1.79447 26.3659 4.74288C26.6539 3.90385 26.9106 3.10572 27.3672 1.76875C26.2712 2.67581 25.5711 3.45581 24.9738 3.70869C24.4513 3.93272 23.8629 3.75898 23.5831 3.43402C23.2356 3.01335 23.3352 1.66015 22.9823 1.77707C22.0412 2.08886 20.9453 2.99592 19.9284 3.66083C19.8812 3.8843 19.8235 4.12138 19.7762 4.34485C18.7558 3.81504 17.7457 3.2716 16.7253 2.74179C16.8909 2.50154 17.0564 2.26127 17.2109 2.01247C18.0605 1.8899 18.9205 1.75372 19.759 1.62259C19.8491 1.38898 19.9608 1.15031 20.0509 0.916721C19.4685 0.942633 18.8957 0.932717 18.2938 1.03028C17.703 1.1364 17.0317 1.44031 16.4512 1.5328C14.8808 1.74751 13.2896 1.98947 11.7995 2.0064C10.7094 2.0294 8.73061 3.74848 8.62752 1.7616C8.62284 1.60628 8.25756 1.67027 8.06251 1.64932C7.34533 1.50595 6.59696 1.40345 5.92068 1.18338C4.89587 0.866907 3.90088 0.465163 2.76548 0.0630797C2.84789 0.64698 2.83008 1.13163 2.82334 1.62486ZM61.0733 42.877C60.6496 43.871 60.3577 44.5769 59.8334 45.8181C61.5866 44.8563 63.319 43.9218 65.2313 42.8664C64.1233 44.0892 62.9945 45.3393 61.7922 46.6625C60.7268 46.7914 59.6034 46.7887 58.3718 47.1356C57.2903 47.4471 55.762 49.0597 55.379 47.463C57.6241 47.7705 58.8127 44.2046 61.0733 42.877ZM127.129 45.6578C127.118 45.6714 127.108 45.685 127.108 45.7072C127.119 45.6936 127.14 45.6885 127.151 45.6749C127.151 45.6749 127.14 45.6663 127.129 45.6578Z" fill="#FFEEEA"/>
</svg>
