<svg width="375" height="122" viewBox="0 0 375 122" fill="none" xmlns="http://www.w3.org/2000/svg">
<path d="M6.25181 24.6528C4.16076 23.9487 2.06972 23.2446 0 22.5404C1.77099 24.3328 3.58465 25.9758 6.25181 24.6528ZM293.622 101.958C293.601 102.299 293.601 102.619 293.58 102.961C294.625 102.961 295.671 103.025 296.695 102.918C297.058 102.875 297.378 102.406 297.719 102.129C297.335 101.872 296.951 101.403 296.588 101.424C295.585 101.51 294.625 101.787 293.622 101.958ZM4.07536 21.7936C5.03554 21.1962 5.95306 20.5134 6.8919 19.852C6.63585 19.5106 6.40113 19.1691 6.14508 18.8277C5.18491 19.5532 4.22478 20.3 3.2646 21.0255C3.54199 21.2815 3.99002 21.8363 4.07536 21.7936ZM374.747 57.1708C372.25 54.6317 374.363 51.8792 374.704 49.3187C373.253 49.4468 371.994 49.5535 370.735 49.6815C370.607 49.4254 370.479 49.1481 370.373 48.892C372.72 48.5719 373.381 47.4624 372.634 45.8834C371.461 46.2035 370.437 46.4595 368.879 46.8649C369.967 45.3713 370.607 44.4965 371.311 43.515C370.117 43.2376 369.306 43.0456 368.09 42.7469C369.092 41.9147 369.797 41.3173 370.842 40.4424C369.69 39.3542 368.559 38.2874 366.873 36.7084C366.767 35.0868 366.532 32.5476 364.846 30.3926C364.142 29.4964 363.673 28.3869 363.31 27.32C362.969 26.3598 362.926 25.3143 362.606 23.5006C360.216 26.5945 359.747 23.842 358.552 23.3939C357.271 22.9245 355.821 22.8605 354.156 22.5831V19.4465H352.065C352.257 20.3427 352.407 21.0468 352.62 22.071C351.617 21.6229 350.337 21.4096 350.23 20.9401C349.547 17.8249 347.478 18.7638 345.088 19.2545C345.6 18.2517 345.963 17.5475 346.326 16.7794C346.005 16.0539 345.579 15.1151 345.28 14.475C344.341 14.2402 342.954 14.1762 342.869 13.8135C342.442 12.1279 342.378 10.3355 342.207 8.73522C340.778 8.35115 339.476 7.98843 338.26 7.64703C338.537 6.7722 338.751 6.06805 339.071 5.12921C335.443 6.28143 330.451 5.55596 329.554 3.93433C329.682 3.55026 329.81 3.16618 330.237 1.82193C328.21 2.67542 326.781 3.25153 325.436 3.82764C325.415 3.74229 325.33 3.20888 325.202 2.48341C324.54 2.78213 324.007 3.27286 323.601 3.18751C319.91 2.46205 316.24 1.41654 312.442 2.50474C312.207 2.56875 311.908 2.67542 311.716 2.59007C309.796 1.73658 307.897 1.60856 305.763 1.99263C303.459 2.39804 301.026 2.22737 298.637 2.18469C297.89 2.16335 296.887 1.22451 296.439 1.48056C293.43 3.20888 290.272 1.03247 287.285 2.01399C286.837 2.16335 286.346 2.18466 285.706 2.29135C283.978 0.392332 281.908 2.93147 279.839 2.65408C277.641 2.35536 275.4 2.59007 272.797 2.59007C272.733 2.50472 272.37 1.94996 272.434 2.03531C270.727 1.77927 269.618 1.62991 268.274 1.43787C267.185 1.84328 265.735 2.80346 264.305 2.80346C262.065 2.78212 259.824 2.12066 257.605 1.73659C257.114 1.65124 256.432 1.28852 256.175 1.48056C254.447 2.86748 253.402 1.73661 252.313 0.584394C252.228 0.499045 251.993 0.563036 251.652 0.563036V2.2487C249.988 1.3312 248.515 -1.72004 247.449 1.30985C245.678 1.65125 244.483 1.99265 243.266 2.078C242.071 2.16335 240.855 1.97131 239.66 1.9073C238.743 4.61713 236.823 2.65409 235.372 2.99549C234.433 3.14485 233.494 3.31555 232.555 3.46491L232.406 2.76077C232.768 2.50473 233.131 2.24868 233.494 1.99263C228.096 3.72095 222.868 3.27289 217.747 0.883115C218.067 2.93149 217.214 3.69963 215.357 3.14486C214.653 2.93149 213.757 2.37672 213.223 2.61143C209.703 4.16905 206.075 2.09934 202.32 3.25155C199.866 3.99836 196.623 2.16333 193.721 1.56589C192.612 1.33118 191.374 0.968439 190.329 1.22449C187.341 1.90728 184.418 2.88879 181.73 3.65694C180.129 3.1235 178.422 2.56874 176.715 1.99263C176.609 2.206 176.502 2.41937 176.417 2.65408C176.673 3.01681 176.907 3.4009 177.462 4.23305C176.011 3.46491 174.176 4.85184 173.92 2.44073C173.899 2.27003 173.216 2.05666 172.853 2.078C172.597 2.078 172.171 2.39803 172.107 2.65408C171.594 4.44641 170.784 5.10788 169.375 3.99834C167.156 2.22735 165.94 2.99549 165.172 4.40375C163.102 4.51044 161.502 4.85185 159.987 4.61714C158.429 4.38243 156.936 3.61428 155.634 3.14486C155.847 4.51045 156.018 5.51329 156.189 6.53748C155.976 6.60149 155.762 6.64417 155.549 6.70818C154.717 5.74801 153.884 4.80916 152.988 3.76363C152.284 4.55311 151.815 5.08655 151.345 5.64132C150.556 4.76649 149.873 3.99834 149.19 3.2302C150.727 5.98271 146.907 5.25726 147.483 7.34831C145.414 3.87033 145.35 7.49766 144.837 7.47633C143.323 5.70533 142.042 4.2117 140.442 2.35536C138.692 4.46775 137.412 6.02538 136.046 7.66836C135.748 6.62283 135.492 5.66264 135.15 4.42508C134.254 5.21456 133.571 5.83334 133.358 6.02538C130.328 5.68398 127.853 5.38527 124.887 5.04388C125.506 6.21743 125.847 6.87889 126.189 7.51901L125.826 7.96708C125.207 7.62568 124.588 7.30561 124.631 7.32695C122.199 7.73236 120.342 8.05244 117.867 8.47918C118.913 7.26296 119.489 6.58017 120.065 5.91872C119.98 5.8547 119.894 5.79067 119.787 5.72665C119.275 6.19607 118.742 6.6655 118.23 7.13492C118.166 6.81486 118.081 6.51614 118.017 6.19608C114.88 5.04386 111.722 3.87032 108.692 8.37249V5.21458C107.625 5.96139 106.942 6.68685 106.11 6.9429C105.556 7.13493 104.403 6.90021 104.169 6.4948C103.315 5.00119 102.398 4.87316 101.053 5.79066C100.648 6.06805 99.9865 6.3241 99.5811 6.19608C97.6394 5.55596 96.7219 6.0894 96.9566 7.54034C93.7133 7.73237 90.5341 7.92442 87.5895 8.11645C85.6692 7.81773 83.8555 7.54034 81.7858 7.24162C82.1272 8.52185 82.3192 9.18331 82.5753 10.1435C81.4444 9.22598 80.6976 8.11645 79.8227 8.00976C77.7103 7.77505 75.5126 7.92442 73.3789 8.11645C72.7815 8.15913 72.2694 8.86323 71.6719 9.22597C71.2025 9.50335 70.5624 10.0581 70.221 9.9301C68.8767 9.39667 67.5965 8.64986 66.3163 7.9884C66.1669 8.22311 66.0175 8.45783 65.8895 8.69254C66.5296 9.18329 67.1697 9.65273 67.8952 10.2075C67.063 11.1037 66.551 11.9998 65.6122 10.1221C65.1641 9.2473 63.7558 8.13778 62.4969 9.61006C60.6405 11.7865 58.6135 12.0425 56.3091 10.3142C56.0317 10.1008 55.5409 10.1862 54.8581 10.1008C55.1569 10.9756 55.3489 11.5944 55.7543 12.7466C53.8553 11.6158 52.4683 10.8049 51.0814 9.97279C49.9932 11.1677 49.2037 12.7466 48.0942 13.024C46.942 13.3014 45.4697 12.3199 44.1255 11.9145C43.8908 11.8505 43.6134 11.8078 43.3787 11.8291C43.272 11.8291 43.1653 11.9998 42.8452 12.2772C43.4427 12.5973 44.0188 12.896 44.6162 13.2161C44.4455 13.4081 44.2535 13.6001 44.0828 13.8135C43.72 13.6428 43.4 13.4507 43.0159 13.3227C42.5678 13.1734 42.0771 13.1094 41.629 13.024C41.6717 13.7708 41.7143 14.4109 41.757 14.9017C39.7727 14.0055 37.895 13.1521 36.0173 12.3199C35.4625 13.6855 35.1638 14.4109 34.8011 15.2431C34.1183 14.859 33.5635 14.7097 33.2648 14.3469C31.3445 12.0212 29.5521 12.3199 27.6958 14.4109C27.5891 14.539 27.205 14.4109 26.9703 14.3896C28.3572 14.667 29.7442 14.923 31.7285 15.3284C31.6645 15.6698 31.4511 16.6514 31.2378 17.6542C30.1496 17.2488 29.0614 16.8221 27.4611 16.2033C27.269 16.3313 26.5649 16.8434 25.37 17.6969C25.0926 16.5233 24.8793 15.5845 24.6659 14.6457C23.663 14.6457 22.6602 14.6457 21.892 14.6457C22.084 15.8832 22.2548 17.1208 22.5108 18.8277C20.3984 17.8036 20.5904 15.7765 18.35 15.6485C14.4026 15.4351 14.424 15.0724 13.3144 16.5447C13.8692 16.63 14.36 16.7154 14.8721 16.8007C14.8081 17.0354 14.7654 17.2915 14.7014 17.5262C13.2931 17.0568 11.9062 16.566 10.4979 16.0966C10.4126 16.374 10.3486 16.6727 10.2632 16.9501C10.9247 17.1421 11.6075 17.3555 12.397 17.5902C12.2689 18.4223 12.1196 19.2118 11.9062 20.5774C10.9033 19.6172 10.3485 18.8918 9.62307 18.465C9.17499 18.1876 8.44955 18.3797 7.85211 18.3583C9.08967 20.7908 7.44668 22.3484 6.16644 24.0127C6.08109 24.1194 6.27317 24.4395 6.33718 24.6742C7.5534 24.1834 8.74825 23.4793 10.0285 23.2232C12.845 22.6471 12.8664 22.7538 13.2718 24.2901C10.6046 24.5461 8.12947 26.3171 7.89476 28.0668C8.47086 27.8748 9.0683 27.6827 9.68708 27.4694C9.83644 27.9601 10.2632 28.5576 10.1139 28.9203C9.77246 29.7525 9.15369 30.4566 8.66293 31.2034C7.93747 32.825 8.91893 33.2091 10.4766 32.6116C10.1778 33.7212 9.94313 34.6387 9.68708 35.5562H12.4183C12.0128 37.4125 11.5861 39.3115 11.0954 41.5733C15.1494 40.7625 15.0641 43.6643 15.0214 46.5662C15.2561 46.5662 15.4908 46.5662 15.7042 46.5449C16.4724 45.6061 17.2405 44.6459 18.0086 43.707C18.2006 43.8564 18.3927 44.0058 18.6061 44.1551C18.1794 44.7952 17.7739 45.4353 17.2191 46.2675C17.8379 46.5022 18.414 46.8863 19.0115 46.9289C19.6729 46.9716 20.3557 46.6942 20.6758 46.6089C20.8038 48.2732 20.9105 49.7028 20.9959 51.0257C20.1211 51.5165 19.0542 52.1139 17.8593 52.7754C18.5634 54.461 19.2462 56.0613 19.8223 57.4909C20.8465 57.3416 21.6787 57.2135 22.5108 57.1495C22.5535 57.1495 22.7242 57.9603 22.6815 57.9817C21.9774 58.2804 21.2305 58.4938 20.4837 58.7285C20.4411 59.6247 20.3771 60.6915 20.3344 61.7584C20.0997 61.8224 19.865 61.8864 19.6089 61.9291C18.9688 61.0756 18.3287 60.2434 17.8806 59.6247C16.8991 60.5422 15.9176 61.4596 14.7227 62.5692C15.1495 63.2733 15.6829 64.1481 16.2163 65.0016C14.9147 66.0258 13.6985 66.986 12.4823 67.9675C13.3144 68.7357 13.9972 69.3545 14.3813 69.6959C14.3173 70.9334 14.2746 71.8082 14.2319 72.7044C15.4695 72.2563 16.7071 71.8296 18.03 71.3602C18.7128 72.7684 16.4723 74.9235 13.2077 75.4142C13.3357 79.0843 13.3358 79.0843 9.53777 78.7642C9.66579 79.575 9.7938 80.3431 9.92183 81.218C8.7056 81.3033 7.48938 81.3887 6.65722 81.4527C5.95309 82.3489 5.52632 83.5011 4.75817 83.8211C2.62444 84.696 3.41394 85.7201 4.43813 86.9364C1.70695 87.8965 3.17924 89.9236 3.58465 91.2252C3.92605 92.292 5.50499 92.9748 6.69987 93.9563C6.18778 95.2366 3.88339 97.0503 6.93462 98.3945C7.80945 98.3092 8.62021 98.2238 9.40969 98.1598C9.15364 98.6292 8.89762 99.12 8.64158 99.5894C9.98582 99.8881 11.3941 100.208 12.8024 100.528C12.781 100.763 12.7597 100.976 12.717 101.211C13.0371 101.126 13.3784 101.062 13.6771 100.934C15.0001 100.294 16.1736 99.504 16.7711 101.894C16.8991 102.406 17.6032 104.668 19.6303 103.75C19.8436 103.643 20.8465 104.966 21.2946 105.735C21.5293 106.14 21.3586 106.801 21.3799 107.335C22.0627 107.249 22.7669 107.164 23.471 107.057C23.0443 106.311 22.8095 105.905 22.5748 105.478C22.7455 105.35 22.9162 105.222 23.0656 105.073C24.7939 106.78 25.178 109.789 27.9091 110.535H24.3031C25.9461 111.965 27.2264 113.075 28.4426 114.141C28.4426 114.077 28.5493 113.565 28.656 112.925C29.9362 113.352 31.0031 113.608 29.8508 115.166C29.2747 115.912 28.912 116.809 28.5066 117.555C30.0002 117.833 31.4298 118.089 32.9234 118.366V121.289C34.1396 119.924 34.9718 118.985 35.8253 118.025C35.996 119.049 36.124 119.881 36.2947 120.969C38.8338 118.836 42.5039 122.826 44.2535 118.814C46.1952 119.625 47.1341 119.092 47.9449 116.424C49.7372 119.582 52.3403 119.39 55.1568 118.409C56.0957 120.372 57.0985 120.585 58.3574 119.22C58.8055 118.75 59.531 118.259 60.1285 118.281C61.4514 118.302 62.7529 118.665 64.0545 118.814C64.5879 118.878 65.1214 118.772 65.6548 118.75C65.5054 118.174 65.3774 117.577 65.2708 117.171C66.3803 117.001 67.6179 116.809 69.0048 116.595C66.5723 115.123 68.6634 114.739 69.1968 113.928C70.0503 114.888 71.0745 115.592 71.3945 116.531C72.0347 118.388 73.1015 118.025 74.3391 117.47C74.7658 117.278 75.1925 116.702 75.5553 116.745C77.9664 117.107 80.3562 117.619 82.5113 118.025C83.002 117.107 83.4288 116.339 83.8555 115.571L84.3889 115.763C84.517 116.403 84.645 117.022 84.9224 118.281C85.3918 117.171 85.6265 116.617 85.8612 116.083C85.9679 116.296 86.0532 116.51 86.1599 116.745C87.6108 116.168 89.0618 115.614 90.6195 114.995C91.3663 112.242 91.7503 111.986 94.1828 112.989C93.3933 113.245 92.8385 113.416 92.3051 113.587C92.6038 114.504 92.8599 115.272 93.2013 116.382C94.5242 115.891 95.6977 115.464 97.0419 114.974V117.769C97.9168 116.617 98.3862 116.019 98.6209 115.742C100.819 115.571 102.718 115.443 104.553 115.294C104.126 114.525 103.678 113.715 102.846 112.178C105.748 113.821 107.433 116.254 110.57 115.336C113.088 114.611 115.52 114.056 116.438 111.112C117.291 111.047 118.187 110.962 119.105 110.877C119.147 111.474 119.19 112.029 119.297 113.117C120.812 112.328 122.007 111.666 123.223 111.069C124.396 110.493 125.591 109.511 126.53 111.496C126.679 111.794 127.789 111.794 128.386 111.645C128.963 111.496 129.432 110.898 130.008 110.663C130.456 110.493 130.99 110.578 131.502 110.535C131.31 111.026 131.118 111.517 130.819 112.242C133.529 112.392 136.153 112.52 138.863 112.669C138.692 112.285 138.436 111.73 138.202 111.197C138.351 111.026 138.5 110.855 138.65 110.706C139.29 111.176 139.951 111.645 140.463 112.008C143.28 111.538 146.288 111.048 149.468 110.535C149.126 109.767 148.892 109.234 148.422 108.167H153.906C152.647 109.362 151.601 110.322 150.577 111.282C150.705 111.538 150.855 111.794 150.983 112.05C152.754 110.237 154.375 109.789 156.296 111.73C156.765 112.2 158.771 111.88 159.496 111.24C161.587 109.447 162.142 109.319 164.169 111.474C165.897 110.066 167.007 110.898 168.031 112.989C168.415 111.752 168.693 110.877 168.97 110.002C169.866 110.13 171.253 109.917 171.594 110.429C172.469 111.709 172.896 112.072 174.198 110.834C174.966 110.109 176.63 110.322 177.334 109.575C178.913 107.911 178.764 107.762 180.492 108.359C180.108 108.551 179.639 108.764 179.148 108.999C179.553 109.341 180.023 110.045 180.364 109.981C181.388 109.831 182.476 109.554 183.266 108.956C183.629 108.7 183.287 107.548 183.309 106.801C183.33 106.055 183.415 105.286 183.458 104.54C183.991 104.604 184.525 104.646 185.656 104.774C184.674 105.35 184.247 105.606 183.671 105.927C184.119 106.844 184.525 107.676 184.76 108.188C186.125 107.143 187.299 106.247 188.472 105.35C188.707 105.649 188.963 105.948 189.198 106.247C188.472 106.844 187.747 107.463 186.957 108.124C188.28 107.89 189.688 109.917 190.969 107.954C191.353 107.356 191.139 106.375 191.225 105.372C191.801 105.628 192.441 105.905 193.038 106.14C192.932 107.079 192.846 107.847 192.697 109.234C194.681 108.231 196.154 107.484 197.605 106.759C197.541 106.545 197.455 106.353 197.391 106.14C196.602 106.183 195.834 106.225 195.044 106.268L194.852 105.35C196.026 105.137 197.199 104.902 198.373 104.71C199.077 104.582 199.866 104.689 200.485 104.39C201.189 104.049 201.744 103.387 202.363 102.875C203.899 104.625 205.35 105.393 207.42 104.284C208.039 103.964 208.956 104.22 209.746 104.22C209.489 104.881 209.212 105.542 208.721 106.78C211.73 107.655 214.653 108.487 217.299 109.255C218.195 108.103 218.963 107.143 219.689 106.204C218.899 106.012 217.96 105.799 217 105.564C217.043 105.329 217.107 105.073 217.15 104.838C218.11 105.03 219.198 105.009 220.009 105.478C220.692 105.884 221.076 106.844 221.844 107.911C222.548 104.518 221.545 103.985 226.005 103.857C226.879 102.982 227.349 102.534 227.861 102.022C228.949 103.878 229.888 105.457 230.997 107.335C231.744 107.249 232.96 107.121 234.39 106.951C233.985 106.119 233.729 105.585 233.366 104.838C235.137 105.692 236.673 106.801 237.911 104.412C238.167 103.9 239.554 103.473 240.108 103.707C241.901 104.476 242.925 103.43 244.077 102.491C244.248 102.342 244.504 102.299 244.717 102.235C245.08 102.811 245.421 103.345 245.912 104.156C246.744 103.281 247.406 102.577 248.025 101.915C251.268 103.857 254.426 102.619 257.968 101.872C258.245 102.235 258.736 102.875 259.163 103.43C260.72 102.769 262.449 102.064 264.156 101.339C264.348 101.766 264.561 102.193 264.753 102.619C263.793 103.089 262.833 103.558 261.723 104.092C262.577 105.137 263.43 106.161 264.369 107.313C264.817 106.993 265.265 106.695 265.969 106.225C265.158 105.948 264.668 105.799 264.198 105.628V105.222C266.097 104.86 267.996 104.518 269.895 104.156C269.853 103.878 269.81 103.601 269.767 103.323H265.564C265.521 103.003 265.5 102.683 265.457 102.363C267.313 102.214 269.17 102.022 271.026 101.958C271.154 101.958 271.325 102.811 271.24 102.598C273.352 102.235 275.486 101.872 277.598 101.51C277.662 101.723 277.747 101.958 277.811 102.171C277.299 102.619 276.787 103.046 276.211 103.537C277.982 104.07 279.604 104.561 281.204 105.052C281.097 104.732 280.991 104.412 280.884 104.092C282.292 103.174 284.383 104.476 286.389 103.622C284.682 103.046 283.402 102.598 281.673 102.022C285.557 100.208 287.989 102.107 290.358 104.22C290.507 104.006 290.678 103.793 290.827 103.579C290.123 103.089 289.398 102.598 288.608 102.065C289.099 101.339 289.568 100.635 290.166 99.7601C290.571 100.528 290.827 101.019 291.297 101.915C292.214 100.784 292.961 99.8454 293.686 98.9493C295.479 99.4827 297.292 100.037 299.106 100.592C299.106 100.784 299.106 100.998 299.085 101.19C300.472 100.422 301.859 99.6534 303.886 98.5225C305.337 99.504 307.577 100.998 309.839 102.513C309.988 102.342 310.159 102.15 310.308 101.979C309.625 101.51 308.964 101.019 308.217 100.486C308.708 100.358 309.135 100.23 309.369 100.165C308.964 99.4614 308.58 98.8212 308.196 98.1598C308.302 97.9251 308.409 97.6904 308.516 97.4557C312.314 101.488 314.149 97.9037 316.176 95.77C316.603 96.5808 316.901 97.1569 317.2 97.7544C317.755 97.285 318.31 96.8369 318.95 96.2821C319.355 96.5381 319.953 96.9222 320.059 96.9862C322.492 95.834 324.476 94.8952 326.759 93.807V96.8582C328.658 96.0687 330.173 95.0445 331.773 94.8952C333.288 94.7458 334.889 95.514 336.724 95.9194C337.214 96.3248 338.025 96.9862 338.836 97.669C339.028 97.5624 339.22 97.4556 339.391 97.3703C338.9 95.0232 340.095 93.1242 341.973 94.0203C344.618 95.2579 346.71 93.2309 349.057 93.8283C349.313 93.8923 349.718 93.4656 350.38 93.0602C349.483 92.9322 348.95 92.8681 348.438 92.8041C348.438 92.5054 348.438 92.1853 348.438 91.8866C349.27 91.9293 350.401 91.6732 350.87 92.1213C351.596 92.8041 351.873 93.9563 352.492 95.1939C353.175 93.5296 354.092 92.3561 354.007 91.2679C353.9 89.8596 354.007 88.9848 355.479 89.2621C355.927 89.3475 356.162 90.6917 356.674 91.8866C357.015 91.8653 358.146 92.1427 358.552 91.7372C359.661 90.6064 360.621 90.2437 362.03 91.0972C362.243 91.2252 363.246 90.6917 363.267 90.4143C363.374 89.3475 363.225 88.2593 363.182 87.2138C362.094 87.9179 360.963 88.6433 359.853 89.3688C359.704 89.1768 359.576 88.9848 359.427 88.7927C359.896 87.7472 360.344 86.6803 360.984 85.2294C359.768 85.6988 359.149 85.9548 358.018 86.3816C358.509 85.2507 358.786 84.5893 359.043 83.9705C362.969 84.888 363.203 84.76 364.889 81.1967C363.886 81.9008 362.926 82.5836 361.987 83.245C361.838 83.117 361.688 82.989 361.56 82.861C361.902 81.5807 362.222 80.3218 362.563 79.0416C362.392 78.9776 362.222 78.9349 362.051 78.8709C361.539 79.6603 361.006 80.4712 360.451 81.3033C358.722 78.5081 359.427 76.0117 362.328 74.8168C361.326 74.326 360.408 73.878 359.469 73.4299C360.344 70.8907 359.789 69.8239 357.186 69.2264C357.357 69.8239 357.506 70.3573 357.784 71.3175C356.653 70.592 355.906 70.1226 354.519 69.2264C357.208 68.3089 359.277 67.6048 361.326 66.9007C361.283 66.7299 361.24 66.5593 361.198 66.3886H355.757C355.799 66.3032 356.034 65.4497 356.269 65.4497C358.296 65.4284 360.301 65.5778 362.222 65.6631C363.545 64.5963 365.358 62.2491 366.276 62.5692C369.263 63.572 367.535 61.545 367.641 61.2036C370.159 59.7313 372.4 58.4724 374.747 57.1708ZM6.25181 24.6528L6.29446 24.6742C6.29446 24.6742 6.29444 24.6528 6.2731 24.6315L6.25181 24.6528Z" fill="#FFEEEA"/>
</svg>
