<svg width="255" height="77" viewBox="0 0 255 77" fill="none" xmlns="http://www.w3.org/2000/svg">
<path d="M241.512 17.5241C241.483 17.5529 241.454 17.5817 241.425 17.6249C241.613 17.6825 241.787 17.74 241.961 17.7976C241.801 17.6968 241.657 17.6105 241.512 17.5241ZM18.0613 27.931C18.0613 27.931 18.0613 27.9166 18.0613 27.931C17.5837 29.3704 17.5837 29.3704 18.3652 29.6871C19.1901 28.3341 20.0006 27.0242 20.7821 25.7431C20.3913 25.5992 19.9716 25.4265 19.8269 25.3833C19.2046 26.2613 18.6257 27.0962 18.0613 27.931C18.0468 27.931 18.0179 27.9454 18.0034 27.9454C18.0034 27.9598 18.0179 27.9742 18.0179 27.9886L18.0613 27.931ZM31.1586 19.0931C31.1731 18.6756 30.3916 18.2294 29.7114 17.5385C29.6246 18.7908 29.5667 19.5969 29.5088 20.3885C29.7114 20.4893 29.914 20.5901 30.1022 20.7052C30.4785 20.1726 31.1442 19.64 31.1586 19.0931ZM5.6297 37.4311C6.25201 37.3736 6.84534 37.3304 7.64131 37.2728C7.49659 36.5819 7.36636 35.9629 7.16375 34.9266C6.99009 35.6751 6.91771 36.0061 6.83088 36.3228C6.7151 36.3228 6.59935 36.3228 6.49804 36.3228C6.36779 35.1425 6.23753 33.9478 6.07834 32.5515C4.09565 34.1781 6.13623 35.8766 5.6297 37.4311ZM0 35.1281H4.73243C3.22733 34.2069 1.72219 33.7318 0 35.1281ZM172.61 25.3113C172.219 25.2681 171.828 25.2249 171.438 25.1674C171.278 25.153 171.105 25.1242 171.061 25.1098C170.569 25.8583 170.178 26.4484 169.571 27.3697C170.482 27.0674 171.032 27.0098 171.394 26.7219C171.886 26.3621 172.219 25.8007 172.61 25.3113ZM77.3539 25.8727C77.3683 25.9734 77.3828 26.0166 77.3539 25.8727V25.8727ZM249.906 54.7904C250.774 53.826 251.324 53.2071 251.917 52.5593C251.382 52.5162 251.093 52.4874 250.803 52.473C250.948 51.3071 250.094 51.5805 249.443 51.4798C248.777 51.379 248.126 51.1919 247.46 51.0479C247.648 50.6737 247.778 50.4146 247.967 50.0692C246.389 50.2275 244.855 51.0768 244.03 49.3639C243.017 49.6805 242.12 49.9684 241.136 50.2707C241.222 49.954 241.28 49.6949 241.44 49.0328C240.354 49.2631 239.442 49.5942 238.545 49.5942C237.329 49.5942 235.766 49.7381 235.014 49.076C234.16 48.3275 234.015 46.7585 233.436 45.2183C232.771 46.1396 232.308 46.7729 231.844 47.4062C231.7 47.2911 231.57 47.176 231.425 47.0752C231.642 46.5858 231.859 46.0964 232.221 45.2471C231.497 45.6789 231.106 45.9092 230.614 46.1827C231.005 44.441 231.005 44.3979 232.409 44.6858C233.625 44.9449 234.811 45.6214 235.998 45.5926C237.387 45.5494 238.748 44.9305 239.674 44.6858C240.209 43.6782 240.47 42.6562 241.121 42.1236C241.816 41.5766 242.887 41.5191 243.842 41.2312C243.191 40.5403 242.771 40.094 242.351 39.6478C242.38 39.5039 242.409 39.3743 242.438 39.2304C243.466 39.6478 244.754 40.4395 244.059 38.4099C244.03 38.3092 244.334 38.1221 244.45 37.9493C244.783 37.4599 245.087 36.9561 245.405 36.4523C244.609 36.8985 242.018 37.244 241.44 36.6971C241.28 36.5387 241.136 36.1213 241.222 35.9917C241.396 35.747 241.729 35.5311 242.033 35.5023C242.308 35.4735 242.612 35.6751 243.075 35.8478C243.017 35.2288 242.974 34.8114 242.916 34.2644C240.137 35.7039 240.195 32.7818 239.153 31.875C238.878 32.5084 238.675 32.9978 238.299 33.8902C237.764 32.9258 237.489 32.422 237.156 31.8318C236.693 32.1197 236.259 32.3932 236.143 32.4796C235.434 31.8606 234.884 31.3712 234.261 30.8386C234.218 30.9106 234.377 30.6371 234.652 30.1189C233.9 30.3492 233.451 30.4932 232.915 30.6659C232.8 29.8599 232.698 29.1833 232.612 28.55C232.033 28.4348 231.512 28.2477 230.991 28.2621C230.426 28.2765 229.862 28.478 229.283 28.6076C228.863 27.8015 226.765 27.0962 225.839 27.528C225.925 27.8303 226.027 28.1325 226.07 28.2909C224.985 28.6076 223.914 28.9098 222.814 29.2265C223.074 28.6507 223.277 28.1757 223.494 27.7151C223.364 27.6 223.234 27.4992 223.103 27.3841C222.51 27.8879 221.931 28.3917 221.222 28.9818C221.005 28.4061 220.788 27.8447 220.527 27.1538C219.804 27.9886 219.181 28.6939 218.53 29.4568C217.546 28.7371 216.663 28.5212 216.316 30.0182C212.828 29.1977 209.442 28.406 205.896 27.5712C206.185 28.0462 206.417 28.406 206.634 28.7659C206.562 28.8235 206.489 28.8811 206.417 28.9386C205.954 28.6795 205.505 28.406 205.404 28.3485C204.738 28.622 204.304 28.9818 204.072 28.881C203.696 28.7083 203.276 28.2909 203.175 27.8879C203.059 27.4272 203.305 26.8803 203.262 26.3765C203.247 26.1462 202.886 25.9446 202.683 25.7287C202.524 25.9878 202.278 26.2325 202.22 26.5204C202.119 26.9666 202.133 27.4272 202.09 27.8879C201.728 27.5712 201.381 27.2689 200.773 26.7363C200.44 27.3697 200.15 27.9166 199.658 28.881C199.253 28.7227 198.37 28.3773 197.545 28.0462C197.256 28.3629 196.793 28.8811 196.156 29.5864C195.707 28.6507 195.389 28.003 195.244 27.7007C194.405 28.478 193.45 29.3417 192.147 30.522V27.8159C191.858 28.2909 191.554 28.7659 191.12 29.4712C190.063 29.1977 188.587 29.3992 188.081 27.4848C187.892 26.8083 186.894 26.3477 186.257 25.8007C187.328 24.4909 188.37 25.0522 190.859 28.4204C190.99 28.3341 191.12 28.2621 191.264 28.1757C191.004 27.7295 190.613 27.3265 190.497 26.8515C190.324 26.1893 190.353 25.4696 190.295 24.7787C190.425 24.6924 190.57 24.606 190.7 24.5196C191.076 25.3833 191.467 26.2469 191.843 27.1106C192.089 26.8947 192.321 26.6644 192.567 26.4341C192.422 26.9091 192.278 27.3841 192.133 27.8591C192.538 27.0818 192.943 26.3189 193.363 25.5416C193.406 25.7 193.435 25.8727 193.479 26.031C194.752 26.031 196.04 26.031 197.314 26.0166C197.386 26.0166 197.43 25.7575 197.545 25.7C198.139 25.3545 198.747 25.0378 199.354 24.7212C199.456 24.6636 199.586 24.6636 200.136 24.5196C199.253 24.4045 198.833 24.3325 198.414 24.2749C198.443 24.0015 198.457 23.7855 198.472 23.7136C197.285 23.8719 196.142 24.0302 194.998 24.1742C194.723 23.9295 194.434 23.6848 194.159 23.4401C197.213 24.3469 195.215 22.4181 196.127 21.9719C196.489 22.2885 196.88 22.6484 197.343 23.0802C197.589 22.706 197.806 22.4037 197.777 22.4325C199.051 22.5477 200.064 22.6484 201.525 22.7779C200.961 21.9575 200.744 21.6408 200.425 21.1802C201.829 21.3817 202.972 21.5401 204.637 21.7704C203.551 22.1014 202.886 22.3029 202.003 22.562C203.074 23.253 204.058 23.8863 205.056 24.534C204.897 24.6204 204.738 24.7212 204.579 24.8075C204.492 25.3401 204.42 25.8727 204.333 26.4053C204.796 26.2325 205.259 26.0742 205.708 25.8871C205.968 25.7863 206.185 25.556 206.431 25.4984C207.951 25.153 209.485 24.8363 211.28 24.4477C209.876 23.2673 209.876 23.2674 207.169 24.7499C207.792 23.9151 208.211 23.3393 208.66 22.7492C208.588 22.6628 208.4 22.4325 208.211 22.2022C208.472 22.2166 208.761 22.1446 208.964 22.2454C210.831 23.1234 212.698 23.3969 213.06 20.4029C214.203 20.9787 215.361 21.5832 216.793 22.3173C216.909 22.8931 217.141 23.9295 217.285 24.6636C218.139 23.656 218.892 22.7492 219.905 21.5257C220.223 22.5045 220.455 23.2242 220.701 23.9583C221.511 21.8136 222.944 22.3749 224.782 23.181C224.073 22.4325 223.784 22.1302 223.581 21.9287C224.579 21.6264 225.462 21.3098 226.36 21.0795C227.17 20.8779 228.198 20.4317 228.776 20.734C230.412 21.5976 230.759 20.7916 231.208 19.4961C231.15 20.4173 231.092 21.3385 231.034 22.2598C231.627 20.806 232.293 21.2522 233.161 21.8567C233.726 22.2454 234.478 22.3893 235.173 22.5189C235.795 22.634 236.461 22.6052 236.722 22.6196C238.371 20.8923 239.934 19.2514 241.512 17.5961C241.251 17.5097 240.962 17.409 240.6 17.2938C241.179 16.6029 241.628 16.0847 242.062 15.5521C242.467 15.1635 242.887 14.7748 243.292 14.3718C242.8 14.1415 242.293 13.9112 241.801 13.6953C242.076 13.7816 242.351 13.868 242.641 13.9544C242.67 13.8968 242.699 13.8248 242.742 13.7673C241.729 12.918 240.716 12.0831 239.703 11.2339C239.182 11.6945 238.632 12.1983 238.068 12.7021C238.4 12.7453 238.733 12.7885 239.066 12.8316C238.849 13.6665 238.675 14.3718 238.487 15.0627C238.343 15.1203 238.198 15.1923 238.053 15.2498C237.547 13.8536 237.04 12.4574 236.533 11.0468C236.461 11.0756 236.244 11.1907 236.027 11.3059C235.94 10.9604 235.868 10.6293 235.694 9.93842C235.463 11.3202 235.289 12.3278 235.057 13.6089C234.449 12.9036 234.131 12.5437 233.827 12.1839C233.335 12.5725 232.944 12.8748 232.568 13.1915C232.394 13.1339 232.235 13.0619 232.062 13.0044C232.206 12.3566 232.366 11.7089 232.525 11.018C232.308 10.7733 231.917 10.3127 231.396 9.69372C232.322 9.30508 233.046 9.0028 233.972 8.61416C233.031 10.6005 233.263 11.4066 234.58 11.7089C234.58 11.018 234.551 10.3127 234.594 9.60736C234.638 8.80129 234.753 7.99523 234.855 6.98764C234.449 7.3475 234.218 7.54901 233.986 7.75053L233.654 7.57779C234.073 6.75732 234.493 5.92246 234.913 5.102C234.724 4.98685 234.522 4.87171 234.334 4.75656C233.856 5.53384 233.364 6.31112 232.901 7.07401C231.034 5.56263 231.034 5.56263 232.221 5.03005C232.148 4.88611 232.076 4.74216 232.018 4.59822C231.063 5.11641 230.093 5.6346 229.428 5.99445C229.037 5.50505 228.704 5.08761 228.371 4.65579C228.255 4.82852 228.14 5.01565 228.024 5.18838C227.734 5.47626 227.445 5.76413 227.156 6.05202C226.721 5.46186 226.273 4.8717 225.81 4.25275C225.636 4.46867 225.361 5.08761 224.912 5.28913C224.16 5.63459 223.277 5.85049 222.452 5.86488C221.902 5.87928 221.352 5.46186 220.802 5.20277C220.426 5.03004 220.064 4.79974 219.688 4.59822C219.297 4.3967 218.921 4.16639 218.516 4.05124C217.647 3.79214 216.764 3.59063 215.853 3.36033C216.2 4.92928 214.854 5.15958 213.638 5.46185C213.233 4.43987 212.842 3.4467 212.611 2.87093C211.627 2.75578 211.005 2.55426 210.455 2.64062C209.109 2.88532 207.98 0.121647 206.677 2.33834C205.954 1.97848 205.331 1.66183 204.449 1.23001C204.724 1.83456 204.883 2.1944 205.303 3.08684C204.087 2.78456 203.363 2.59744 202.611 2.39593C201.844 3.57624 197.603 2.9141 196.605 1.1868C196.185 2.13682 195.809 3.00047 195.519 3.69139C195.172 3.02926 194.94 2.07925 194.318 1.56107C193.841 1.15803 192.885 1.30197 192.118 1.20121C192.118 1.20121 192.06 1.53228 191.988 1.9641C190.541 0.625448 186.735 1.50348 185.476 3.34592C184.897 2.4103 186.3 0.870138 184.332 0.222403C183.884 0.826955 183.392 1.4747 182.856 2.2088C181.626 1.83455 181.481 1.27318 182.436 0.56787C180.266 -1.33215 180.613 2.15122 179.151 2.12243C179.108 1.57546 179.064 1.11484 179.064 1.05726C177.762 0.79817 176.705 0.596659 175.577 0.366353C175.258 0.826964 174.81 1.50349 174.346 2.16561C171.973 0.611053 169.238 0.279983 168.485 1.2156C169.339 1.9497 170.164 2.65502 171.119 3.47548V1.84894C171.857 2.25198 172.407 2.56864 173.015 2.89971C172.494 3.46108 172.161 3.82094 171.698 4.32473C170.989 3.87851 170.309 3.34593 169.556 3.00047C168.456 2.48229 167.313 1.31637 166.083 2.30956C165.33 2.91412 164.983 4.02246 164.476 4.87171C164.187 3.95049 163.869 2.92849 163.536 1.90651C163.391 1.9209 163.261 1.93532 163.116 1.94971C163 2.59745 162.885 3.25956 162.769 3.8929C161.611 3.54744 160.96 2.95729 162.06 1.76258C161.336 1.99289 160.656 2.45351 160.149 2.30956C159.744 2.18002 159.556 1.33075 159.266 0.783772C158.847 1.63302 158.514 2.28076 158.181 2.94289C158.007 2.94289 157.834 2.94289 157.675 2.94289C157.935 1.46029 157.732 0.668617 156.025 1.02847C155.084 1.22999 154.013 0.769385 152.986 0.61105V1.83456C151.973 1.57546 151.104 1.41712 150.279 1.12924C149.932 1.01409 149.671 0.654241 149.382 0.395147C149.078 0.841364 148.673 1.25879 148.485 1.76258C148.354 2.06486 148.528 2.49668 148.572 2.95729C148.108 2.91411 147.674 2.87091 147.284 2.82773C147.312 2.09363 147.341 1.43151 147.37 0.783772C147.255 0.769378 147.124 0.754986 147.009 0.740592C146.589 1.30196 146.169 1.84894 145.952 2.13682C145.446 1.6906 144.881 0.985307 144.693 1.07167C143.362 1.71941 142.884 0.726196 141.799 0.0640675C141.929 0.74059 142.059 1.40273 142.247 2.39593C141.668 1.9785 141.205 1.66183 140.887 1.43152C139.787 2.06486 138.745 2.65502 137.515 3.36033C137.399 2.84214 137.312 2.42471 137.24 2.05046C136.502 2.35274 135.749 2.66942 134.895 3.02927V2.13682C134.316 2.13682 133.549 2.36713 133.245 2.09364C132.001 0.913324 131.48 1.87773 130.756 2.97168C130.105 2.05046 129.526 1.22999 128.817 0.222403V1.56107C128.716 1.46031 128.614 1.34515 128.513 1.24439C127.514 2.16562 126.53 3.13002 125.488 4.00806C124.982 4.42549 124.345 4.92927 123.752 4.94366C123.057 4.95806 122.348 4.48306 121.624 4.20957C122.854 4.10881 123.853 4.03684 125.083 3.93608C124.142 2.35273 123.491 2.6694 123.129 3.37471C121.841 3.20198 120.77 3.05804 119.685 2.89971C119.28 2.52546 118.802 2.06485 118.31 1.61863C118.194 1.71939 118.079 1.82016 117.948 1.92092C118.079 2.29516 118.209 2.66942 118.281 2.87093C117.312 2.97169 116.168 2.75578 115.676 3.23079C115.126 3.76337 115.17 4.8861 114.837 6.28233C114.461 5.03004 114.243 4.26715 114.041 3.60502C111.537 3.54745 109.019 3.1876 108.715 6.98764C108.281 5.6346 107.992 4.72775 107.702 3.82093C107.499 3.82093 107.297 3.82094 107.08 3.83533C106.935 4.51186 106.805 5.20277 106.646 5.99445C105.719 5.64899 104.706 5.28913 104.041 5.04443C103.693 5.67777 103.462 6.06641 103.216 6.49823C103.505 6.88687 103.795 7.27551 104.098 7.69294C103.331 8.61416 102.868 8.38387 102.289 7.54901C102 7.13158 101.378 6.67096 100.9 6.68536C99.3226 6.69975 97.6873 7.08839 96.8479 5.24595C96.3414 5.51944 95.9506 5.73536 95.5454 5.95127V4.19519C94.3587 4.98686 93.7364 6.23915 92.7378 6.75733C91.7827 7.26113 90.4222 6.98763 89.1776 7.0596C89.2355 7.40506 89.3079 7.77931 89.3513 8.05279C88.0778 8.74371 86.0372 8.45582 86.645 11.2195C84.836 10.4134 83.3888 9.78008 81.956 9.13235C82.0139 8.94523 82.0718 8.7581 82.1297 8.57098C82.6652 8.62856 83.1862 8.68614 83.9532 8.75811C83.8085 8.15356 83.7072 7.73612 83.6493 7.46263C82.7086 7.66415 81.9994 7.8081 81.3048 7.95205C81.0298 8.48463 80.7114 9.11797 80.3062 9.90964C79.7707 9.2907 79.3366 8.7869 78.7577 8.11038C78.3525 8.93085 77.9906 9.66494 77.5999 10.4854C76.2395 8.45583 76.2395 8.45584 74.2858 10.3559C73.2583 9.85206 72.0136 8.8013 71.5216 9.07478C69.756 10.0968 68.1351 9.95282 66.355 9.08917C66.5721 10.0968 66.7457 10.9172 66.8326 11.3059C66.08 11.1763 65.2262 10.7445 64.792 11.0036C63.3593 11.8816 62.0712 13.0188 60.7398 14.0407C59.9004 13.1339 58.7282 12.3422 60.6674 11.2339C59.5097 11.1907 58.4677 11.0755 57.5993 11.421C56.0363 12.04 54.6904 13.1915 52.7946 12.5294C52.3604 12.3854 51.7236 12.8028 51.2026 12.9612C51.3763 14.5301 51.3763 14.5301 49.5962 14.4006C49.3647 13.8536 49.1476 13.3354 48.945 12.8172C48.6989 12.9468 48.4674 13.0619 48.2213 13.1915C48.7713 14.0839 49.3068 14.9763 50.1751 16.3726C48.8871 15.8832 48.0042 15.5665 47.1214 15.221C47.1504 15.0339 47.2228 14.7173 47.3241 14.2135C45.3124 15.5953 44.0534 17.8408 41.3181 17.6249C41.13 18.0423 40.8984 18.5317 40.609 19.1506C39.6972 17.7976 38.8868 16.5741 37.8158 14.9908V19.2802H37.2804C37.237 18.5893 37.208 17.884 37.1791 17.2794C35.9055 17.9991 34.8635 18.5893 33.8071 19.1794C33.7492 19.0931 33.6768 19.0067 33.6189 18.9203L34.0675 18.1862C33.9373 18.0567 33.8215 17.9415 33.6913 17.812C32.5769 18.8915 31.5928 20.115 30.8258 21.209H27.1354C27.584 20.7196 27.8879 20.3885 28.1629 20.0863C27.2512 20.0143 26.4262 19.9423 25.4276 19.8559C25.7605 20.3022 26.0065 20.6332 26.2236 20.9499C24.9066 21.1514 23.662 21.3241 22.8082 21.4537C22.6345 22.6196 22.5187 23.4545 22.3885 24.3325C22.6056 24.6636 22.9095 25.153 23.2568 25.628C23.4739 25.9303 23.7344 26.2037 23.9804 26.4772C23.6765 26.3621 23.3871 26.175 23.0687 26.1462C22.8661 26.1318 22.5911 26.2757 22.4464 26.4341C21.7662 27.1825 21.086 27.931 20.4492 28.7227C20.0295 29.2409 19.7111 29.8454 19.3493 30.4068C19.4796 30.5076 19.6243 30.6227 19.7545 30.7235C20.3334 30.6083 20.8979 30.4932 21.4912 30.3636C20.3045 32.1341 18.8573 31.069 17.6271 30.5796C17.3811 31.4 17.2075 31.9758 16.9325 32.8538C16.5128 32.3068 16.1799 32.0621 16.2234 31.8894C16.5128 30.6227 16.8456 29.3561 17.2509 28.1182C17.3088 27.9454 17.7864 27.9166 18.1192 27.8447C17.9021 27.2113 17.685 26.578 17.4679 25.9159C15.4997 26.7363 16.9325 29.5144 14.5301 30.2485V26.4772C14.8774 26.9378 15.1668 27.3265 15.4563 27.7151C15.5576 27.6719 15.6589 27.6288 15.7457 27.5856C15.7023 26.9235 15.6589 26.2469 15.6155 25.5992C15.0366 25.4265 14.5446 25.2969 14.0236 25.1386C13.7486 25.8439 13.4592 26.5492 13.3144 26.9235C12.4606 27.2689 11.8383 27.456 11.2738 27.7871C10.7818 28.075 10.3766 28.5068 9.94239 28.881C9.79767 28.7803 9.65296 28.6795 9.50824 28.5788V31.0402H10.8686C10.4345 30.7523 10.1161 30.5364 9.81214 30.3348C9.87003 30.2197 9.92791 30.1046 9.9858 29.9894C11.0712 30.3061 12.1566 30.6227 13.2565 30.9394C12.5908 31.5871 11.983 32.1773 11.2159 32.9258C10.6226 32.5803 8.7991 33.5879 8.91487 31.2993C8.29257 31.4144 7.80054 31.5008 7.30848 31.5871C7.68476 33.2569 8.04655 34.8546 8.46624 36.7546C9.01618 35.7326 9.46481 34.9266 9.89897 34.1205C10.3331 34.466 10.6371 34.6819 10.9265 34.9122C10.9121 34.7682 10.912 34.6099 10.8976 34.466C11.8527 34.1349 12.7934 33.7894 13.7486 33.4584C13.8499 33.6887 13.9512 33.9334 14.0525 34.1637C13.6328 34.3796 13.2131 34.5667 12.8079 34.8114C12.3014 35.1281 11.8093 35.4735 11.3173 35.8046C11.7659 36.1501 12.1856 36.6827 12.6921 36.7834C13.0539 36.8554 13.6617 36.4523 13.9222 36.0781C14.6024 35.1281 15.3116 35.0273 16.1799 35.747C16.4549 35.9773 16.6575 36.3084 17.0482 36.7978C16.7443 34.3508 17.9166 32.6955 19.6533 32.7674C19.3059 33.5879 18.973 34.4084 18.6836 35.0849C19.9282 35.2576 20.9268 35.4016 22.4319 35.6175C21.7083 35.1425 21.332 34.8978 20.7531 34.5235C21.5057 34.1925 21.7227 33.1129 23.0108 34.1205C23.6476 34.6243 25.7895 34.4804 25.9342 34.1061C26.5131 32.6523 27.2656 32.825 28.1774 33.3144C28.4089 32.1341 28.626 30.9682 28.8431 29.8023C29.0312 29.8311 29.2194 29.8598 29.4075 29.8886C29.4509 30.6515 29.5088 31.4144 29.5522 32.1773C30.0732 32.0478 30.4061 31.9758 30.7245 31.8894C30.8692 32.0765 31.0428 32.3644 31.1152 32.3356C32.5624 31.8174 33.1992 32.5515 33.6189 33.847C33.7781 33.1417 33.9373 32.4508 34.0675 31.875C34.9648 32.0334 35.8476 32.1917 36.7159 32.3356C36.7449 32.2205 36.7738 32.0909 36.8173 31.9758C36.1805 31.7023 35.5293 31.4144 34.8925 31.1409C34.9214 30.997 34.9504 30.853 34.9793 30.7091C35.4858 30.7811 36.0068 30.8386 36.3831 30.8962C36.4844 30.5795 36.6002 30.2773 36.7015 29.9606C36.7594 30.1333 36.8173 30.3204 36.8752 30.4932C37.6567 30.522 38.525 30.7955 39.2052 30.5364C40.0301 30.2341 40.7103 29.4856 41.4194 28.9674C41.4339 29.0106 41.5063 29.3273 41.5786 29.6439C41.622 29.4856 41.6654 29.3417 41.7089 29.1833C42.5338 29.3848 43.3442 29.6727 44.1836 29.7447C44.5599 29.7735 44.9796 29.3992 45.3703 29.2121H48.3371C47.8451 28.4348 47.2951 27.5424 46.7307 26.6644C48.4095 25.8871 48.395 27.3984 48.9015 28.3341C51.4921 27.2689 50.9132 29.7591 51.9407 30.7811V29.0538C54.0971 29.0826 52.042 27.1825 53.0985 26.1749C53.2721 26.6356 53.4168 27.0674 53.4458 27.1538C54.3286 26.6212 54.9364 26.2469 55.5298 25.8871C55.6166 25.9878 55.7035 26.0886 55.7903 26.1894C54.9075 27.2257 54.0392 28.2621 53.1419 29.3273C54.0536 30.0614 54.8351 30.6947 55.8916 31.544C55.5732 30.4068 55.3416 29.5288 55.168 28.9098C57.1941 25.9878 60.3201 27.4848 63.0553 26.5204C62.8817 27.3121 62.7804 27.7439 62.737 27.9598C64.1552 28.4204 65.3709 28.8235 66.5866 29.2121C66.63 29.0682 66.6734 28.9242 66.7313 28.7947C66.1669 28.478 65.6025 28.1613 65.0525 27.8447C65.1104 27.7007 65.1828 27.5424 65.2407 27.3985C65.9064 27.4416 66.5576 27.4848 67.2812 27.528C67.3681 28.3916 67.4404 29.1977 67.5128 30.0182C67.918 28.003 69.1626 30.8242 69.727 29.6008C69.452 29.4712 69.1915 29.3561 68.7429 29.1402C69.2205 28.7371 69.5823 28.4204 70.2335 27.8735C70.4796 28.8811 70.6677 29.6439 70.8848 30.5076C71.2321 30.6659 71.7676 30.925 72.0281 31.0402C71.4348 31.6591 70.9571 32.2637 70.3638 32.7243C69.8717 33.0985 69.235 33.3 68.6706 33.5879C68.5837 33.4152 68.5113 33.2281 68.4245 33.0553C68.8008 32.825 69.1916 32.5947 69.5678 32.3644C69.5099 32.2637 69.4665 32.1485 69.4087 32.0477C68.7864 32.2205 68.164 32.4076 67.5562 32.5803C67.7154 32.3788 67.8891 32.1773 68.0483 31.9758C67.643 31.8462 67.2089 31.5583 66.8615 31.6447C66.5142 31.7311 66.1669 32.1485 65.9643 32.494C65.5301 33.1993 65.6604 34.322 64.3434 34.3364C63.4027 34.3508 62.4764 34.5379 61.2318 34.6819C61.5792 34.2788 61.8976 33.9478 62.1581 33.6023C62.4475 33.2137 62.6935 32.8106 62.954 32.4076C60.8556 31.2992 59.7702 31.6591 57.8598 34.1205C56.9481 33.4872 56.1231 33.0985 55.2114 34.2644C54.9798 34.5523 54.0536 35.2 53.4313 34.2932C53.084 33.7894 52.6643 33.3432 52.1723 32.7531C52.0999 33.8038 52.042 34.6963 51.9696 35.8478C50.7684 35.0849 49.9146 34.0197 48.9594 35.272C49.3936 35.7326 49.712 36.0349 49.9725 36.3804C50.0014 36.4236 49.6396 36.8698 49.5962 36.8554C48.916 36.4811 48.2503 36.0781 47.5846 35.6751C47.4254 35.4304 47.2517 35.1713 47.0925 34.9266C46.8031 35.7038 46.5281 36.4667 46.2532 37.244C46.0505 37.0569 45.8334 36.8554 45.6308 36.6683C46.0071 36.0781 46.3979 35.4735 46.8175 34.8114C46.2387 34.941 45.7177 35.0705 45.1098 35.2001C45.1533 35.7614 45.1967 36.3372 45.2401 36.9561C44.1112 36.8698 43.0693 36.7834 42.0417 36.6971C42.0996 36.7978 42.143 36.8986 42.2009 36.9993C40.9129 37.5175 39.6104 38.0357 38.2211 38.5827C38.0763 38.0357 37.9316 37.4743 37.729 36.6683C37.454 37.3016 37.2659 37.719 37.0922 38.1077C36.4989 37.8774 36.0358 37.7046 35.5293 37.5031C34.6175 39.36 33.2426 39.5615 31.4915 38.8706C31.1152 38.7266 30.5074 38.9857 30.0732 39.2016C29.5956 39.4319 29.1615 39.8062 28.7418 40.1516C27.4827 41.188 26.1368 41.2744 24.6461 40.6554C24.3712 40.5403 23.9225 40.8569 23.5173 40.9721C23.8212 41.3175 24.0817 41.6198 24.3422 41.9221C24.2265 42.0948 24.0962 42.2532 23.9804 42.4259C23.4305 42.066 22.7647 41.8069 22.3306 41.3463C21.2307 40.1948 20.7676 40.7706 20.5795 41.591C19.8558 41.7925 19.3204 41.9365 18.7994 42.0948C18.8284 42.21 18.8428 42.3107 18.8717 42.4259H20.3913C19.5085 42.9153 19.0454 43.1744 18.6257 43.4047C18.7849 43.7214 18.9297 43.9948 19.1612 44.4698C18.3363 44.3403 17.7574 44.2539 16.9325 44.1388C17.5114 43.4479 17.9166 42.9585 18.3218 42.4835C18.2494 42.3539 18.1916 42.2244 18.1192 42.0948C17.2075 42.4691 16.2089 42.6994 15.4274 43.2464C14.7906 43.6926 14.4143 44.5274 13.7486 45.4198C13.5894 44.6857 13.4157 43.8941 13.2276 43.0736C12.9526 43.6638 12.8224 44.3259 12.4316 44.729C11.1291 46.0676 8.84252 46.8161 9.82663 49.0472C9.17538 49.7237 8.71228 50.1987 8.24917 50.6737C8.90041 50.9904 9.53719 51.3071 10.3766 51.7101C10.6081 52.1851 10.8542 53.0775 11.4186 53.7109C12.1422 54.5169 13.1118 55.0927 13.9801 55.7692L13.546 56.2586C13.1408 55.8843 12.7645 55.4669 12.3303 55.1503C12.0264 54.9344 11.6357 54.8192 11.2738 54.7616C11.187 54.7472 10.8831 55.2654 10.941 55.395C11.1291 55.7404 11.4186 56.0427 11.737 56.2874C12.0698 56.5321 12.4606 56.6904 12.8947 56.9063C11.5199 57.4101 10.4634 57.7988 9.58058 58.1154C9.68189 57.151 9.76872 56.2298 9.85556 55.2942C9.66742 55.2366 9.46482 55.1647 9.27668 55.1071C8.77015 56.4601 8.24915 57.7988 7.64131 59.4109C7.81498 59.4829 8.43729 59.742 8.6399 59.8283C9.21879 60.9943 9.66744 61.8867 10.1016 62.7791C10.2463 62.7359 10.391 62.6928 10.5358 62.664C10.3331 63.0382 10.1161 63.4125 9.91346 63.7723C8.08996 62.995 7.95973 63.067 7.58346 64.6648C7.5111 64.9671 7.20716 65.2405 6.97561 65.4852C5.9915 66.5216 5.3547 67.6444 6.00595 69.1126C5.41259 68.58 4.81924 68.0474 4.25483 67.5436C3.84961 68.3065 3.50229 68.9542 3.14048 69.6163C4.11012 69.5731 5.00739 69.5156 5.89019 69.4724C5.3113 71.0558 5.90469 72.1785 7.17824 72.7686C6.7296 73.4739 6.3533 74.0785 6.20858 74.3088C7.80052 75.3308 9.14644 76.2088 10.3766 77.0005C10.2753 76.2232 10.174 75.374 10.0727 74.5103C10.1885 74.4959 10.2897 74.4671 10.4055 74.4528C10.6371 75.1005 10.8831 75.7338 11.1146 76.3671C12.6342 75.777 13.9367 74.9997 15.326 74.8126C16.7154 74.6111 16.5417 74.0929 15.905 72.8838C16.4839 73.33 16.947 73.5315 16.947 73.7186C16.9614 74.9421 17.193 75.5467 18.4086 74.4959C18.4955 74.424 18.7849 74.424 18.8717 74.5103C19.9861 75.6763 20.8544 74.5823 21.7662 74.1793C23.6331 73.3732 25.471 72.5383 27.3524 74.28C27.4248 73.3156 27.4827 72.5383 27.5261 71.7611C27.6709 71.7035 27.83 71.6459 27.9748 71.5883C28.4379 73.0277 29.0312 74.0065 30.4495 72.6535C30.5074 72.5959 30.985 73.0134 31.3034 73.1573C31.6362 73.3156 32.0849 73.6035 32.3164 73.5027C33.1703 73.0997 33.9662 72.5384 35.0951 71.8618C34.7767 72.6679 34.5886 73.1429 34.357 73.7475C35.1819 73.2293 35.8332 72.8262 36.4265 72.4664C36.3976 72.1353 36.3686 71.833 36.3252 71.5163C38.6552 71.6459 39.1907 71.2717 39.4223 69.2421C40.2472 69.4148 41.0721 69.5731 41.9694 69.7603C41.8825 69.458 41.7957 69.1845 41.7089 68.9254C41.8391 68.8535 41.9549 68.7815 42.0852 68.7095C42.4904 69.3429 42.8956 69.9618 43.2863 70.5951C42.8956 69.2997 43.5613 68.7671 44.6178 68.5368C45.79 68.2777 46.586 68.8246 46.6873 69.9762C46.1229 69.8322 45.5874 69.7027 44.9796 69.5444V71.3724C46.2097 70.7247 47.353 70.1057 48.4384 69.53C48.67 70.1777 48.7134 70.811 49.0029 70.9406C49.3647 71.1133 49.9435 70.9262 50.3922 70.7823C50.8698 70.6239 51.3039 70.3504 51.8683 70.0769C51.8683 68.7815 52.1289 68.6375 53.3445 69.314V71.1853L53.7932 71.2141C54.1405 70.6239 54.5023 70.0481 54.8062 69.5444C54.4733 69.0837 54.155 68.6663 53.8511 68.2489C54.8062 68.4216 55.4574 68.8678 56.1231 69.2996C57.3967 70.1201 58.9453 69.7747 59.4952 68.5224C60.0596 68.9254 60.6095 69.3429 60.7977 69.4724C62.0568 69.0118 62.983 68.6663 63.9092 68.3497C64.9222 67.9898 65.9353 67.6444 66.9339 67.3133C67.0207 67.6731 67.0931 68.0474 67.1799 68.4216C67.2957 68.4504 67.4115 68.4792 67.5272 68.508C67.889 67.7019 68.2653 66.8815 68.6271 66.0898C69.1192 66.4784 69.4665 66.9678 69.8862 67.0398C71.6084 67.3709 73.3596 67.5724 75.0962 67.8027C75.2265 67.8171 75.3857 67.7019 75.6317 67.5868C75.2988 67.2269 75.0238 66.939 74.4449 66.3201H77.7012C77.542 65.3557 77.4262 64.5928 77.3394 64.0026C78.5406 64.4488 79.5537 64.8375 80.6246 65.2405V64.3769C81.3916 63.9595 82.0139 63.6284 82.4915 63.3693C82.7954 63.8587 83.1138 64.3625 83.6203 65.1685C83.8374 64.2041 83.9387 63.7291 84.0834 63.1102C84.7202 63.4413 85.2412 63.7004 85.9359 64.0602C85.3715 64.4345 84.9952 64.6935 84.6189 64.9526C84.6623 65.111 84.7057 65.2837 84.7491 65.442C86.0227 65.0678 87.2818 64.6936 88.6422 64.3049C88.4396 64.9958 88.2948 65.4708 88.1501 65.9458C88.3238 66.1042 88.483 66.2769 88.6567 66.4352C89.0763 63.686 91.5511 65.3413 92.7233 64.0602C93.3167 63.4125 96.4427 63.4701 97.1518 63.9883C96.0519 64.9671 96.052 64.967 96.9926 65.4133C97.615 64.9527 98.0491 64.3913 98.5122 64.3481C100.148 64.1898 101.826 64.3337 103.462 64.1322C104.475 64.0026 105.43 63.3693 106.443 63.1822C107.34 63.0094 108.295 61.6564 109.28 63.2541C109.439 63.5132 110.524 63.2254 111.262 63.1678C111.204 62.7648 111.161 62.4049 111.117 62.1314C111.957 61.8147 112.68 61.5412 113.476 61.2533C113.346 61.9874 113.245 62.6352 113.129 63.2829C113.795 62.0882 114.591 61.7284 115.951 62.2754C115.604 61.7428 115.184 61.4693 114.808 61.167C114.649 61.0374 114.461 60.8647 114.432 60.692C114.403 60.5193 114.504 60.1594 114.605 60.1306C115.488 59.9147 116.4 59.7564 117.283 59.5836C117.587 60.3177 117.876 61.0086 118.18 61.7427C118.484 60.8791 118.715 60.2458 118.947 59.6124C118.831 59.0799 118.672 58.3889 118.527 57.7556C119.511 58.4753 120.365 59.0943 121.219 59.7132C121.451 59.3246 121.682 58.9215 121.986 58.4321C123.173 59.1662 124.953 59.6556 125.373 60.6776C125.908 61.9875 126.255 61.8867 127.153 61.4981C126.487 60.4185 125.865 59.4109 125.242 58.4177C125.474 58.2162 125.72 58.0003 125.951 57.7988C126.545 58.3026 127.138 58.8208 128.007 59.5549C128.528 59.2958 129.367 58.8639 129.989 58.5617C130.597 59.0511 131.219 59.5405 131.914 60.0874C131.596 60.3609 131.292 60.62 130.93 60.9223C131.957 60.8503 133.072 60.4329 133.622 60.8215C135.127 61.8579 135.865 60.8359 136.864 60.1738C137.037 60.6776 137.254 61.2965 137.544 62.117C138.687 60.9223 139.859 60.6632 141.35 60.4905C142.783 60.3177 143.68 59.8715 144.404 61.3973C144.461 61.5125 144.823 61.4837 145.04 61.5125C146.459 61.6564 147.819 61.6852 148.948 60.5625C149.208 60.3034 149.686 60.2746 150.062 60.145C149.888 60.5337 149.715 60.9079 149.527 61.2965C149.599 61.4261 149.657 61.5556 149.729 61.6852C150.236 61.4405 150.713 61.1382 151.234 60.9511C151.799 60.7496 152.436 60.4473 152.957 60.548C153.304 60.62 153.521 61.3397 153.666 61.5844C154.274 61.3973 154.968 61.239 155.576 60.9367C156.039 60.7064 156.401 60.2746 156.806 59.9291C156.343 59.598 155.909 59.123 155.388 58.9647C154.939 58.8351 154.375 59.0799 153.868 59.1518C156.184 57.223 157.935 58.2306 159.512 60.1594C159.382 59.9435 159.252 59.7276 159.136 59.5117C160.308 58.7632 161.104 58.8639 161.191 60.5049C161.799 60.3321 162.45 60.3178 162.827 59.9867C163.217 59.6556 163.333 59.0079 163.68 58.2594C164.23 59.7852 164.317 61.5124 166.314 59.9003C166.474 59.7708 168.094 58.8495 168.775 60.2602C168.919 60.548 169.715 60.6632 170.207 60.6344C172.161 60.4905 174.173 60.4905 175.721 58.5905C175.837 59.195 175.895 59.4829 175.953 59.7852C176.257 59.4685 176.532 59.1662 176.894 58.7776C177.284 59.2814 177.588 59.6556 177.863 60.0011C178.283 59.7708 178.703 59.5405 179.122 59.3102C178.572 59.0367 178.08 58.792 177.588 58.5473C178.746 58.0867 180.164 58.8352 180.526 56.7336C180.237 58.8352 181.38 59.123 182.798 59.2814C183.261 59.3389 183.681 59.9003 184.115 60.2314C184.231 60.3177 184.376 60.3897 184.492 60.4617C184.81 60.0587 185.099 59.7132 185.548 59.1518C185.62 59.9003 185.678 60.3609 185.693 60.548C187.314 60.0874 188.819 59.6556 190.324 59.2382C189.846 57.6117 190.005 57.3382 191.395 57.6116C191.395 57.7268 191.395 57.842 191.395 57.9571C191.351 58.3602 191.308 58.7488 191.264 59.1518C191.554 58.9503 191.829 58.5904 192.147 58.5617C193.016 58.4465 193.898 58.4753 194.781 58.4321V59.67C196.359 59.5405 198.095 59.3821 199.991 59.2238C199.774 60.1882 199.673 60.6488 199.571 61.095C200.266 60.692 200.888 60.3322 202.075 59.6269C201.308 58.9503 200.671 58.3889 199.6 57.4389C200.614 57.77 201.265 57.9859 201.786 58.1586C202.365 57.9283 202.929 57.7124 203.493 57.4965C203.551 57.6404 203.609 57.7988 203.667 57.9427C203.233 58.245 202.799 58.5473 202.365 58.8496C202.683 59.1087 202.958 58.9647 203.045 59.0367C204.55 60.2458 205.056 59.6988 205.331 57.9859C205.462 57.1798 207.936 56.7768 208.371 57.3238C209.196 58.3602 209.832 58.2738 210.397 57.0647C210.787 56.2298 211.222 55.7116 212.148 56.6473C212.51 57.0215 213.465 57.3814 213.711 57.1942C215.187 56.1003 216.113 57.3526 216.866 57.6692C217.676 56.9207 218.356 56.2874 219.051 55.6541C219.239 55.726 219.427 55.798 219.615 55.87C218.53 57.0935 218.993 57.7268 220.122 58.0723C220.643 57.6404 221.15 57.223 221.772 56.7192C221.96 57.1942 222.235 57.698 222.163 57.7412C221.222 58.4321 220.223 59.0655 219.239 59.7132C219.587 59.9291 220.006 59.8427 220.44 59.7708C221.106 59.6556 222.177 59.2238 222.394 59.4829C223.711 61.0519 224.739 59.8859 225.853 59.5836C225.882 59.3245 225.896 59.0798 225.925 58.8207C224.768 58.6192 223.595 58.4321 222.438 58.2306C224.84 56.9927 226.649 58.0723 228.342 59.6988C228.444 59.5405 228.545 59.3965 228.646 59.2382C228.458 58.8927 228.27 58.5329 228.169 58.3313C228.805 57.5972 229.413 56.892 229.934 56.2874C229.978 57.1798 230.007 58.0579 230.064 59.1231C229.992 59.1662 229.63 59.4253 229.051 59.8139C229.804 59.8715 230.412 60.1162 230.803 59.9147C232.626 59.0079 234.782 59.195 236.389 60.4617C236.693 60.7064 237.199 60.7208 237.764 60.8791C237.199 59.9723 236.866 59.4397 236.345 58.5905C238.154 58.72 239.587 58.4177 240.238 59.9147C240.354 60.1738 239.804 60.7208 239.558 61.1382C239.602 61.2822 239.659 61.4261 239.703 61.57C240.586 61.1958 241.483 60.8071 242.525 60.3609C242.785 61.6708 243.191 61.9011 244.493 61.2678C245.767 60.6488 247.402 60.7783 248.878 60.5768C249.023 60.7496 249.168 60.9223 249.312 61.1094C249.356 60.4185 249.399 59.7276 249.457 58.7632C250.282 58.8208 251.252 58.9215 252.236 58.9359C252.598 58.9359 253.017 58.7632 253.292 58.5329C253.857 58.0579 254.334 57.4821 255 56.7912C253.64 55.5101 252.482 54.0995 249.906 54.7904ZM207.502 22.7348C205.838 24.6348 205.433 24.678 204.203 23.2098C205.346 23.0514 206.287 22.9075 207.502 22.7348ZM189.701 21.6696C190.063 21.6984 190.425 21.8135 190.801 21.8855C189.745 22.7923 187.965 21.8136 187.661 24.0302C187.473 23.728 187.053 23.3393 187.14 23.109C187.545 21.9287 188.515 21.5689 189.701 21.6696ZM28.5681 26.5636C28.5971 26.3909 28.626 26.2038 28.655 26.031C29.2194 25.6856 29.7983 25.3545 30.3193 25.0378C30.71 25.6424 31.0573 26.1462 31.4915 26.8227C30.6087 26.7507 29.5812 26.6644 28.5681 26.5636ZM30.6232 31.9614C30.8402 29.975 32.3309 29.3273 34.2267 28.5644C33.1558 30.2053 32.519 31.7599 30.6232 31.9614ZM39.7696 25.1242C39.9722 25.6568 40.2038 26.175 40.4064 26.6644C39.2341 26.7219 38.6408 26.0598 38.9013 24.3469C38.9736 23.8575 40.0445 23.5264 40.6524 23.1234C40.7537 23.3105 40.8695 23.4833 40.9708 23.6704C40.5366 23.9295 40.1024 24.1886 39.6249 24.4765C39.6828 24.6924 39.6972 24.9227 39.7696 25.1242ZM51.9986 22.5477C50.6671 22.1158 49.3212 21.684 47.9898 21.2522C48.0477 21.0363 48.12 20.8204 48.1779 20.6044C49.5383 20.9643 50.8987 21.3241 52.2446 21.684L51.9986 22.5477ZM72.0426 29.3704C71.9413 29.2985 71.84 29.2265 71.7387 29.1545C71.9123 28.8235 72.086 28.478 72.2596 28.147C71.8834 27.7151 71.5216 27.2833 71.1598 26.8515C71.2611 26.7651 71.3624 26.6788 71.4637 26.5924C72.2597 26.8515 73.0701 27.1106 74.5029 27.5712C73.5187 28.2909 72.7806 28.8235 72.0426 29.3704ZM75.3567 38.1796C75.2409 37.9925 75.1396 37.8054 75.0238 37.6039C75.6606 36.7834 75.979 35.3728 78.0485 36.5531C77.0065 37.1864 76.1816 37.6902 75.3567 38.1796ZM77.7591 28.7227C77.0934 28.0318 76.5434 27.456 75.733 26.6068C75.733 26.6068 75.2409 26.7075 74.7489 26.7939L74.662 26.2181C75.5159 26.103 76.3842 25.9878 77.3539 25.8583C77.3394 25.7863 77.3249 25.7 77.3105 25.5992C77.296 25.4265 77.3105 25.2393 77.3105 24.8795C77.9472 25.8439 78.4682 26.6068 79.0037 27.3985C78.6129 27.8159 78.1933 28.2621 77.7591 28.7227ZM89.0908 31.472C87.2384 29.8311 86.399 27.0242 83.1283 26.9666C83.519 26.3909 83.7795 25.9878 83.8808 25.8583C85.7043 26.4196 87.412 26.9522 89.1342 27.4848C88.3961 27.6719 87.7449 27.8303 87.1081 27.9886C90.2196 27.9742 88.3961 30.4212 89.0908 31.472ZM96.4861 36.0637C96.544 35.3584 96.6019 34.5235 96.6598 33.847C97.557 34.4084 98.2373 34.8258 98.9319 35.2576C98.2373 35.4879 97.4847 35.7326 96.4861 36.0637ZM100.061 35.1569C99.8871 35.9198 99.7568 36.5819 99.5976 37.2296C99.3661 38.1508 98.9174 38.6546 97.5281 37.7622C98.3675 36.6826 99.12 35.6895 99.9449 34.7826C99.9884 34.7251 100.712 35.272 100.871 35.8478C100.698 35.6751 100.509 35.5167 100.061 35.1569ZM107.181 18.7044C106.689 18.3446 105.893 17.9991 105.922 17.7112C105.965 17.0923 106.429 16.5165 106.718 15.9264C106.877 15.9695 107.022 16.0127 107.181 16.0559V18.7044ZM108.324 18.0999C108.281 17.9271 108.238 17.7544 108.194 17.5817C109.193 17.337 109.844 15.6385 111.624 17.2362C110.322 17.5673 109.323 17.8408 108.324 18.0999ZM116.718 33.0841C118.542 31.8318 121.407 33.5016 122.811 30.9826C122.927 32.9834 120.756 33.7175 116.718 33.0841ZM138.513 32.6379C137.66 30.7235 136.704 31.6735 135.575 32.3356C136.241 31.472 136.907 30.6083 137.587 29.7159C138.18 30.4212 138.701 31.0546 139.309 31.7599C139.107 31.9614 138.861 32.2493 138.513 32.6379ZM144.201 32.2637C143.998 31.8031 143.781 31.3424 143.579 30.8818C143.419 30.4788 143.289 30.0758 143.043 29.3704C143.752 29.5432 144.476 29.5288 144.621 29.8023C144.91 30.378 144.939 31.1121 144.953 31.7743C144.953 31.9326 144.461 32.1053 144.201 32.2637ZM148.354 30.378C149.729 30.3349 150.019 27.4992 151.987 28.9818C150.829 29.6008 150.192 31.5584 148.354 30.378ZM160.207 29.8599C159.889 30.0614 159.585 30.45 159.252 30.4644C158.239 30.5508 157.226 30.4932 156.14 30.2485C157.4 29.6583 158.152 28.8954 157.631 27.2401C157.819 27.3265 157.993 27.3985 158.181 27.4848C158.369 28.0174 158.557 28.5644 158.745 29.097C158.963 29.2553 159.165 29.428 159.382 29.5864C159.672 28.9962 159.976 28.4204 160.294 27.7871C160.468 28.3485 160.598 28.7803 160.815 29.5288C160.728 29.5864 160.453 29.7159 160.207 29.8599ZM165.012 29.9606C164.969 30.047 164.867 30.2197 164.867 30.2197C163.42 29.5144 162.175 29.2553 162.277 31.947L161.712 31.5727C161.568 30.8386 161.104 29.975 161.336 29.3848C161.756 28.3053 163.029 28.1757 164.013 28.2765C164.404 28.3197 164.694 29.3561 165.012 29.9606ZM170.974 29.4856C170.671 29.4136 170.497 29.428 170.396 29.3417C169.31 28.4204 167.689 28.2621 167.154 29.3129C166.56 30.4788 165.822 30.0614 165.041 29.9606C165.591 28.3485 165.272 26.8515 164.202 25.2681C164.867 25.4409 165.345 25.5704 165.909 25.7287C165.388 24.7643 164.954 23.987 164.375 22.9363C166.864 22.9219 166.054 25.2105 167.646 25.7719C167.762 25.2969 167.906 24.7212 168.123 23.8719C168.644 23.584 169.542 23.0802 170.627 22.4901C170.511 22.9939 170.425 23.3249 170.294 23.9151C171.293 23.8431 172.19 23.7711 173.102 23.6992C173.319 24.6492 173.594 25.7575 173.768 26.5348C172.711 27.3841 171.886 28.0606 171.061 28.7371C170.931 28.6219 170.815 28.5068 170.685 28.3917C170.757 28.6939 170.859 29.025 170.974 29.4856ZM179.296 29.2697C178.384 28.9242 177.472 28.5932 176.17 28.1038C175.837 28.4061 175.273 29.2553 174.491 29.572C173.811 29.8598 172.87 29.5576 172.06 29.5144C172.581 28.8954 173.044 28.3485 173.637 27.6432C173.869 27.7583 174.361 27.9886 174.954 28.2621C175.186 27.7727 175.388 27.3265 175.635 26.8083C176.923 27.4704 178.196 28.1182 179.47 28.7659C179.412 28.953 179.354 29.1114 179.296 29.2697ZM183.421 27.8879C183.015 28.5644 182.219 29.0106 181.423 29.7015C181.004 29.2553 180.613 28.8379 180.222 28.4204C180.295 28.3053 180.367 28.1901 180.454 28.075C180.975 28.147 181.496 28.2045 182.017 28.2765C182.784 27.2689 183.536 26.2901 184.289 25.2969C185.591 26.5636 183.898 27.125 183.421 27.8879ZM223.899 45.1464C224.102 44.7721 224.391 44.4411 224.637 44.0812C225.014 44.3835 225.607 44.6426 225.694 45.0168C225.781 45.3911 225.477 46.0676 225.129 46.2691C224.623 46.5714 223.943 46.5714 223.19 46.7441C223.508 46.0244 223.668 45.5638 223.899 45.1464ZM225.679 47.91C222.206 47.982 222.206 47.982 222.076 46.96C223.349 47.1328 224.551 47.2911 225.752 47.4638C225.723 47.6078 225.708 47.7661 225.679 47.91ZM227.778 47.9532C227.474 46.96 227.199 46.0388 226.881 44.9593C227.546 45.1176 228.154 45.2615 228.776 45.4198C229.08 46.5426 229.297 47.6222 227.778 47.9532ZM236.852 48.6873C237.185 47.9532 237.416 47.1903 237.662 46.4274L237.04 46.2403C236.635 46.8881 236.23 47.5502 235.709 48.385C236.143 48.5002 236.837 48.7449 236.852 48.6873Z" fill="url(#paint0_linear)"/>
<defs>
<linearGradient id="paint0_linear" x1="284.086" y1="84.4389" x2="-30.7764" y2="-128.208" gradientUnits="userSpaceOnUse">
<stop stop-color="#F5E5AF"/>
<stop offset="1" stop-color="#FFF2C7"/>
</linearGradient>
</defs>
</svg>
