<svg width="12" height="8" viewBox="0 0 12 8" fill="none" xmlns="http://www.w3.org/2000/svg">
<path d="M2.12016 6.70999L6.00016 2.82999L9.88016 6.70999C9.97274 6.80258 10.0827 6.87601 10.2036 6.92612C10.3246 6.97622 10.4542 7.00201 10.5852 7.00201C10.7161 7.00201 10.8457 6.97622 10.9667 6.92612C11.0877 6.87601 11.1976 6.80258 11.2902 6.70999C11.3827 6.61741 11.4562 6.5075 11.5063 6.38654C11.5564 6.26557 11.5822 6.13592 11.5822 6.00499C11.5822 5.87406 11.5564 5.74441 11.5063 5.62345C11.4562 5.50249 11.3827 5.39258 11.2902 5.29999L6.70016 0.709993C6.60765 0.61729 6.49776 0.543742 6.37678 0.493561C6.25581 0.443379 6.12613 0.417549 5.99516 0.417549C5.86419 0.417549 5.73451 0.443379 5.61353 0.493561C5.49256 0.543742 5.38267 0.61729 5.29016 0.709993L0.700159 5.29999C0.607455 5.39251 0.533907 5.5024 0.483726 5.62337C0.433545 5.74434 0.407715 5.87402 0.407715 6.00499C0.407715 6.13596 0.433545 6.26564 0.483726 6.38662C0.533907 6.50759 0.607455 6.61748 0.700159 6.70999C1.09016 7.08999 1.73016 7.09999 2.12016 6.70999Z" fill="#978787"/>
</svg>
