<svg width="18" height="18" viewBox="0 0 18 18" fill="none" xmlns="http://www.w3.org/2000/svg">
<path d="M16.5834 10.0838H4.48258L9.76925 15.3704C10.1917 15.7929 10.1917 16.4863 9.76925 16.9088C9.66902 17.0092 9.54998 17.0889 9.41892 17.1432C9.28787 17.1976 9.14738 17.2256 9.0055 17.2256C8.86362 17.2256 8.72313 17.1976 8.59207 17.1432C8.46102 17.0889 8.34197 17.0092 8.24175 16.9088L1.10258 9.76961C0.68008 9.34711 0.68008 8.66461 1.10258 8.24211L8.24175 1.10294C8.34204 1.00264 8.46111 0.923084 8.59216 0.868803C8.7232 0.814522 8.86366 0.786585 9.0055 0.786585C9.14734 0.786585 9.28779 0.814522 9.41884 0.868803C9.54988 0.923084 9.66895 1.00264 9.76925 1.10294C9.86954 1.20324 9.9491 1.32231 10.0034 1.45335C10.0577 1.5844 10.0856 1.72485 10.0856 1.86669C10.0856 2.00853 10.0577 2.14898 10.0034 2.28003C9.9491 2.41107 9.86954 2.53014 9.76925 2.63044L4.48258 7.91711H16.5834C17.1792 7.91711 17.6667 8.40461 17.6667 9.00044C17.6667 9.59627 17.1792 10.0838 16.5834 10.0838Z" fill="#C4C4C4"/>
</svg>
